solid OpenSCAD_Model
  facet normal -0.900969 -0.433884 0
    outer loop
      vertex 2 0 0
      vertex 1.24698 1.56366 3
      vertex 1.24698 1.56366 0
    endloop
  endfacet
  facet normal -0.900969 -0.433884 0
    outer loop
      vertex 1.24698 1.56366 3
      vertex 2 0 0
      vertex 2 0 3
    endloop
  endfacet
  facet normal 1 -0 0
    outer loop
      vertex -1.80194 -0.867767 3
      vertex -1.80194 0.867767 0
      vertex -1.80194 0.867767 3
    endloop
  endfacet
  facet normal 1 0 0
    outer loop
      vertex -1.80194 0.867767 0
      vertex -1.80194 -0.867767 3
      vertex -1.80194 -0.867767 0
    endloop
  endfacet
  facet normal -0.222521 -0.974928 0
    outer loop
      vertex -0.445042 1.94986 0
      vertex 1.24698 1.56366 3
      vertex -0.445042 1.94986 3
    endloop
  endfacet
  facet normal -0.222521 -0.974928 -0
    outer loop
      vertex 1.24698 1.56366 3
      vertex -0.445042 1.94986 0
      vertex 1.24698 1.56366 0
    endloop
  endfacet
  facet normal 0.62349 -0.781831 0
    outer loop
      vertex -1.80194 0.867767 0
      vertex -0.445042 1.94986 3
      vertex -1.80194 0.867767 3
    endloop
  endfacet
  facet normal 0.62349 -0.781831 0
    outer loop
      vertex -0.445042 1.94986 3
      vertex -1.80194 0.867767 0
      vertex -0.445042 1.94986 0
    endloop
  endfacet
  facet normal -0.222521 0.974928 0
    outer loop
      vertex 1.24698 -1.56366 0
      vertex -0.445042 -1.94986 3
      vertex 1.24698 -1.56366 3
    endloop
  endfacet
  facet normal -0.222521 0.974928 0
    outer loop
      vertex -0.445042 -1.94986 3
      vertex 1.24698 -1.56366 0
      vertex -0.445042 -1.94986 0
    endloop
  endfacet
  facet normal 0.62349 0.781831 -0
    outer loop
      vertex -0.445042 -1.94986 0
      vertex -1.80194 -0.867767 3
      vertex -0.445042 -1.94986 3
    endloop
  endfacet
  facet normal 0.62349 0.781831 0
    outer loop
      vertex -1.80194 -0.867767 3
      vertex -0.445042 -1.94986 0
      vertex -1.80194 -0.867767 0
    endloop
  endfacet
  facet normal -0.900969 0.433884 0
    outer loop
      vertex 1.24698 -1.56366 0
      vertex 2 0 3
      vertex 2 0 0
    endloop
  endfacet
  facet normal -0.900969 0.433884 0
    outer loop
      vertex 2 0 3
      vertex 1.24698 -1.56366 0
      vertex 1.24698 -1.56366 3
    endloop
  endfacet
  facet normal -0.900969 -0.433884 0
    outer loop
      vertex 32 0 0
      vertex 31.247 1.56366 3
      vertex 31.247 1.56366 0
    endloop
  endfacet
  facet normal -0.900969 -0.433884 0
    outer loop
      vertex 31.247 1.56366 3
      vertex 32 0 0
      vertex 32 0 3
    endloop
  endfacet
  facet normal 1 -0 0
    outer loop
      vertex 28.1981 -0.867767 3
      vertex 28.1981 0.867767 0
      vertex 28.1981 0.867767 3
    endloop
  endfacet
  facet normal 1 0 0
    outer loop
      vertex 28.1981 0.867767 0
      vertex 28.1981 -0.867767 3
      vertex 28.1981 -0.867767 0
    endloop
  endfacet
  facet normal -0.222521 -0.974928 0
    outer loop
      vertex 29.555 1.94986 0
      vertex 31.247 1.56366 3
      vertex 29.555 1.94986 3
    endloop
  endfacet
  facet normal -0.222521 -0.974928 -0
    outer loop
      vertex 31.247 1.56366 3
      vertex 29.555 1.94986 0
      vertex 31.247 1.56366 0
    endloop
  endfacet
  facet normal 0.62349 0.781831 -0
    outer loop
      vertex 29.555 -1.94986 0
      vertex 28.1981 -0.867767 3
      vertex 29.555 -1.94986 3
    endloop
  endfacet
  facet normal 0.62349 0.781831 0
    outer loop
      vertex 28.1981 -0.867767 3
      vertex 29.555 -1.94986 0
      vertex 28.1981 -0.867767 0
    endloop
  endfacet
  facet normal 0.62349 -0.781831 0
    outer loop
      vertex 28.1981 0.867767 0
      vertex 29.555 1.94986 3
      vertex 28.1981 0.867767 3
    endloop
  endfacet
  facet normal 0.62349 -0.781831 0
    outer loop
      vertex 29.555 1.94986 3
      vertex 28.1981 0.867767 0
      vertex 29.555 1.94986 0
    endloop
  endfacet
  facet normal -0.222521 0.974928 0
    outer loop
      vertex 31.247 -1.56366 0
      vertex 29.555 -1.94986 3
      vertex 31.247 -1.56366 3
    endloop
  endfacet
  facet normal -0.222521 0.974928 0
    outer loop
      vertex 29.555 -1.94986 3
      vertex 31.247 -1.56366 0
      vertex 29.555 -1.94986 0
    endloop
  endfacet
  facet normal -0.900969 0.433884 0
    outer loop
      vertex 31.247 -1.56366 0
      vertex 32 0 3
      vertex 32 0 0
    endloop
  endfacet
  facet normal -0.900969 0.433884 0
    outer loop
      vertex 32 0 3
      vertex 31.247 -1.56366 0
      vertex 31.247 -1.56366 3
    endloop
  endfacet
  facet normal -0.900969 -0.433884 0
    outer loop
      vertex 62 0 0
      vertex 61.247 1.56366 3
      vertex 61.247 1.56366 0
    endloop
  endfacet
  facet normal -0.900969 -0.433884 0
    outer loop
      vertex 61.247 1.56366 3
      vertex 62 0 0
      vertex 62 0 3
    endloop
  endfacet
  facet normal 1 -0 0
    outer loop
      vertex 58.1981 -0.867767 3
      vertex 58.1981 0.867767 0
      vertex 58.1981 0.867767 3
    endloop
  endfacet
  facet normal 1 0 0
    outer loop
      vertex 58.1981 0.867767 0
      vertex 58.1981 -0.867767 3
      vertex 58.1981 -0.867767 0
    endloop
  endfacet
  facet normal -0.222521 -0.974928 0
    outer loop
      vertex 59.555 1.94986 0
      vertex 61.247 1.56366 3
      vertex 59.555 1.94986 3
    endloop
  endfacet
  facet normal -0.222521 -0.974928 -0
    outer loop
      vertex 61.247 1.56366 3
      vertex 59.555 1.94986 0
      vertex 61.247 1.56366 0
    endloop
  endfacet
  facet normal 0.62349 0.781831 -0
    outer loop
      vertex 59.555 -1.94986 0
      vertex 58.1981 -0.867767 3
      vertex 59.555 -1.94986 3
    endloop
  endfacet
  facet normal 0.62349 0.781831 0
    outer loop
      vertex 58.1981 -0.867767 3
      vertex 59.555 -1.94986 0
      vertex 58.1981 -0.867767 0
    endloop
  endfacet
  facet normal 0.62349 -0.781831 0
    outer loop
      vertex 58.1981 0.867767 0
      vertex 59.555 1.94986 3
      vertex 58.1981 0.867767 3
    endloop
  endfacet
  facet normal 0.62349 -0.781831 0
    outer loop
      vertex 59.555 1.94986 3
      vertex 58.1981 0.867767 0
      vertex 59.555 1.94986 0
    endloop
  endfacet
  facet normal -0.222521 0.974928 0
    outer loop
      vertex 61.247 -1.56366 0
      vertex 59.555 -1.94986 3
      vertex 61.247 -1.56366 3
    endloop
  endfacet
  facet normal -0.222521 0.974928 0
    outer loop
      vertex 59.555 -1.94986 3
      vertex 61.247 -1.56366 0
      vertex 59.555 -1.94986 0
    endloop
  endfacet
  facet normal -0.900969 0.433884 0
    outer loop
      vertex 61.247 -1.56366 0
      vertex 62 0 3
      vertex 62 0 0
    endloop
  endfacet
  facet normal -0.900969 0.433884 0
    outer loop
      vertex 62 0 3
      vertex 61.247 -1.56366 0
      vertex 61.247 -1.56366 3
    endloop
  endfacet
  facet normal -1 0 0
    outer loop
      vertex -3 6 0
      vertex -3 -6 3
      vertex -3 6 3
    endloop
  endfacet
  facet normal -1 0 0
    outer loop
      vertex -3 -9 0
      vertex -3 -6 3
      vertex -3 6 0
    endloop
  endfacet
  facet normal -1 0 0
    outer loop
      vertex -3 -9 13
      vertex -3 -6 3
      vertex -3 -9 0
    endloop
  endfacet
  facet normal -1 0 0
    outer loop
      vertex -3 -6 3
      vertex -3 -9 13
      vertex -3 -6 13
    endloop
  endfacet
  facet normal 0 0 1
    outer loop
      vertex 63 6 3
      vertex 62 0 3
      vertex 63 -6 3
    endloop
  endfacet
  facet normal 0 0 1
    outer loop
      vertex 63 6 3
      vertex 61.247 1.56366 3
      vertex 62 0 3
    endloop
  endfacet
  facet normal 0 0 1
    outer loop
      vertex 63 6 3
      vertex 59.555 1.94986 3
      vertex 61.247 1.56366 3
    endloop
  endfacet
  facet normal 0 0 1
    outer loop
      vertex 63 6 3
      vertex 58.1981 0.867767 3
      vertex 59.555 1.94986 3
    endloop
  endfacet
  facet normal 0 0 1
    outer loop
      vertex 58.1981 0.867767 3
      vertex 32 0 3
      vertex 58.1981 -0.867767 3
    endloop
  endfacet
  facet normal -0 0 1
    outer loop
      vertex 31.247 1.56366 3
      vertex 58.1981 0.867767 3
      vertex 63 6 3
    endloop
  endfacet
  facet normal 0 0 1
    outer loop
      vertex 58.1981 0.867767 3
      vertex 31.247 1.56366 3
      vertex 32 0 3
    endloop
  endfacet
  facet normal 0 0 1
    outer loop
      vertex 63 6 3
      vertex 29.555 1.94986 3
      vertex 31.247 1.56366 3
    endloop
  endfacet
  facet normal 0 0 1
    outer loop
      vertex 28.1981 0.867767 3
      vertex 2 0 3
      vertex 28.1981 -0.867767 3
    endloop
  endfacet
  facet normal -0 0 1
    outer loop
      vertex 1.24698 1.56366 3
      vertex 28.1981 0.867767 3
      vertex 29.555 1.94986 3
    endloop
  endfacet
  facet normal -0 0 1
    outer loop
      vertex -3 6 3
      vertex 29.555 1.94986 3
      vertex 63 6 3
    endloop
  endfacet
  facet normal 0 0 1
    outer loop
      vertex 28.1981 0.867767 3
      vertex 1.24698 1.56366 3
      vertex 2 0 3
    endloop
  endfacet
  facet normal 0 0 1
    outer loop
      vertex 29.555 1.94986 3
      vertex -3 6 3
      vertex 1.24698 1.56366 3
    endloop
  endfacet
  facet normal 0 0 1
    outer loop
      vertex -1.80194 0.867767 3
      vertex -3 6 3
      vertex -1.80194 -0.867767 3
    endloop
  endfacet
  facet normal 0 0 1
    outer loop
      vertex -0.445042 1.94986 3
      vertex -3 6 3
      vertex -1.80194 0.867767 3
    endloop
  endfacet
  facet normal 0 0 1
    outer loop
      vertex 1.24698 1.56366 3
      vertex -3 6 3
      vertex -0.445042 1.94986 3
    endloop
  endfacet
  facet normal -0 0 1
    outer loop
      vertex 61.247 -1.56366 3
      vertex 63 -6 3
      vertex 62 0 3
    endloop
  endfacet
  facet normal -0 0 1
    outer loop
      vertex 59.555 -1.94986 3
      vertex 63 -6 3
      vertex 61.247 -1.56366 3
    endloop
  endfacet
  facet normal 0 0 1
    outer loop
      vertex 58.1981 -0.867767 3
      vertex 63 -6 3
      vertex 59.555 -1.94986 3
    endloop
  endfacet
  facet normal 0 0 1
    outer loop
      vertex 31.247 -1.56366 3
      vertex 58.1981 -0.867767 3
      vertex 32 0 3
    endloop
  endfacet
  facet normal 0 0 1
    outer loop
      vertex 58.1981 -0.867767 3
      vertex 31.247 -1.56366 3
      vertex 63 -6 3
    endloop
  endfacet
  facet normal -0 0 1
    outer loop
      vertex 29.555 -1.94986 3
      vertex 63 -6 3
      vertex 31.247 -1.56366 3
    endloop
  endfacet
  facet normal 0 0 1
    outer loop
      vertex 1.24698 -1.56366 3
      vertex 28.1981 -0.867767 3
      vertex 2 0 3
    endloop
  endfacet
  facet normal 0 0 1
    outer loop
      vertex 28.1981 -0.867767 3
      vertex 1.24698 -1.56366 3
      vertex 29.555 -1.94986 3
    endloop
  endfacet
  facet normal 0 0 1
    outer loop
      vertex -3 -6 3
      vertex 29.555 -1.94986 3
      vertex 1.24698 -1.56366 3
    endloop
  endfacet
  facet normal 0 0 1
    outer loop
      vertex -3 -6 3
      vertex 1.24698 -1.56366 3
      vertex -0.445042 -1.94986 3
    endloop
  endfacet
  facet normal 0 0 1
    outer loop
      vertex 29.555 -1.94986 3
      vertex -3 -6 3
      vertex 63 -6 3
    endloop
  endfacet
  facet normal 0 0 1
    outer loop
      vertex -1.80194 -0.867767 3
      vertex -3 -6 3
      vertex -0.445042 -1.94986 3
    endloop
  endfacet
  facet normal 0 0 1
    outer loop
      vertex -3 -6 3
      vertex -1.80194 -0.867767 3
      vertex -3 6 3
    endloop
  endfacet
  facet normal 1 0 0
    outer loop
      vertex 63 -6 13
      vertex 63 -9 13
      vertex 63 -6 3
    endloop
  endfacet
  facet normal 1 -0 0
    outer loop
      vertex 63 -6 3
      vertex 63 6 0
      vertex 63 6 3
    endloop
  endfacet
  facet normal 1 0 0
    outer loop
      vertex 63 -6 3
      vertex 63 -9 0
      vertex 63 6 0
    endloop
  endfacet
  facet normal 1 0 0
    outer loop
      vertex 63 -9 0
      vertex 63 -6 3
      vertex 63 -9 13
    endloop
  endfacet
  facet normal 0 0 -1
    outer loop
      vertex 63 -9 0
      vertex 62 0 0
      vertex 63 6 0
    endloop
  endfacet
  facet normal 0 0 -1
    outer loop
      vertex 63 -9 0
      vertex 61.247 -1.56366 0
      vertex 62 0 0
    endloop
  endfacet
  facet normal 0 0 -1
    outer loop
      vertex 63 -9 0
      vertex 59.555 -1.94986 0
      vertex 61.247 -1.56366 0
    endloop
  endfacet
  facet normal 0 0 -1
    outer loop
      vertex 63 -9 0
      vertex 58.1981 -0.867767 0
      vertex 59.555 -1.94986 0
    endloop
  endfacet
  facet normal 0 0 -1
    outer loop
      vertex 58.1981 -0.867767 0
      vertex 32 0 0
      vertex 58.1981 0.867767 0
    endloop
  endfacet
  facet normal 0 0 -1
    outer loop
      vertex 31.247 -1.56366 0
      vertex 58.1981 -0.867767 0
      vertex 63 -9 0
    endloop
  endfacet
  facet normal -0 0 -1
    outer loop
      vertex 58.1981 -0.867767 0
      vertex 31.247 -1.56366 0
      vertex 32 0 0
    endloop
  endfacet
  facet normal 0 0 -1
    outer loop
      vertex 63 -9 0
      vertex 29.555 -1.94986 0
      vertex 31.247 -1.56366 0
    endloop
  endfacet
  facet normal 0 0 -1
    outer loop
      vertex 28.1981 -0.867767 0
      vertex 2 0 0
      vertex 28.1981 0.867767 0
    endloop
  endfacet
  facet normal 0 0 -1
    outer loop
      vertex -3 -9 0
      vertex 28.1981 -0.867767 0
      vertex 29.555 -1.94986 0
    endloop
  endfacet
  facet normal 0 0 -1
    outer loop
      vertex -3 -9 0
      vertex 29.555 -1.94986 0
      vertex 63 -9 0
    endloop
  endfacet
  facet normal -0 0 -1
    outer loop
      vertex 28.1981 -0.867767 0
      vertex 1.24698 -1.56366 0
      vertex 2 0 0
    endloop
  endfacet
  facet normal 0 0 -1
    outer loop
      vertex 28.1981 -0.867767 0
      vertex -3 -9 0
      vertex 1.24698 -1.56366 0
    endloop
  endfacet
  facet normal 0 0 -1
    outer loop
      vertex -3 6 0
      vertex -1.80194 -0.867767 0
      vertex -3 -9 0
    endloop
  endfacet
  facet normal -0 0 -1
    outer loop
      vertex -0.445042 -1.94986 0
      vertex -3 -9 0
      vertex -1.80194 -0.867767 0
    endloop
  endfacet
  facet normal 0 0 -1
    outer loop
      vertex 1.24698 -1.56366 0
      vertex -3 -9 0
      vertex -0.445042 -1.94986 0
    endloop
  endfacet
  facet normal 0 0 -1
    outer loop
      vertex 61.247 1.56366 0
      vertex 63 6 0
      vertex 62 0 0
    endloop
  endfacet
  facet normal 0 0 -1
    outer loop
      vertex 59.555 1.94986 0
      vertex 63 6 0
      vertex 61.247 1.56366 0
    endloop
  endfacet
  facet normal 0 0 -1
    outer loop
      vertex 58.1981 0.867767 0
      vertex 63 6 0
      vertex 59.555 1.94986 0
    endloop
  endfacet
  facet normal 0 0 -1
    outer loop
      vertex 31.247 1.56366 0
      vertex 58.1981 0.867767 0
      vertex 32 0 0
    endloop
  endfacet
  facet normal 0 0 -1
    outer loop
      vertex 58.1981 0.867767 0
      vertex 31.247 1.56366 0
      vertex 63 6 0
    endloop
  endfacet
  facet normal 0 0 -1
    outer loop
      vertex 29.555 1.94986 0
      vertex 63 6 0
      vertex 31.247 1.56366 0
    endloop
  endfacet
  facet normal 0 0 -1
    outer loop
      vertex 1.24698 1.56366 0
      vertex 28.1981 0.867767 0
      vertex 2 0 0
    endloop
  endfacet
  facet normal 0 0 -1
    outer loop
      vertex 28.1981 0.867767 0
      vertex 1.24698 1.56366 0
      vertex 29.555 1.94986 0
    endloop
  endfacet
  facet normal 0 0 -1
    outer loop
      vertex -3 6 0
      vertex 29.555 1.94986 0
      vertex 1.24698 1.56366 0
    endloop
  endfacet
  facet normal 0 0 -1
    outer loop
      vertex -3 6 0
      vertex 1.24698 1.56366 0
      vertex -0.445042 1.94986 0
    endloop
  endfacet
  facet normal 0 0 -1
    outer loop
      vertex 29.555 1.94986 0
      vertex -3 6 0
      vertex 63 6 0
    endloop
  endfacet
  facet normal 0 0 -1
    outer loop
      vertex -1.80194 0.867767 0
      vertex -3 6 0
      vertex -0.445042 1.94986 0
    endloop
  endfacet
  facet normal 0 0 -1
    outer loop
      vertex -1.80194 -0.867767 0
      vertex -3 6 0
      vertex -1.80194 0.867767 0
    endloop
  endfacet
  facet normal 0 -1 0
    outer loop
      vertex 39.9271 -9 9.76336
      vertex 51.5729 -9 10.8532
      vertex 38.4271 -9 10.8532
    endloop
  endfacet
  facet normal 0 -1 0
    outer loop
      vertex 39.9271 -9 9.76336
      vertex 50.0729 -9 9.76336
      vertex 51.5729 -9 10.8532
    endloop
  endfacet
  facet normal 0 -1 0
    outer loop
      vertex 40.5 -9 8
      vertex 50.0729 -9 9.76336
      vertex 39.9271 -9 9.76336
    endloop
  endfacet
  facet normal 0 -1 0
    outer loop
      vertex 40.5 -9 8
      vertex 49.5 -9 8
      vertex 50.0729 -9 9.76336
    endloop
  endfacet
  facet normal 0 -1 0
    outer loop
      vertex 39.9271 -9 6.23664
      vertex 49.5 -9 8
      vertex 40.5 -9 8
    endloop
  endfacet
  facet normal 0 -1 0
    outer loop
      vertex 39.9271 -9 6.23664
      vertex 50.0729 -9 6.23664
      vertex 49.5 -9 8
    endloop
  endfacet
  facet normal 0 -1 0
    outer loop
      vertex 38.4271 -9 5.14683
      vertex 50.0729 -9 6.23664
      vertex 39.9271 -9 6.23664
    endloop
  endfacet
  facet normal 0 -1 -0
    outer loop
      vertex 50.0729 -9 6.23664
      vertex 38.4271 -9 5.14683
      vertex 51.5729 -9 5.14683
    endloop
  endfacet
  facet normal 0 -1 0
    outer loop
      vertex 24.9271 -9 9.76336
      vertex 36.5729 -9 10.8532
      vertex 23.4271 -9 10.8532
    endloop
  endfacet
  facet normal 0 -1 0
    outer loop
      vertex 24.9271 -9 9.76336
      vertex 35.0729 -9 9.76336
      vertex 36.5729 -9 10.8532
    endloop
  endfacet
  facet normal 0 -1 0
    outer loop
      vertex 25.5 -9 8
      vertex 35.0729 -9 9.76336
      vertex 24.9271 -9 9.76336
    endloop
  endfacet
  facet normal 0 -1 0
    outer loop
      vertex 25.5 -9 8
      vertex 34.5 -9 8
      vertex 35.0729 -9 9.76336
    endloop
  endfacet
  facet normal 0 -1 0
    outer loop
      vertex 24.9271 -9 6.23664
      vertex 34.5 -9 8
      vertex 25.5 -9 8
    endloop
  endfacet
  facet normal 0 -1 0
    outer loop
      vertex 24.9271 -9 6.23664
      vertex 35.0729 -9 6.23664
      vertex 34.5 -9 8
    endloop
  endfacet
  facet normal 0 -1 0
    outer loop
      vertex 23.4271 -9 5.14683
      vertex 35.0729 -9 6.23664
      vertex 24.9271 -9 6.23664
    endloop
  endfacet
  facet normal 0 -1 -0
    outer loop
      vertex 35.0729 -9 6.23664
      vertex 23.4271 -9 5.14683
      vertex 36.5729 -9 5.14683
    endloop
  endfacet
  facet normal 0 -1 0
    outer loop
      vertex 9.92705 -9 9.76336
      vertex 21.5729 -9 10.8532
      vertex 8.42705 -9 10.8532
    endloop
  endfacet
  facet normal 0 -1 0
    outer loop
      vertex 9.92705 -9 9.76336
      vertex 20.0729 -9 9.76336
      vertex 21.5729 -9 10.8532
    endloop
  endfacet
  facet normal 0 -1 0
    outer loop
      vertex 10.5 -9 8
      vertex 20.0729 -9 9.76336
      vertex 9.92705 -9 9.76336
    endloop
  endfacet
  facet normal 0 -1 0
    outer loop
      vertex 10.5 -9 8
      vertex 19.5 -9 8
      vertex 20.0729 -9 9.76336
    endloop
  endfacet
  facet normal 0 -1 0
    outer loop
      vertex 9.92705 -9 6.23664
      vertex 19.5 -9 8
      vertex 10.5 -9 8
    endloop
  endfacet
  facet normal 0 -1 0
    outer loop
      vertex 9.92705 -9 6.23664
      vertex 20.0729 -9 6.23664
      vertex 19.5 -9 8
    endloop
  endfacet
  facet normal 0 -1 0
    outer loop
      vertex 8.42705 -9 5.14683
      vertex 20.0729 -9 6.23664
      vertex 9.92705 -9 6.23664
    endloop
  endfacet
  facet normal 0 -1 -0
    outer loop
      vertex 20.0729 -9 6.23664
      vertex 8.42705 -9 5.14683
      vertex 21.5729 -9 5.14683
    endloop
  endfacet
  facet normal 0 -1 0
    outer loop
      vertex 8.42705 -9 10.8532
      vertex -3 -9 13
      vertex 6.57295 -9 10.8532
    endloop
  endfacet
  facet normal 0 -1 0
    outer loop
      vertex -3 -9 13
      vertex 5.07295 -9 9.76336
      vertex 6.57295 -9 10.8532
    endloop
  endfacet
  facet normal 0 -1 0
    outer loop
      vertex -3 -9 13
      vertex 4.5 -9 8
      vertex 5.07295 -9 9.76336
    endloop
  endfacet
  facet normal 0 -1 0
    outer loop
      vertex -3 -9 0
      vertex 4.5 -9 8
      vertex -3 -9 13
    endloop
  endfacet
  facet normal 0 -1 0
    outer loop
      vertex -3 -9 0
      vertex 8.42705 -9 5.14683
      vertex 6.57295 -9 5.14683
    endloop
  endfacet
  facet normal 0 -1 -0
    outer loop
      vertex 8.42705 -9 5.14683
      vertex -3 -9 0
      vertex 21.5729 -9 5.14683
    endloop
  endfacet
  facet normal 0 -1 -0
    outer loop
      vertex 21.5729 -9 5.14683
      vertex -3 -9 0
      vertex 23.4271 -9 5.14683
    endloop
  endfacet
  facet normal 0 -1 -0
    outer loop
      vertex 23.4271 -9 5.14683
      vertex -3 -9 0
      vertex 36.5729 -9 5.14683
    endloop
  endfacet
  facet normal 0 -1 0
    outer loop
      vertex 63 -9 0
      vertex 36.5729 -9 5.14683
      vertex -3 -9 0
    endloop
  endfacet
  facet normal 0 -1 0
    outer loop
      vertex 36.5729 -9 5.14683
      vertex 63 -9 0
      vertex 38.4271 -9 5.14683
    endloop
  endfacet
  facet normal 0 -1 0
    outer loop
      vertex 38.4271 -9 5.14683
      vertex 63 -9 0
      vertex 51.5729 -9 5.14683
    endloop
  endfacet
  facet normal 0 -1 -0
    outer loop
      vertex 5.07295 -9 6.23664
      vertex -3 -9 0
      vertex 6.57295 -9 5.14683
    endloop
  endfacet
  facet normal 0 -1 -0
    outer loop
      vertex 4.5 -9 8
      vertex -3 -9 0
      vertex 5.07295 -9 6.23664
    endloop
  endfacet
  facet normal 0 -1 0
    outer loop
      vertex 21.5729 -9 10.8532
      vertex -3 -9 13
      vertex 8.42705 -9 10.8532
    endloop
  endfacet
  facet normal 0 -1 0
    outer loop
      vertex 23.4271 -9 10.8532
      vertex -3 -9 13
      vertex 21.5729 -9 10.8532
    endloop
  endfacet
  facet normal 0 -1 0
    outer loop
      vertex -3 -9 13
      vertex 23.4271 -9 10.8532
      vertex 63 -9 13
    endloop
  endfacet
  facet normal 0 -1 0
    outer loop
      vertex 36.5729 -9 10.8532
      vertex 63 -9 13
      vertex 23.4271 -9 10.8532
    endloop
  endfacet
  facet normal 0 -1 0
    outer loop
      vertex 38.4271 -9 10.8532
      vertex 63 -9 13
      vertex 36.5729 -9 10.8532
    endloop
  endfacet
  facet normal 0 -1 0
    outer loop
      vertex 51.5729 -9 10.8532
      vertex 63 -9 13
      vertex 38.4271 -9 10.8532
    endloop
  endfacet
  facet normal 0 -1 0
    outer loop
      vertex 53.4271 -9 10.8532
      vertex 63 -9 13
      vertex 51.5729 -9 10.8532
    endloop
  endfacet
  facet normal 0 -1 0
    outer loop
      vertex 54.9271 -9 9.76336
      vertex 63 -9 13
      vertex 53.4271 -9 10.8532
    endloop
  endfacet
  facet normal 0 -1 0
    outer loop
      vertex 55.5 -9 8
      vertex 63 -9 13
      vertex 54.9271 -9 9.76336
    endloop
  endfacet
  facet normal 0 -1 0
    outer loop
      vertex 63 -9 0
      vertex 55.5 -9 8
      vertex 54.9271 -9 6.23664
    endloop
  endfacet
  facet normal 0 -1 0
    outer loop
      vertex 55.5 -9 8
      vertex 63 -9 0
      vertex 63 -9 13
    endloop
  endfacet
  facet normal 0 -1 0
    outer loop
      vertex 53.4271 -9 5.14683
      vertex 63 -9 0
      vertex 54.9271 -9 6.23664
    endloop
  endfacet
  facet normal 0 -1 0
    outer loop
      vertex 51.5729 -9 5.14683
      vertex 63 -9 0
      vertex 53.4271 -9 5.14683
    endloop
  endfacet
  facet normal 0 1 -0
    outer loop
      vertex 63 6 0
      vertex -3 6 3
      vertex 63 6 3
    endloop
  endfacet
  facet normal 0 1 0
    outer loop
      vertex -3 6 3
      vertex 63 6 0
      vertex -3 6 0
    endloop
  endfacet
  facet normal -0 0 1
    outer loop
      vertex -3 -6 13
      vertex 63 -9 13
      vertex 63 -6 13
    endloop
  endfacet
  facet normal 0 0 1
    outer loop
      vertex 63 -9 13
      vertex -3 -6 13
      vertex -3 -9 13
    endloop
  endfacet
  facet normal 0 1 -0
    outer loop
      vertex 20.0729 -6 9.76336
      vertex 8.42705 -6 10.8532
      vertex 21.5729 -6 10.8532
    endloop
  endfacet
  facet normal 0 1 0
    outer loop
      vertex 20.0729 -6 9.76336
      vertex 9.92705 -6 9.76336
      vertex 8.42705 -6 10.8532
    endloop
  endfacet
  facet normal 0 1 -0
    outer loop
      vertex 19.5 -6 8
      vertex 9.92705 -6 9.76336
      vertex 20.0729 -6 9.76336
    endloop
  endfacet
  facet normal 0 1 0
    outer loop
      vertex 19.5 -6 8
      vertex 10.5 -6 8
      vertex 9.92705 -6 9.76336
    endloop
  endfacet
  facet normal 0 1 0
    outer loop
      vertex 20.0729 -6 6.23664
      vertex 10.5 -6 8
      vertex 19.5 -6 8
    endloop
  endfacet
  facet normal 0 1 0
    outer loop
      vertex 20.0729 -6 6.23664
      vertex 9.92705 -6 6.23664
      vertex 10.5 -6 8
    endloop
  endfacet
  facet normal 0 1 0
    outer loop
      vertex 21.5729 -6 5.14683
      vertex 9.92705 -6 6.23664
      vertex 20.0729 -6 6.23664
    endloop
  endfacet
  facet normal 0 1 0
    outer loop
      vertex 9.92705 -6 6.23664
      vertex 21.5729 -6 5.14683
      vertex 8.42705 -6 5.14683
    endloop
  endfacet
  facet normal 0 1 -0
    outer loop
      vertex 35.0729 -6 9.76336
      vertex 23.4271 -6 10.8532
      vertex 36.5729 -6 10.8532
    endloop
  endfacet
  facet normal 0 1 0
    outer loop
      vertex 35.0729 -6 9.76336
      vertex 24.9271 -6 9.76336
      vertex 23.4271 -6 10.8532
    endloop
  endfacet
  facet normal 0 1 -0
    outer loop
      vertex 34.5 -6 8
      vertex 24.9271 -6 9.76336
      vertex 35.0729 -6 9.76336
    endloop
  endfacet
  facet normal 0 1 0
    outer loop
      vertex 34.5 -6 8
      vertex 25.5 -6 8
      vertex 24.9271 -6 9.76336
    endloop
  endfacet
  facet normal 0 1 0
    outer loop
      vertex 35.0729 -6 6.23664
      vertex 25.5 -6 8
      vertex 34.5 -6 8
    endloop
  endfacet
  facet normal 0 1 0
    outer loop
      vertex 35.0729 -6 6.23664
      vertex 24.9271 -6 6.23664
      vertex 25.5 -6 8
    endloop
  endfacet
  facet normal 0 1 0
    outer loop
      vertex 36.5729 -6 5.14683
      vertex 24.9271 -6 6.23664
      vertex 35.0729 -6 6.23664
    endloop
  endfacet
  facet normal 0 1 0
    outer loop
      vertex 24.9271 -6 6.23664
      vertex 36.5729 -6 5.14683
      vertex 23.4271 -6 5.14683
    endloop
  endfacet
  facet normal 0 1 -0
    outer loop
      vertex 50.0729 -6 9.76336
      vertex 38.4271 -6 10.8532
      vertex 51.5729 -6 10.8532
    endloop
  endfacet
  facet normal 0 1 0
    outer loop
      vertex 50.0729 -6 9.76336
      vertex 39.9271 -6 9.76336
      vertex 38.4271 -6 10.8532
    endloop
  endfacet
  facet normal 0 1 -0
    outer loop
      vertex 49.5 -6 8
      vertex 39.9271 -6 9.76336
      vertex 50.0729 -6 9.76336
    endloop
  endfacet
  facet normal 0 1 0
    outer loop
      vertex 49.5 -6 8
      vertex 40.5 -6 8
      vertex 39.9271 -6 9.76336
    endloop
  endfacet
  facet normal 0 1 0
    outer loop
      vertex 50.0729 -6 6.23664
      vertex 40.5 -6 8
      vertex 49.5 -6 8
    endloop
  endfacet
  facet normal 0 1 0
    outer loop
      vertex 50.0729 -6 6.23664
      vertex 39.9271 -6 6.23664
      vertex 40.5 -6 8
    endloop
  endfacet
  facet normal 0 1 0
    outer loop
      vertex 51.5729 -6 5.14683
      vertex 39.9271 -6 6.23664
      vertex 50.0729 -6 6.23664
    endloop
  endfacet
  facet normal 0 1 0
    outer loop
      vertex 39.9271 -6 6.23664
      vertex 51.5729 -6 5.14683
      vertex 38.4271 -6 5.14683
    endloop
  endfacet
  facet normal 0 1 0
    outer loop
      vertex 51.5729 -6 10.8532
      vertex 63 -6 13
      vertex 53.4271 -6 10.8532
    endloop
  endfacet
  facet normal 0 1 0
    outer loop
      vertex 63 -6 13
      vertex 54.9271 -6 9.76336
      vertex 53.4271 -6 10.8532
    endloop
  endfacet
  facet normal 0 1 0
    outer loop
      vertex 63 -6 13
      vertex 55.5 -6 8
      vertex 54.9271 -6 9.76336
    endloop
  endfacet
  facet normal 0 1 -0
    outer loop
      vertex 63 -6 3
      vertex 55.5 -6 8
      vertex 63 -6 13
    endloop
  endfacet
  facet normal 0 1 0
    outer loop
      vertex 63 -6 3
      vertex 51.5729 -6 5.14683
      vertex 53.4271 -6 5.14683
    endloop
  endfacet
  facet normal 0 1 0
    outer loop
      vertex 51.5729 -6 5.14683
      vertex 63 -6 3
      vertex 38.4271 -6 5.14683
    endloop
  endfacet
  facet normal 0 1 0
    outer loop
      vertex 38.4271 -6 5.14683
      vertex 63 -6 3
      vertex 36.5729 -6 5.14683
    endloop
  endfacet
  facet normal 0 1 0
    outer loop
      vertex 36.5729 -6 5.14683
      vertex 63 -6 3
      vertex 23.4271 -6 5.14683
    endloop
  endfacet
  facet normal 0 1 0
    outer loop
      vertex -3 -6 3
      vertex 23.4271 -6 5.14683
      vertex 63 -6 3
    endloop
  endfacet
  facet normal 0 1 0
    outer loop
      vertex 23.4271 -6 5.14683
      vertex -3 -6 3
      vertex 21.5729 -6 5.14683
    endloop
  endfacet
  facet normal 0 1 0
    outer loop
      vertex 21.5729 -6 5.14683
      vertex -3 -6 3
      vertex 8.42705 -6 5.14683
    endloop
  endfacet
  facet normal 0 1 0
    outer loop
      vertex 54.9271 -6 6.23664
      vertex 63 -6 3
      vertex 53.4271 -6 5.14683
    endloop
  endfacet
  facet normal 0 1 0
    outer loop
      vertex 55.5 -6 8
      vertex 63 -6 3
      vertex 54.9271 -6 6.23664
    endloop
  endfacet
  facet normal 0 1 0
    outer loop
      vertex 38.4271 -6 10.8532
      vertex 63 -6 13
      vertex 51.5729 -6 10.8532
    endloop
  endfacet
  facet normal 0 1 0
    outer loop
      vertex 36.5729 -6 10.8532
      vertex 63 -6 13
      vertex 38.4271 -6 10.8532
    endloop
  endfacet
  facet normal 0 1 0
    outer loop
      vertex 63 -6 13
      vertex 36.5729 -6 10.8532
      vertex -3 -6 13
    endloop
  endfacet
  facet normal 0 1 -0
    outer loop
      vertex 23.4271 -6 10.8532
      vertex -3 -6 13
      vertex 36.5729 -6 10.8532
    endloop
  endfacet
  facet normal 0 1 -0
    outer loop
      vertex 21.5729 -6 10.8532
      vertex -3 -6 13
      vertex 23.4271 -6 10.8532
    endloop
  endfacet
  facet normal 0 1 -0
    outer loop
      vertex 8.42705 -6 10.8532
      vertex -3 -6 13
      vertex 21.5729 -6 10.8532
    endloop
  endfacet
  facet normal 0 1 -0
    outer loop
      vertex 6.57295 -6 10.8532
      vertex -3 -6 13
      vertex 8.42705 -6 10.8532
    endloop
  endfacet
  facet normal 0 1 -0
    outer loop
      vertex 5.07295 -6 9.76336
      vertex -3 -6 13
      vertex 6.57295 -6 10.8532
    endloop
  endfacet
  facet normal 0 1 -0
    outer loop
      vertex 4.5 -6 8
      vertex -3 -6 13
      vertex 5.07295 -6 9.76336
    endloop
  endfacet
  facet normal 0 1 0
    outer loop
      vertex -3 -6 3
      vertex 4.5 -6 8
      vertex 5.07295 -6 6.23664
    endloop
  endfacet
  facet normal 0 1 0
    outer loop
      vertex 4.5 -6 8
      vertex -3 -6 3
      vertex -3 -6 13
    endloop
  endfacet
  facet normal 0 1 0
    outer loop
      vertex 6.57295 -6 5.14683
      vertex -3 -6 3
      vertex 5.07295 -6 6.23664
    endloop
  endfacet
  facet normal 0 1 0
    outer loop
      vertex 8.42705 -6 5.14683
      vertex -3 -6 3
      vertex 6.57295 -6 5.14683
    endloop
  endfacet
  facet normal -0.951056 0 -0.309017
    outer loop
      vertex 10.5 -9 8
      vertex 9.92705 -6 9.76336
      vertex 10.5 -6 8
    endloop
  endfacet
  facet normal -0.951056 -0 -0.309017
    outer loop
      vertex 9.92705 -6 9.76336
      vertex 10.5 -9 8
      vertex 9.92705 -9 9.76336
    endloop
  endfacet
  facet normal 0 0 -1
    outer loop
      vertex 6.57295 -9 10.8532
      vertex 8.42705 -6 10.8532
      vertex 8.42705 -9 10.8532
    endloop
  endfacet
  facet normal -0 0 -1
    outer loop
      vertex 8.42705 -6 10.8532
      vertex 6.57295 -9 10.8532
      vertex 6.57295 -6 10.8532
    endloop
  endfacet
  facet normal -0.587785 0 -0.809017
    outer loop
      vertex 8.42705 -9 10.8532
      vertex 9.92705 -6 9.76336
      vertex 9.92705 -9 9.76336
    endloop
  endfacet
  facet normal -0.587785 0 -0.809017
    outer loop
      vertex 9.92705 -6 9.76336
      vertex 8.42705 -9 10.8532
      vertex 8.42705 -6 10.8532
    endloop
  endfacet
  facet normal 0.951057 -0 0.309017
    outer loop
      vertex 4.5 -9 8
      vertex 5.07295 -6 6.23664
      vertex 4.5 -6 8
    endloop
  endfacet
  facet normal 0.951057 0 0.309017
    outer loop
      vertex 5.07295 -6 6.23664
      vertex 4.5 -9 8
      vertex 5.07295 -9 6.23664
    endloop
  endfacet
  facet normal 0.587785 0 -0.809017
    outer loop
      vertex 5.07295 -9 9.76336
      vertex 6.57295 -6 10.8532
      vertex 6.57295 -9 10.8532
    endloop
  endfacet
  facet normal 0.587785 0 -0.809017
    outer loop
      vertex 6.57295 -6 10.8532
      vertex 5.07295 -9 9.76336
      vertex 5.07295 -6 9.76336
    endloop
  endfacet
  facet normal -0.951056 0 0.309017
    outer loop
      vertex 9.92705 -9 6.23664
      vertex 10.5 -6 8
      vertex 9.92705 -6 6.23664
    endloop
  endfacet
  facet normal -0.951056 0 0.309017
    outer loop
      vertex 10.5 -6 8
      vertex 9.92705 -9 6.23664
      vertex 10.5 -9 8
    endloop
  endfacet
  facet normal -0.587785 0 0.809017
    outer loop
      vertex 8.42705 -6 5.14683
      vertex 9.92705 -9 6.23664
      vertex 9.92705 -6 6.23664
    endloop
  endfacet
  facet normal -0.587785 0 0.809017
    outer loop
      vertex 9.92705 -9 6.23664
      vertex 8.42705 -6 5.14683
      vertex 8.42705 -9 5.14683
    endloop
  endfacet
  facet normal 0.587785 0 0.809017
    outer loop
      vertex 5.07295 -6 6.23664
      vertex 6.57295 -9 5.14683
      vertex 6.57295 -6 5.14683
    endloop
  endfacet
  facet normal 0.587785 0 0.809017
    outer loop
      vertex 6.57295 -9 5.14683
      vertex 5.07295 -6 6.23664
      vertex 5.07295 -9 6.23664
    endloop
  endfacet
  facet normal -0 0 1
    outer loop
      vertex 6.57295 -6 5.14683
      vertex 8.42705 -9 5.14683
      vertex 8.42705 -6 5.14683
    endloop
  endfacet
  facet normal 0 0 1
    outer loop
      vertex 8.42705 -9 5.14683
      vertex 6.57295 -6 5.14683
      vertex 6.57295 -9 5.14683
    endloop
  endfacet
  facet normal 0.951057 0 -0.309017
    outer loop
      vertex 5.07295 -9 9.76336
      vertex 4.5 -6 8
      vertex 5.07295 -6 9.76336
    endloop
  endfacet
  facet normal 0.951057 0 -0.309017
    outer loop
      vertex 4.5 -6 8
      vertex 5.07295 -9 9.76336
      vertex 4.5 -9 8
    endloop
  endfacet
  facet normal -0.951057 0 -0.309017
    outer loop
      vertex 25.5 -9 8
      vertex 24.9271 -6 9.76336
      vertex 25.5 -6 8
    endloop
  endfacet
  facet normal -0.951057 -0 -0.309017
    outer loop
      vertex 24.9271 -6 9.76336
      vertex 25.5 -9 8
      vertex 24.9271 -9 9.76336
    endloop
  endfacet
  facet normal 0 0 -1
    outer loop
      vertex 21.5729 -9 10.8532
      vertex 23.4271 -6 10.8532
      vertex 23.4271 -9 10.8532
    endloop
  endfacet
  facet normal -0 0 -1
    outer loop
      vertex 23.4271 -6 10.8532
      vertex 21.5729 -9 10.8532
      vertex 21.5729 -6 10.8532
    endloop
  endfacet
  facet normal -0.587785 0 -0.809017
    outer loop
      vertex 23.4271 -9 10.8532
      vertex 24.9271 -6 9.76336
      vertex 24.9271 -9 9.76336
    endloop
  endfacet
  facet normal -0.587785 0 -0.809017
    outer loop
      vertex 24.9271 -6 9.76336
      vertex 23.4271 -9 10.8532
      vertex 23.4271 -6 10.8532
    endloop
  endfacet
  facet normal 0.951057 -0 0.309017
    outer loop
      vertex 19.5 -9 8
      vertex 20.0729 -6 6.23664
      vertex 19.5 -6 8
    endloop
  endfacet
  facet normal 0.951057 0 0.309017
    outer loop
      vertex 20.0729 -6 6.23664
      vertex 19.5 -9 8
      vertex 20.0729 -9 6.23664
    endloop
  endfacet
  facet normal 0.587785 0 -0.809017
    outer loop
      vertex 20.0729 -9 9.76336
      vertex 21.5729 -6 10.8532
      vertex 21.5729 -9 10.8532
    endloop
  endfacet
  facet normal 0.587785 0 -0.809017
    outer loop
      vertex 21.5729 -6 10.8532
      vertex 20.0729 -9 9.76336
      vertex 20.0729 -6 9.76336
    endloop
  endfacet
  facet normal -0.951057 0 0.309017
    outer loop
      vertex 24.9271 -9 6.23664
      vertex 25.5 -6 8
      vertex 24.9271 -6 6.23664
    endloop
  endfacet
  facet normal -0.951057 0 0.309017
    outer loop
      vertex 25.5 -6 8
      vertex 24.9271 -9 6.23664
      vertex 25.5 -9 8
    endloop
  endfacet
  facet normal -0.587785 0 0.809017
    outer loop
      vertex 23.4271 -6 5.14683
      vertex 24.9271 -9 6.23664
      vertex 24.9271 -6 6.23664
    endloop
  endfacet
  facet normal -0.587785 0 0.809017
    outer loop
      vertex 24.9271 -9 6.23664
      vertex 23.4271 -6 5.14683
      vertex 23.4271 -9 5.14683
    endloop
  endfacet
  facet normal 0.587785 0 0.809017
    outer loop
      vertex 20.0729 -6 6.23664
      vertex 21.5729 -9 5.14683
      vertex 21.5729 -6 5.14683
    endloop
  endfacet
  facet normal 0.587785 0 0.809017
    outer loop
      vertex 21.5729 -9 5.14683
      vertex 20.0729 -6 6.23664
      vertex 20.0729 -9 6.23664
    endloop
  endfacet
  facet normal -0 0 1
    outer loop
      vertex 21.5729 -6 5.14683
      vertex 23.4271 -9 5.14683
      vertex 23.4271 -6 5.14683
    endloop
  endfacet
  facet normal 0 0 1
    outer loop
      vertex 23.4271 -9 5.14683
      vertex 21.5729 -6 5.14683
      vertex 21.5729 -9 5.14683
    endloop
  endfacet
  facet normal 0.951057 0 -0.309017
    outer loop
      vertex 20.0729 -9 9.76336
      vertex 19.5 -6 8
      vertex 20.0729 -6 9.76336
    endloop
  endfacet
  facet normal 0.951057 0 -0.309017
    outer loop
      vertex 19.5 -6 8
      vertex 20.0729 -9 9.76336
      vertex 19.5 -9 8
    endloop
  endfacet
  facet normal -0.951057 0 -0.309017
    outer loop
      vertex 40.5 -9 8
      vertex 39.9271 -6 9.76336
      vertex 40.5 -6 8
    endloop
  endfacet
  facet normal -0.951057 -0 -0.309017
    outer loop
      vertex 39.9271 -6 9.76336
      vertex 40.5 -9 8
      vertex 39.9271 -9 9.76336
    endloop
  endfacet
  facet normal 0.951057 -0 0.309017
    outer loop
      vertex 34.5 -9 8
      vertex 35.0729 -6 6.23664
      vertex 34.5 -6 8
    endloop
  endfacet
  facet normal 0.951057 0 0.309017
    outer loop
      vertex 35.0729 -6 6.23664
      vertex 34.5 -9 8
      vertex 35.0729 -9 6.23664
    endloop
  endfacet
  facet normal 0 0 -1
    outer loop
      vertex 36.5729 -9 10.8532
      vertex 38.4271 -6 10.8532
      vertex 38.4271 -9 10.8532
    endloop
  endfacet
  facet normal -0 0 -1
    outer loop
      vertex 38.4271 -6 10.8532
      vertex 36.5729 -9 10.8532
      vertex 36.5729 -6 10.8532
    endloop
  endfacet
  facet normal -0.587785 0 -0.809017
    outer loop
      vertex 38.4271 -9 10.8532
      vertex 39.9271 -6 9.76336
      vertex 39.9271 -9 9.76336
    endloop
  endfacet
  facet normal -0.587785 0 -0.809017
    outer loop
      vertex 39.9271 -6 9.76336
      vertex 38.4271 -9 10.8532
      vertex 38.4271 -6 10.8532
    endloop
  endfacet
  facet normal 0.587785 0 -0.809017
    outer loop
      vertex 35.0729 -9 9.76336
      vertex 36.5729 -6 10.8532
      vertex 36.5729 -9 10.8532
    endloop
  endfacet
  facet normal 0.587785 0 -0.809017
    outer loop
      vertex 36.5729 -6 10.8532
      vertex 35.0729 -9 9.76336
      vertex 35.0729 -6 9.76336
    endloop
  endfacet
  facet normal -0.587785 0 0.809017
    outer loop
      vertex 38.4271 -6 5.14683
      vertex 39.9271 -9 6.23664
      vertex 39.9271 -6 6.23664
    endloop
  endfacet
  facet normal -0.587785 0 0.809017
    outer loop
      vertex 39.9271 -9 6.23664
      vertex 38.4271 -6 5.14683
      vertex 38.4271 -9 5.14683
    endloop
  endfacet
  facet normal 0.587785 0 0.809017
    outer loop
      vertex 35.0729 -6 6.23664
      vertex 36.5729 -9 5.14683
      vertex 36.5729 -6 5.14683
    endloop
  endfacet
  facet normal 0.587785 0 0.809017
    outer loop
      vertex 36.5729 -9 5.14683
      vertex 35.0729 -6 6.23664
      vertex 35.0729 -9 6.23664
    endloop
  endfacet
  facet normal 0.951057 0 -0.309017
    outer loop
      vertex 35.0729 -9 9.76336
      vertex 34.5 -6 8
      vertex 35.0729 -6 9.76336
    endloop
  endfacet
  facet normal 0.951057 0 -0.309017
    outer loop
      vertex 34.5 -6 8
      vertex 35.0729 -9 9.76336
      vertex 34.5 -9 8
    endloop
  endfacet
  facet normal -0 0 1
    outer loop
      vertex 36.5729 -6 5.14683
      vertex 38.4271 -9 5.14683
      vertex 38.4271 -6 5.14683
    endloop
  endfacet
  facet normal 0 0 1
    outer loop
      vertex 38.4271 -9 5.14683
      vertex 36.5729 -6 5.14683
      vertex 36.5729 -9 5.14683
    endloop
  endfacet
  facet normal -0.951057 0 0.309017
    outer loop
      vertex 39.9271 -9 6.23664
      vertex 40.5 -6 8
      vertex 39.9271 -6 6.23664
    endloop
  endfacet
  facet normal -0.951057 0 0.309017
    outer loop
      vertex 40.5 -6 8
      vertex 39.9271 -9 6.23664
      vertex 40.5 -9 8
    endloop
  endfacet
  facet normal -0.951057 0 -0.309017
    outer loop
      vertex 55.5 -9 8
      vertex 54.9271 -6 9.76336
      vertex 55.5 -6 8
    endloop
  endfacet
  facet normal -0.951057 -0 -0.309017
    outer loop
      vertex 54.9271 -6 9.76336
      vertex 55.5 -9 8
      vertex 54.9271 -9 9.76336
    endloop
  endfacet
  facet normal 0.951057 -0 0.309017
    outer loop
      vertex 49.5 -9 8
      vertex 50.0729 -6 6.23664
      vertex 49.5 -6 8
    endloop
  endfacet
  facet normal 0.951057 0 0.309017
    outer loop
      vertex 50.0729 -6 6.23664
      vertex 49.5 -9 8
      vertex 50.0729 -9 6.23664
    endloop
  endfacet
  facet normal 0 0 -1
    outer loop
      vertex 51.5729 -9 10.8532
      vertex 53.4271 -6 10.8532
      vertex 53.4271 -9 10.8532
    endloop
  endfacet
  facet normal -0 0 -1
    outer loop
      vertex 53.4271 -6 10.8532
      vertex 51.5729 -9 10.8532
      vertex 51.5729 -6 10.8532
    endloop
  endfacet
  facet normal -0.587785 0 -0.809017
    outer loop
      vertex 53.4271 -9 10.8532
      vertex 54.9271 -6 9.76336
      vertex 54.9271 -9 9.76336
    endloop
  endfacet
  facet normal -0.587785 0 -0.809017
    outer loop
      vertex 54.9271 -6 9.76336
      vertex 53.4271 -9 10.8532
      vertex 53.4271 -6 10.8532
    endloop
  endfacet
  facet normal 0.587785 0 -0.809017
    outer loop
      vertex 50.0729 -9 9.76336
      vertex 51.5729 -6 10.8532
      vertex 51.5729 -9 10.8532
    endloop
  endfacet
  facet normal 0.587785 0 -0.809017
    outer loop
      vertex 51.5729 -6 10.8532
      vertex 50.0729 -9 9.76336
      vertex 50.0729 -6 9.76336
    endloop
  endfacet
  facet normal -0.587785 0 0.809017
    outer loop
      vertex 53.4271 -6 5.14683
      vertex 54.9271 -9 6.23664
      vertex 54.9271 -6 6.23664
    endloop
  endfacet
  facet normal -0.587785 0 0.809017
    outer loop
      vertex 54.9271 -9 6.23664
      vertex 53.4271 -6 5.14683
      vertex 53.4271 -9 5.14683
    endloop
  endfacet
  facet normal 0.587785 0 0.809017
    outer loop
      vertex 50.0729 -6 6.23664
      vertex 51.5729 -9 5.14683
      vertex 51.5729 -6 5.14683
    endloop
  endfacet
  facet normal 0.587785 0 0.809017
    outer loop
      vertex 51.5729 -9 5.14683
      vertex 50.0729 -6 6.23664
      vertex 50.0729 -9 6.23664
    endloop
  endfacet
  facet normal 0.951057 0 -0.309017
    outer loop
      vertex 50.0729 -9 9.76336
      vertex 49.5 -6 8
      vertex 50.0729 -6 9.76336
    endloop
  endfacet
  facet normal 0.951057 0 -0.309017
    outer loop
      vertex 49.5 -6 8
      vertex 50.0729 -9 9.76336
      vertex 49.5 -9 8
    endloop
  endfacet
  facet normal -0.951057 0 0.309017
    outer loop
      vertex 54.9271 -9 6.23664
      vertex 55.5 -6 8
      vertex 54.9271 -6 6.23664
    endloop
  endfacet
  facet normal -0.951057 0 0.309017
    outer loop
      vertex 55.5 -6 8
      vertex 54.9271 -9 6.23664
      vertex 55.5 -9 8
    endloop
  endfacet
  facet normal -0 0 1
    outer loop
      vertex 51.5729 -6 5.14683
      vertex 53.4271 -9 5.14683
      vertex 53.4271 -6 5.14683
    endloop
  endfacet
  facet normal 0 0 1
    outer loop
      vertex 53.4271 -9 5.14683
      vertex 51.5729 -6 5.14683
      vertex 51.5729 -9 5.14683
    endloop
  endfacet
endsolid OpenSCAD_Model
