solid OpenSCAD_Model
  facet normal -1 0 0
    outer loop
      vertex -5 6 0
      vertex -5 -6 5
      vertex -5 6 5
    endloop
  endfacet
  facet normal -1 0 0
    outer loop
      vertex -5 -11 0
      vertex -5 -6 5
      vertex -5 6 0
    endloop
  endfacet
  facet normal -1 0 0
    outer loop
      vertex -5 -11 23
      vertex -5 -6 5
      vertex -5 -11 0
    endloop
  endfacet
  facet normal -1 0 0
    outer loop
      vertex -5 -6 5
      vertex -5 -11 23
      vertex -5 -6 23
    endloop
  endfacet
  facet normal 0 0 1
    outer loop
      vertex 65 6 5
      vertex 62 0 5
      vertex 65 -6 5
    endloop
  endfacet
  facet normal 0 0 1
    outer loop
      vertex 65 6 5
      vertex 61.247 1.56366 5
      vertex 62 0 5
    endloop
  endfacet
  facet normal 0 0 1
    outer loop
      vertex 65 6 5
      vertex 59.555 1.94986 5
      vertex 61.247 1.56366 5
    endloop
  endfacet
  facet normal 0 0 1
    outer loop
      vertex 58.1981 0.867767 5
      vertex 32 0 5
      vertex 58.1981 -0.867767 5
    endloop
  endfacet
  facet normal -0 0 1
    outer loop
      vertex 31.247 1.56366 5
      vertex 58.1981 0.867767 5
      vertex 59.555 1.94986 5
    endloop
  endfacet
  facet normal 0 0 1
    outer loop
      vertex 31.247 1.56366 5
      vertex 59.555 1.94986 5
      vertex 65 6 5
    endloop
  endfacet
  facet normal 0 0 1
    outer loop
      vertex 58.1981 0.867767 5
      vertex 31.247 1.56366 5
      vertex 32 0 5
    endloop
  endfacet
  facet normal 0 0 1
    outer loop
      vertex 65 6 5
      vertex 29.555 1.94986 5
      vertex 31.247 1.56366 5
    endloop
  endfacet
  facet normal 0 0 1
    outer loop
      vertex 28.1981 0.867767 5
      vertex 2 0 5
      vertex 28.1981 -0.867767 5
    endloop
  endfacet
  facet normal -0 0 1
    outer loop
      vertex 1.24698 1.56366 5
      vertex 28.1981 0.867767 5
      vertex 29.555 1.94986 5
    endloop
  endfacet
  facet normal -0 0 1
    outer loop
      vertex -5 6 5
      vertex 29.555 1.94986 5
      vertex 65 6 5
    endloop
  endfacet
  facet normal 0 0 1
    outer loop
      vertex 28.1981 0.867767 5
      vertex 1.24698 1.56366 5
      vertex 2 0 5
    endloop
  endfacet
  facet normal 0 0 1
    outer loop
      vertex 29.555 1.94986 5
      vertex -5 6 5
      vertex 1.24698 1.56366 5
    endloop
  endfacet
  facet normal 0 0 1
    outer loop
      vertex -1.80194 0.867767 5
      vertex -5 6 5
      vertex -1.80194 -0.867767 5
    endloop
  endfacet
  facet normal 0 0 1
    outer loop
      vertex -0.445042 1.94986 5
      vertex -5 6 5
      vertex -1.80194 0.867767 5
    endloop
  endfacet
  facet normal 0 0 1
    outer loop
      vertex 1.24698 1.56366 5
      vertex -5 6 5
      vertex -0.445042 1.94986 5
    endloop
  endfacet
  facet normal -0 0 1
    outer loop
      vertex 61.247 -1.56366 5
      vertex 65 -6 5
      vertex 62 0 5
    endloop
  endfacet
  facet normal -0 0 1
    outer loop
      vertex 59.555 -1.94986 5
      vertex 65 -6 5
      vertex 61.247 -1.56366 5
    endloop
  endfacet
  facet normal 0 0 1
    outer loop
      vertex 31.247 -1.56366 5
      vertex 58.1981 -0.867767 5
      vertex 32 0 5
    endloop
  endfacet
  facet normal 0 0 1
    outer loop
      vertex 58.1981 -0.867767 5
      vertex 31.247 -1.56366 5
      vertex 59.555 -1.94986 5
    endloop
  endfacet
  facet normal 0 0 1
    outer loop
      vertex 59.555 -1.94986 5
      vertex 31.247 -1.56366 5
      vertex 65 -6 5
    endloop
  endfacet
  facet normal -0 0 1
    outer loop
      vertex 29.555 -1.94986 5
      vertex 65 -6 5
      vertex 31.247 -1.56366 5
    endloop
  endfacet
  facet normal 0 0 1
    outer loop
      vertex 1.24698 -1.56366 5
      vertex 28.1981 -0.867767 5
      vertex 2 0 5
    endloop
  endfacet
  facet normal 0 0 1
    outer loop
      vertex 28.1981 -0.867767 5
      vertex 1.24698 -1.56366 5
      vertex 29.555 -1.94986 5
    endloop
  endfacet
  facet normal 0 0 1
    outer loop
      vertex -5 -6 5
      vertex 29.555 -1.94986 5
      vertex 1.24698 -1.56366 5
    endloop
  endfacet
  facet normal 0 0 1
    outer loop
      vertex -5 -6 5
      vertex 1.24698 -1.56366 5
      vertex -0.445042 -1.94986 5
    endloop
  endfacet
  facet normal 0 0 1
    outer loop
      vertex 29.555 -1.94986 5
      vertex -5 -6 5
      vertex 65 -6 5
    endloop
  endfacet
  facet normal 0 0 1
    outer loop
      vertex -1.80194 -0.867767 5
      vertex -5 -6 5
      vertex -0.445042 -1.94986 5
    endloop
  endfacet
  facet normal 0 0 1
    outer loop
      vertex -5 -6 5
      vertex -1.80194 -0.867767 5
      vertex -5 6 5
    endloop
  endfacet
  facet normal 1 0 0
    outer loop
      vertex 65 -6 23
      vertex 65 -11 23
      vertex 65 -6 5
    endloop
  endfacet
  facet normal 1 -0 0
    outer loop
      vertex 65 -6 5
      vertex 65 6 0
      vertex 65 6 5
    endloop
  endfacet
  facet normal 1 0 0
    outer loop
      vertex 65 -6 5
      vertex 65 -11 0
      vertex 65 6 0
    endloop
  endfacet
  facet normal 1 0 0
    outer loop
      vertex 65 -11 0
      vertex 65 -6 5
      vertex 65 -11 23
    endloop
  endfacet
  facet normal 0 1 -0
    outer loop
      vertex 65 6 0
      vertex -5 6 5
      vertex 65 6 5
    endloop
  endfacet
  facet normal 0 1 0
    outer loop
      vertex -5 6 5
      vertex 65 6 0
      vertex -5 6 0
    endloop
  endfacet
  facet normal 0 0 -1
    outer loop
      vertex 65 -11 0
      vertex 62 0 0
      vertex 65 6 0
    endloop
  endfacet
  facet normal 0 0 -1
    outer loop
      vertex 65 -11 0
      vertex 61.247 -1.56366 0
      vertex 62 0 0
    endloop
  endfacet
  facet normal 0 0 -1
    outer loop
      vertex 65 -11 0
      vertex 59.555 -1.94986 0
      vertex 61.247 -1.56366 0
    endloop
  endfacet
  facet normal 0 0 -1
    outer loop
      vertex 65 -11 0
      vertex 58.1981 -0.867767 0
      vertex 59.555 -1.94986 0
    endloop
  endfacet
  facet normal 0 0 -1
    outer loop
      vertex 58.1981 -0.867767 0
      vertex 32 0 0
      vertex 58.1981 0.867767 0
    endloop
  endfacet
  facet normal 0 0 -1
    outer loop
      vertex 31.247 -1.56366 0
      vertex 58.1981 -0.867767 0
      vertex 65 -11 0
    endloop
  endfacet
  facet normal -0 0 -1
    outer loop
      vertex 58.1981 -0.867767 0
      vertex 31.247 -1.56366 0
      vertex 32 0 0
    endloop
  endfacet
  facet normal 0 0 -1
    outer loop
      vertex 65 -11 0
      vertex 29.555 -1.94986 0
      vertex 31.247 -1.56366 0
    endloop
  endfacet
  facet normal 0 0 -1
    outer loop
      vertex 28.1981 -0.867767 0
      vertex 2 0 0
      vertex 28.1981 0.867767 0
    endloop
  endfacet
  facet normal 0 0 -1
    outer loop
      vertex -5 -11 0
      vertex 28.1981 -0.867767 0
      vertex 29.555 -1.94986 0
    endloop
  endfacet
  facet normal 0 0 -1
    outer loop
      vertex -5 -11 0
      vertex 29.555 -1.94986 0
      vertex 65 -11 0
    endloop
  endfacet
  facet normal -0 0 -1
    outer loop
      vertex 28.1981 -0.867767 0
      vertex 1.24698 -1.56366 0
      vertex 2 0 0
    endloop
  endfacet
  facet normal 0 0 -1
    outer loop
      vertex 28.1981 -0.867767 0
      vertex -5 -11 0
      vertex 1.24698 -1.56366 0
    endloop
  endfacet
  facet normal 0 0 -1
    outer loop
      vertex -5 6 0
      vertex -1.80194 -0.867767 0
      vertex -5 -11 0
    endloop
  endfacet
  facet normal -0 0 -1
    outer loop
      vertex -0.445042 -1.94986 0
      vertex -5 -11 0
      vertex -1.80194 -0.867767 0
    endloop
  endfacet
  facet normal 0 0 -1
    outer loop
      vertex 1.24698 -1.56366 0
      vertex -5 -11 0
      vertex -0.445042 -1.94986 0
    endloop
  endfacet
  facet normal 0 0 -1
    outer loop
      vertex 61.247 1.56366 0
      vertex 65 6 0
      vertex 62 0 0
    endloop
  endfacet
  facet normal 0 0 -1
    outer loop
      vertex 59.555 1.94986 0
      vertex 65 6 0
      vertex 61.247 1.56366 0
    endloop
  endfacet
  facet normal 0 0 -1
    outer loop
      vertex 31.247 1.56366 0
      vertex 58.1981 0.867767 0
      vertex 32 0 0
    endloop
  endfacet
  facet normal 0 0 -1
    outer loop
      vertex 58.1981 0.867767 0
      vertex 31.247 1.56366 0
      vertex 59.555 1.94986 0
    endloop
  endfacet
  facet normal -0 0 -1
    outer loop
      vertex 59.555 1.94986 0
      vertex 31.247 1.56366 0
      vertex 65 6 0
    endloop
  endfacet
  facet normal 0 0 -1
    outer loop
      vertex 29.555 1.94986 0
      vertex 65 6 0
      vertex 31.247 1.56366 0
    endloop
  endfacet
  facet normal 0 0 -1
    outer loop
      vertex 1.24698 1.56366 0
      vertex 28.1981 0.867767 0
      vertex 2 0 0
    endloop
  endfacet
  facet normal 0 0 -1
    outer loop
      vertex 28.1981 0.867767 0
      vertex 1.24698 1.56366 0
      vertex 29.555 1.94986 0
    endloop
  endfacet
  facet normal 0 0 -1
    outer loop
      vertex -5 6 0
      vertex 29.555 1.94986 0
      vertex 1.24698 1.56366 0
    endloop
  endfacet
  facet normal 0 0 -1
    outer loop
      vertex -5 6 0
      vertex 1.24698 1.56366 0
      vertex -0.445042 1.94986 0
    endloop
  endfacet
  facet normal 0 0 -1
    outer loop
      vertex 29.555 1.94986 0
      vertex -5 6 0
      vertex 65 6 0
    endloop
  endfacet
  facet normal 0 0 -1
    outer loop
      vertex -1.80194 0.867767 0
      vertex -5 6 0
      vertex -0.445042 1.94986 0
    endloop
  endfacet
  facet normal 0 0 -1
    outer loop
      vertex -1.80194 -0.867767 0
      vertex -5 6 0
      vertex -1.80194 0.867767 0
    endloop
  endfacet
  facet normal 0 -1 0
    outer loop
      vertex 65 -11 23
      vertex 55.5816 -11 20.7401
      vertex 57.4821 -11 20.9708
    endloop
  endfacet
  facet normal 0 -1 0
    outer loop
      vertex 41.2723 -11 20.2919
      vertex 55.5816 -11 20.7401
      vertex 39.4821 -11 20.9708
    endloop
  endfacet
  facet normal 0 -1 0
    outer loop
      vertex 41.2723 -11 20.2919
      vertex 54.006 -11 19.6525
      vertex 55.5816 -11 20.7401
    endloop
  endfacet
  facet normal 0 -1 0
    outer loop
      vertex 42.5418 -11 18.8589
      vertex 54.006 -11 19.6525
      vertex 41.2723 -11 20.2919
    endloop
  endfacet
  facet normal 0 -1 0
    outer loop
      vertex 42.5418 -11 18.8589
      vertex 53.1162 -11 17.9573
      vertex 54.006 -11 19.6525
    endloop
  endfacet
  facet normal 0 -1 0
    outer loop
      vertex 43 -11 17
      vertex 53.1162 -11 17.9573
      vertex 42.5418 -11 18.8589
    endloop
  endfacet
  facet normal 0 -1 0
    outer loop
      vertex 43 -11 17
      vertex 53.1162 -11 16.0427
      vertex 53.1162 -11 17.9573
    endloop
  endfacet
  facet normal 0 -1 0
    outer loop
      vertex 42.5418 -11 15.1411
      vertex 53.1162 -11 16.0427
      vertex 43 -11 17
    endloop
  endfacet
  facet normal 0 -1 0
    outer loop
      vertex 42.5418 -11 15.1411
      vertex 54.006 -11 14.3475
      vertex 53.1162 -11 16.0427
    endloop
  endfacet
  facet normal 0 -1 0
    outer loop
      vertex 41.2723 -11 13.7081
      vertex 54.006 -11 14.3475
      vertex 42.5418 -11 15.1411
    endloop
  endfacet
  facet normal 0 -1 0
    outer loop
      vertex 41.2723 -11 13.7081
      vertex 55.5816 -11 13.2599
      vertex 54.006 -11 14.3475
    endloop
  endfacet
  facet normal 0 -1 0
    outer loop
      vertex 65 -11 0
      vertex 41.2723 -11 13.7081
      vertex 39.4821 -11 13.0292
    endloop
  endfacet
  facet normal 0 -1 0
    outer loop
      vertex 41.2723 -11 13.7081
      vertex 65 -11 0
      vertex 55.5816 -11 13.2599
    endloop
  endfacet
  facet normal 0 -1 0
    outer loop
      vertex 21.4821 -11 20.9708
      vertex 37.5816 -11 20.7401
      vertex 39.4821 -11 20.9708
    endloop
  endfacet
  facet normal 0 -1 0
    outer loop
      vertex 23.2723 -11 20.2919
      vertex 37.5816 -11 20.7401
      vertex 21.4821 -11 20.9708
    endloop
  endfacet
  facet normal 0 -1 0
    outer loop
      vertex 23.2723 -11 20.2919
      vertex 36.006 -11 19.6525
      vertex 37.5816 -11 20.7401
    endloop
  endfacet
  facet normal 0 -1 0
    outer loop
      vertex 24.5418 -11 18.8589
      vertex 36.006 -11 19.6525
      vertex 23.2723 -11 20.2919
    endloop
  endfacet
  facet normal 0 -1 0
    outer loop
      vertex 24.5418 -11 18.8589
      vertex 35.1162 -11 17.9573
      vertex 36.006 -11 19.6525
    endloop
  endfacet
  facet normal 0 -1 0
    outer loop
      vertex 25 -11 17
      vertex 35.1162 -11 17.9573
      vertex 24.5418 -11 18.8589
    endloop
  endfacet
  facet normal 0 -1 0
    outer loop
      vertex 25 -11 17
      vertex 35.1162 -11 16.0427
      vertex 35.1162 -11 17.9573
    endloop
  endfacet
  facet normal 0 -1 0
    outer loop
      vertex 24.5418 -11 15.1411
      vertex 35.1162 -11 16.0427
      vertex 25 -11 17
    endloop
  endfacet
  facet normal 0 -1 0
    outer loop
      vertex 24.5418 -11 15.1411
      vertex 36.006 -11 14.3475
      vertex 35.1162 -11 16.0427
    endloop
  endfacet
  facet normal 0 -1 0
    outer loop
      vertex 23.2723 -11 13.7081
      vertex 36.006 -11 14.3475
      vertex 24.5418 -11 15.1411
    endloop
  endfacet
  facet normal 0 -1 0
    outer loop
      vertex 23.2723 -11 13.7081
      vertex 37.5816 -11 13.2599
      vertex 36.006 -11 14.3475
    endloop
  endfacet
  facet normal 0 -1 0
    outer loop
      vertex 21.4821 -11 13.0292
      vertex 37.5816 -11 13.2599
      vertex 23.2723 -11 13.7081
    endloop
  endfacet
  facet normal 0 -1 0
    outer loop
      vertex 65 -11 0
      vertex 37.5816 -11 13.2599
      vertex 21.4821 -11 13.0292
    endloop
  endfacet
  facet normal 0 -1 0
    outer loop
      vertex -5 -11 23
      vertex 19.5816 -11 20.7401
      vertex 21.4821 -11 20.9708
    endloop
  endfacet
  facet normal 0 -1 0
    outer loop
      vertex 5.27226 -11 20.2919
      vertex 19.5816 -11 20.7401
      vertex 3.48215 -11 20.9708
    endloop
  endfacet
  facet normal 0 -1 0
    outer loop
      vertex 5.27226 -11 20.2919
      vertex 18.006 -11 19.6525
      vertex 19.5816 -11 20.7401
    endloop
  endfacet
  facet normal 0 -1 0
    outer loop
      vertex 6.54182 -11 18.8589
      vertex 18.006 -11 19.6525
      vertex 5.27226 -11 20.2919
    endloop
  endfacet
  facet normal 0 -1 0
    outer loop
      vertex 6.54182 -11 18.8589
      vertex 17.1162 -11 17.9573
      vertex 18.006 -11 19.6525
    endloop
  endfacet
  facet normal 0 -1 0
    outer loop
      vertex 7 -11 17
      vertex 17.1162 -11 17.9573
      vertex 6.54182 -11 18.8589
    endloop
  endfacet
  facet normal 0 -1 0
    outer loop
      vertex 7 -11 17
      vertex 17.1162 -11 16.0427
      vertex 17.1162 -11 17.9573
    endloop
  endfacet
  facet normal 0 -1 0
    outer loop
      vertex 6.54182 -11 15.1411
      vertex 17.1162 -11 16.0427
      vertex 7 -11 17
    endloop
  endfacet
  facet normal 0 -1 0
    outer loop
      vertex 6.54182 -11 15.1411
      vertex 18.006 -11 14.3475
      vertex 17.1162 -11 16.0427
    endloop
  endfacet
  facet normal 0 -1 0
    outer loop
      vertex 5.27226 -11 13.7081
      vertex 18.006 -11 14.3475
      vertex 6.54182 -11 15.1411
    endloop
  endfacet
  facet normal 0 -1 0
    outer loop
      vertex 5.27226 -11 13.7081
      vertex 19.5816 -11 13.2599
      vertex 18.006 -11 14.3475
    endloop
  endfacet
  facet normal 0 -1 0
    outer loop
      vertex -5 -11 0
      vertex 5.27226 -11 13.7081
      vertex 3.48215 -11 13.0292
    endloop
  endfacet
  facet normal 0 -1 -0
    outer loop
      vertex 5.27226 -11 13.7081
      vertex -5 -11 0
      vertex 19.5816 -11 13.2599
    endloop
  endfacet
  facet normal 0 -1 0
    outer loop
      vertex 19.5816 -11 20.7401
      vertex -5 -11 23
      vertex 3.48215 -11 20.9708
    endloop
  endfacet
  facet normal 0 -1 0
    outer loop
      vertex -5 -11 23
      vertex 1.58158 -11 20.7401
      vertex 3.48215 -11 20.9708
    endloop
  endfacet
  facet normal 0 -1 0
    outer loop
      vertex -5 -11 23
      vertex 0.00595665 -11 19.6525
      vertex 1.58158 -11 20.7401
    endloop
  endfacet
  facet normal 0 -1 0
    outer loop
      vertex -5 -11 23
      vertex -0.883767 -11 17.9573
      vertex 0.00595665 -11 19.6525
    endloop
  endfacet
  facet normal 0 -1 0
    outer loop
      vertex -5 -11 23
      vertex -0.883767 -11 16.0427
      vertex -0.883767 -11 17.9573
    endloop
  endfacet
  facet normal 0 -1 0
    outer loop
      vertex -5 -11 0
      vertex -0.883767 -11 16.0427
      vertex -5 -11 23
    endloop
  endfacet
  facet normal 0 -1 -0
    outer loop
      vertex 19.5816 -11 13.2599
      vertex -5 -11 0
      vertex 21.4821 -11 13.0292
    endloop
  endfacet
  facet normal 0 -1 0
    outer loop
      vertex 65 -11 0
      vertex 21.4821 -11 13.0292
      vertex -5 -11 0
    endloop
  endfacet
  facet normal 0 -1 0
    outer loop
      vertex 37.5816 -11 13.2599
      vertex 65 -11 0
      vertex 39.4821 -11 13.0292
    endloop
  endfacet
  facet normal 0 -1 -0
    outer loop
      vertex 1.58158 -11 13.2599
      vertex -5 -11 0
      vertex 3.48215 -11 13.0292
    endloop
  endfacet
  facet normal 0 -1 -0
    outer loop
      vertex 0.00595665 -11 14.3475
      vertex -5 -11 0
      vertex 1.58158 -11 13.2599
    endloop
  endfacet
  facet normal 0 -1 -0
    outer loop
      vertex -0.883767 -11 16.0427
      vertex -5 -11 0
      vertex 0.00595665 -11 14.3475
    endloop
  endfacet
  facet normal 0 -1 0
    outer loop
      vertex -5 -11 23
      vertex 21.4821 -11 20.9708
      vertex 65 -11 23
    endloop
  endfacet
  facet normal 0 -1 0
    outer loop
      vertex 39.4821 -11 20.9708
      vertex 65 -11 23
      vertex 21.4821 -11 20.9708
    endloop
  endfacet
  facet normal 0 -1 0
    outer loop
      vertex 55.5816 -11 20.7401
      vertex 65 -11 23
      vertex 39.4821 -11 20.9708
    endloop
  endfacet
  facet normal 0 -1 0
    outer loop
      vertex 59.2723 -11 20.2919
      vertex 65 -11 23
      vertex 57.4821 -11 20.9708
    endloop
  endfacet
  facet normal 0 -1 0
    outer loop
      vertex 60.5418 -11 18.8589
      vertex 65 -11 23
      vertex 59.2723 -11 20.2919
    endloop
  endfacet
  facet normal 0 -1 0
    outer loop
      vertex 61 -11 17
      vertex 65 -11 23
      vertex 60.5418 -11 18.8589
    endloop
  endfacet
  facet normal 0 -1 0
    outer loop
      vertex 60.5418 -11 15.1411
      vertex 65 -11 23
      vertex 61 -11 17
    endloop
  endfacet
  facet normal 0 -1 0
    outer loop
      vertex 60.5418 -11 15.1411
      vertex 65 -11 0
      vertex 65 -11 23
    endloop
  endfacet
  facet normal 0 -1 0
    outer loop
      vertex 59.2723 -11 13.7081
      vertex 65 -11 0
      vertex 60.5418 -11 15.1411
    endloop
  endfacet
  facet normal 0 -1 0
    outer loop
      vertex 57.4821 -11 13.0292
      vertex 65 -11 0
      vertex 59.2723 -11 13.7081
    endloop
  endfacet
  facet normal 0 -1 0
    outer loop
      vertex 55.5816 -11 13.2599
      vertex 65 -11 0
      vertex 57.4821 -11 13.0292
    endloop
  endfacet
  facet normal -0 0 1
    outer loop
      vertex -5 -6 23
      vertex 65 -11 23
      vertex 65 -6 23
    endloop
  endfacet
  facet normal 0 0 1
    outer loop
      vertex 65 -11 23
      vertex -5 -6 23
      vertex -5 -11 23
    endloop
  endfacet
  facet normal 0 1 0
    outer loop
      vertex -5 -6 23
      vertex 19.5816 -6 20.7401
      vertex 3.48215 -6 20.9708
    endloop
  endfacet
  facet normal 0 1 0
    outer loop
      vertex 19.5816 -6 20.7401
      vertex 5.27226 -6 20.2919
      vertex 3.48215 -6 20.9708
    endloop
  endfacet
  facet normal 0 1 -0
    outer loop
      vertex 18.006 -6 19.6525
      vertex 5.27226 -6 20.2919
      vertex 19.5816 -6 20.7401
    endloop
  endfacet
  facet normal 0 1 0
    outer loop
      vertex 18.006 -6 19.6525
      vertex 6.54182 -6 18.8589
      vertex 5.27226 -6 20.2919
    endloop
  endfacet
  facet normal 0 1 -0
    outer loop
      vertex 17.1162 -6 17.9573
      vertex 6.54182 -6 18.8589
      vertex 18.006 -6 19.6525
    endloop
  endfacet
  facet normal 0 1 0
    outer loop
      vertex 17.1162 -6 17.9573
      vertex 7 -6 17
      vertex 6.54182 -6 18.8589
    endloop
  endfacet
  facet normal 0 1 -0
    outer loop
      vertex 17.1162 -6 16.0427
      vertex 7 -6 17
      vertex 17.1162 -6 17.9573
    endloop
  endfacet
  facet normal 0 1 0
    outer loop
      vertex 17.1162 -6 16.0427
      vertex 6.54182 -6 15.1411
      vertex 7 -6 17
    endloop
  endfacet
  facet normal 0 1 0
    outer loop
      vertex 18.006 -6 14.3475
      vertex 6.54182 -6 15.1411
      vertex 17.1162 -6 16.0427
    endloop
  endfacet
  facet normal 0 1 0
    outer loop
      vertex 18.006 -6 14.3475
      vertex 5.27226 -6 13.7081
      vertex 6.54182 -6 15.1411
    endloop
  endfacet
  facet normal 0 1 0
    outer loop
      vertex 19.5816 -6 13.2599
      vertex 5.27226 -6 13.7081
      vertex 18.006 -6 14.3475
    endloop
  endfacet
  facet normal 0 1 0
    outer loop
      vertex -5 -6 5
      vertex 19.5816 -6 13.2599
      vertex 21.4821 -6 13.0292
    endloop
  endfacet
  facet normal 0 1 0
    outer loop
      vertex 19.5816 -6 13.2599
      vertex -5 -6 5
      vertex 5.27226 -6 13.7081
    endloop
  endfacet
  facet normal 0 1 -0
    outer loop
      vertex 37.5816 -6 20.7401
      vertex 21.4821 -6 20.9708
      vertex 39.4821 -6 20.9708
    endloop
  endfacet
  facet normal 0 1 0
    outer loop
      vertex 37.5816 -6 20.7401
      vertex 23.2723 -6 20.2919
      vertex 21.4821 -6 20.9708
    endloop
  endfacet
  facet normal 0 1 -0
    outer loop
      vertex 36.006 -6 19.6525
      vertex 23.2723 -6 20.2919
      vertex 37.5816 -6 20.7401
    endloop
  endfacet
  facet normal 0 1 0
    outer loop
      vertex 36.006 -6 19.6525
      vertex 24.5418 -6 18.8589
      vertex 23.2723 -6 20.2919
    endloop
  endfacet
  facet normal 0 1 -0
    outer loop
      vertex 35.1162 -6 17.9573
      vertex 24.5418 -6 18.8589
      vertex 36.006 -6 19.6525
    endloop
  endfacet
  facet normal 0 1 0
    outer loop
      vertex 35.1162 -6 17.9573
      vertex 25 -6 17
      vertex 24.5418 -6 18.8589
    endloop
  endfacet
  facet normal 0 1 -0
    outer loop
      vertex 35.1162 -6 16.0427
      vertex 25 -6 17
      vertex 35.1162 -6 17.9573
    endloop
  endfacet
  facet normal 0 1 0
    outer loop
      vertex 35.1162 -6 16.0427
      vertex 24.5418 -6 15.1411
      vertex 25 -6 17
    endloop
  endfacet
  facet normal 0 1 0
    outer loop
      vertex 36.006 -6 14.3475
      vertex 24.5418 -6 15.1411
      vertex 35.1162 -6 16.0427
    endloop
  endfacet
  facet normal 0 1 0
    outer loop
      vertex 36.006 -6 14.3475
      vertex 23.2723 -6 13.7081
      vertex 24.5418 -6 15.1411
    endloop
  endfacet
  facet normal 0 1 0
    outer loop
      vertex 37.5816 -6 13.2599
      vertex 23.2723 -6 13.7081
      vertex 36.006 -6 14.3475
    endloop
  endfacet
  facet normal 0 1 0
    outer loop
      vertex 21.4821 -6 13.0292
      vertex 37.5816 -6 13.2599
      vertex 39.4821 -6 13.0292
    endloop
  endfacet
  facet normal 0 1 0
    outer loop
      vertex 37.5816 -6 13.2599
      vertex 21.4821 -6 13.0292
      vertex 23.2723 -6 13.7081
    endloop
  endfacet
  facet normal 0 1 0
    outer loop
      vertex 65 -6 23
      vertex 55.5816 -6 20.7401
      vertex 39.4821 -6 20.9708
    endloop
  endfacet
  facet normal 0 1 0
    outer loop
      vertex 55.5816 -6 20.7401
      vertex 41.2723 -6 20.2919
      vertex 39.4821 -6 20.9708
    endloop
  endfacet
  facet normal 0 1 -0
    outer loop
      vertex 54.006 -6 19.6525
      vertex 41.2723 -6 20.2919
      vertex 55.5816 -6 20.7401
    endloop
  endfacet
  facet normal 0 1 0
    outer loop
      vertex 54.006 -6 19.6525
      vertex 42.5418 -6 18.8589
      vertex 41.2723 -6 20.2919
    endloop
  endfacet
  facet normal 0 1 -0
    outer loop
      vertex 53.1162 -6 17.9573
      vertex 42.5418 -6 18.8589
      vertex 54.006 -6 19.6525
    endloop
  endfacet
  facet normal 0 1 0
    outer loop
      vertex 53.1162 -6 17.9573
      vertex 43 -6 17
      vertex 42.5418 -6 18.8589
    endloop
  endfacet
  facet normal 0 1 -0
    outer loop
      vertex 53.1162 -6 16.0427
      vertex 43 -6 17
      vertex 53.1162 -6 17.9573
    endloop
  endfacet
  facet normal 0 1 0
    outer loop
      vertex 53.1162 -6 16.0427
      vertex 42.5418 -6 15.1411
      vertex 43 -6 17
    endloop
  endfacet
  facet normal 0 1 0
    outer loop
      vertex 54.006 -6 14.3475
      vertex 42.5418 -6 15.1411
      vertex 53.1162 -6 16.0427
    endloop
  endfacet
  facet normal 0 1 0
    outer loop
      vertex 54.006 -6 14.3475
      vertex 41.2723 -6 13.7081
      vertex 42.5418 -6 15.1411
    endloop
  endfacet
  facet normal 0 1 0
    outer loop
      vertex 55.5816 -6 13.2599
      vertex 41.2723 -6 13.7081
      vertex 54.006 -6 14.3475
    endloop
  endfacet
  facet normal 0 1 0
    outer loop
      vertex 65 -6 5
      vertex 55.5816 -6 13.2599
      vertex 57.4821 -6 13.0292
    endloop
  endfacet
  facet normal 0 1 0
    outer loop
      vertex 55.5816 -6 13.2599
      vertex 65 -6 5
      vertex 41.2723 -6 13.7081
    endloop
  endfacet
  facet normal 0 1 0
    outer loop
      vertex 55.5816 -6 20.7401
      vertex 65 -6 23
      vertex 57.4821 -6 20.9708
    endloop
  endfacet
  facet normal 0 1 0
    outer loop
      vertex 65 -6 23
      vertex 59.2723 -6 20.2919
      vertex 57.4821 -6 20.9708
    endloop
  endfacet
  facet normal 0 1 0
    outer loop
      vertex 65 -6 23
      vertex 60.5418 -6 18.8589
      vertex 59.2723 -6 20.2919
    endloop
  endfacet
  facet normal 0 1 0
    outer loop
      vertex 65 -6 23
      vertex 61 -6 17
      vertex 60.5418 -6 18.8589
    endloop
  endfacet
  facet normal 0 1 -0
    outer loop
      vertex 65 -6 5
      vertex 61 -6 17
      vertex 65 -6 23
    endloop
  endfacet
  facet normal 0 1 0
    outer loop
      vertex 41.2723 -6 13.7081
      vertex 65 -6 5
      vertex 39.4821 -6 13.0292
    endloop
  endfacet
  facet normal 0 1 0
    outer loop
      vertex 39.4821 -6 13.0292
      vertex 65 -6 5
      vertex 21.4821 -6 13.0292
    endloop
  endfacet
  facet normal 0 1 0
    outer loop
      vertex -5 -6 5
      vertex 21.4821 -6 13.0292
      vertex 65 -6 5
    endloop
  endfacet
  facet normal 0 1 0
    outer loop
      vertex 59.2723 -6 13.7081
      vertex 65 -6 5
      vertex 57.4821 -6 13.0292
    endloop
  endfacet
  facet normal 0 1 0
    outer loop
      vertex 60.5418 -6 15.1411
      vertex 65 -6 5
      vertex 59.2723 -6 13.7081
    endloop
  endfacet
  facet normal 0 1 0
    outer loop
      vertex 61 -6 17
      vertex 65 -6 5
      vertex 60.5418 -6 15.1411
    endloop
  endfacet
  facet normal 0 1 0
    outer loop
      vertex 65 -6 23
      vertex 39.4821 -6 20.9708
      vertex -5 -6 23
    endloop
  endfacet
  facet normal 0 1 -0
    outer loop
      vertex 21.4821 -6 20.9708
      vertex -5 -6 23
      vertex 39.4821 -6 20.9708
    endloop
  endfacet
  facet normal 0 1 -0
    outer loop
      vertex 19.5816 -6 20.7401
      vertex -5 -6 23
      vertex 21.4821 -6 20.9708
    endloop
  endfacet
  facet normal 0 1 -0
    outer loop
      vertex 1.58158 -6 20.7401
      vertex -5 -6 23
      vertex 3.48215 -6 20.9708
    endloop
  endfacet
  facet normal 0 1 -0
    outer loop
      vertex 0.00595665 -6 19.6525
      vertex -5 -6 23
      vertex 1.58158 -6 20.7401
    endloop
  endfacet
  facet normal 0 1 -0
    outer loop
      vertex -0.883767 -6 17.9573
      vertex -5 -6 23
      vertex 0.00595665 -6 19.6525
    endloop
  endfacet
  facet normal 0 1 -0
    outer loop
      vertex -0.883767 -6 16.0427
      vertex -5 -6 23
      vertex -0.883767 -6 17.9573
    endloop
  endfacet
  facet normal 0 1 0
    outer loop
      vertex -5 -6 5
      vertex -0.883767 -6 16.0427
      vertex 0.00595665 -6 14.3475
    endloop
  endfacet
  facet normal 0 1 0
    outer loop
      vertex 5.27226 -6 13.7081
      vertex -5 -6 5
      vertex 3.48215 -6 13.0292
    endloop
  endfacet
  facet normal 0 1 0
    outer loop
      vertex -0.883767 -6 16.0427
      vertex -5 -6 5
      vertex -5 -6 23
    endloop
  endfacet
  facet normal 0 1 0
    outer loop
      vertex 1.58158 -6 13.2599
      vertex -5 -6 5
      vertex 0.00595665 -6 14.3475
    endloop
  endfacet
  facet normal 0 1 0
    outer loop
      vertex 3.48215 -6 13.0292
      vertex -5 -6 5
      vertex 1.58158 -6 13.2599
    endloop
  endfacet
  facet normal -0.900969 -0.433884 0
    outer loop
      vertex 2 0 0
      vertex 1.24698 1.56366 5
      vertex 1.24698 1.56366 0
    endloop
  endfacet
  facet normal -0.900969 -0.433884 0
    outer loop
      vertex 1.24698 1.56366 5
      vertex 2 0 0
      vertex 2 0 5
    endloop
  endfacet
  facet normal 1 -0 0
    outer loop
      vertex -1.80194 -0.867767 5
      vertex -1.80194 0.867767 0
      vertex -1.80194 0.867767 5
    endloop
  endfacet
  facet normal 1 0 0
    outer loop
      vertex -1.80194 0.867767 0
      vertex -1.80194 -0.867767 5
      vertex -1.80194 -0.867767 0
    endloop
  endfacet
  facet normal -0.222521 -0.974928 0
    outer loop
      vertex -0.445042 1.94986 0
      vertex 1.24698 1.56366 5
      vertex -0.445042 1.94986 5
    endloop
  endfacet
  facet normal -0.222521 -0.974928 -0
    outer loop
      vertex 1.24698 1.56366 5
      vertex -0.445042 1.94986 0
      vertex 1.24698 1.56366 0
    endloop
  endfacet
  facet normal 0.62349 -0.781831 0
    outer loop
      vertex -1.80194 0.867767 0
      vertex -0.445042 1.94986 5
      vertex -1.80194 0.867767 5
    endloop
  endfacet
  facet normal 0.62349 -0.781831 0
    outer loop
      vertex -0.445042 1.94986 5
      vertex -1.80194 0.867767 0
      vertex -0.445042 1.94986 0
    endloop
  endfacet
  facet normal -0.900969 0.433884 0
    outer loop
      vertex 1.24698 -1.56366 0
      vertex 2 0 5
      vertex 2 0 0
    endloop
  endfacet
  facet normal -0.900969 0.433884 0
    outer loop
      vertex 2 0 5
      vertex 1.24698 -1.56366 0
      vertex 1.24698 -1.56366 5
    endloop
  endfacet
  facet normal -0.222521 0.974928 0
    outer loop
      vertex 1.24698 -1.56366 0
      vertex -0.445042 -1.94986 5
      vertex 1.24698 -1.56366 5
    endloop
  endfacet
  facet normal -0.222521 0.974928 0
    outer loop
      vertex -0.445042 -1.94986 5
      vertex 1.24698 -1.56366 0
      vertex -0.445042 -1.94986 0
    endloop
  endfacet
  facet normal 0.62349 0.781831 -0
    outer loop
      vertex -0.445042 -1.94986 0
      vertex -1.80194 -0.867767 5
      vertex -0.445042 -1.94986 5
    endloop
  endfacet
  facet normal 0.62349 0.781831 0
    outer loop
      vertex -1.80194 -0.867767 5
      vertex -0.445042 -1.94986 0
      vertex -1.80194 -0.867767 0
    endloop
  endfacet
  facet normal -0.900969 -0.433884 0
    outer loop
      vertex 32 0 0
      vertex 31.247 1.56366 5
      vertex 31.247 1.56366 0
    endloop
  endfacet
  facet normal -0.900969 -0.433884 0
    outer loop
      vertex 31.247 1.56366 5
      vertex 32 0 0
      vertex 32 0 5
    endloop
  endfacet
  facet normal 1 -0 0
    outer loop
      vertex 28.1981 -0.867767 5
      vertex 28.1981 0.867767 0
      vertex 28.1981 0.867767 5
    endloop
  endfacet
  facet normal 1 0 0
    outer loop
      vertex 28.1981 0.867767 0
      vertex 28.1981 -0.867767 5
      vertex 28.1981 -0.867767 0
    endloop
  endfacet
  facet normal -0.222521 -0.974928 0
    outer loop
      vertex 29.555 1.94986 0
      vertex 31.247 1.56366 5
      vertex 29.555 1.94986 5
    endloop
  endfacet
  facet normal -0.222521 -0.974928 -0
    outer loop
      vertex 31.247 1.56366 5
      vertex 29.555 1.94986 0
      vertex 31.247 1.56366 0
    endloop
  endfacet
  facet normal 0.62349 -0.781831 0
    outer loop
      vertex 28.1981 0.867767 0
      vertex 29.555 1.94986 5
      vertex 28.1981 0.867767 5
    endloop
  endfacet
  facet normal 0.62349 -0.781831 0
    outer loop
      vertex 29.555 1.94986 5
      vertex 28.1981 0.867767 0
      vertex 29.555 1.94986 0
    endloop
  endfacet
  facet normal -0.900969 0.433884 0
    outer loop
      vertex 31.247 -1.56366 0
      vertex 32 0 5
      vertex 32 0 0
    endloop
  endfacet
  facet normal -0.900969 0.433884 0
    outer loop
      vertex 32 0 5
      vertex 31.247 -1.56366 0
      vertex 31.247 -1.56366 5
    endloop
  endfacet
  facet normal -0.222521 0.974928 0
    outer loop
      vertex 31.247 -1.56366 0
      vertex 29.555 -1.94986 5
      vertex 31.247 -1.56366 5
    endloop
  endfacet
  facet normal -0.222521 0.974928 0
    outer loop
      vertex 29.555 -1.94986 5
      vertex 31.247 -1.56366 0
      vertex 29.555 -1.94986 0
    endloop
  endfacet
  facet normal 0.62349 0.781831 -0
    outer loop
      vertex 29.555 -1.94986 0
      vertex 28.1981 -0.867767 5
      vertex 29.555 -1.94986 5
    endloop
  endfacet
  facet normal 0.62349 0.781831 0
    outer loop
      vertex 28.1981 -0.867767 5
      vertex 29.555 -1.94986 0
      vertex 28.1981 -0.867767 0
    endloop
  endfacet
  facet normal -0.900969 -0.433884 0
    outer loop
      vertex 62 0 0
      vertex 61.247 1.56366 5
      vertex 61.247 1.56366 0
    endloop
  endfacet
  facet normal -0.900969 -0.433884 0
    outer loop
      vertex 61.247 1.56366 5
      vertex 62 0 0
      vertex 62 0 5
    endloop
  endfacet
  facet normal 1 -0 0
    outer loop
      vertex 58.1981 -0.867767 5
      vertex 58.1981 0.867767 0
      vertex 58.1981 0.867767 5
    endloop
  endfacet
  facet normal 1 0 0
    outer loop
      vertex 58.1981 0.867767 0
      vertex 58.1981 -0.867767 5
      vertex 58.1981 -0.867767 0
    endloop
  endfacet
  facet normal -0.222521 -0.974928 0
    outer loop
      vertex 59.555 1.94986 0
      vertex 61.247 1.56366 5
      vertex 59.555 1.94986 5
    endloop
  endfacet
  facet normal -0.222521 -0.974928 -0
    outer loop
      vertex 61.247 1.56366 5
      vertex 59.555 1.94986 0
      vertex 61.247 1.56366 0
    endloop
  endfacet
  facet normal 0.62349 -0.781831 0
    outer loop
      vertex 58.1981 0.867767 0
      vertex 59.555 1.94986 5
      vertex 58.1981 0.867767 5
    endloop
  endfacet
  facet normal 0.62349 -0.781831 0
    outer loop
      vertex 59.555 1.94986 5
      vertex 58.1981 0.867767 0
      vertex 59.555 1.94986 0
    endloop
  endfacet
  facet normal -0.900969 0.433884 0
    outer loop
      vertex 61.247 -1.56366 0
      vertex 62 0 5
      vertex 62 0 0
    endloop
  endfacet
  facet normal -0.900969 0.433884 0
    outer loop
      vertex 62 0 5
      vertex 61.247 -1.56366 0
      vertex 61.247 -1.56366 5
    endloop
  endfacet
  facet normal -0.222521 0.974928 0
    outer loop
      vertex 61.247 -1.56366 0
      vertex 59.555 -1.94986 5
      vertex 61.247 -1.56366 5
    endloop
  endfacet
  facet normal -0.222521 0.974928 0
    outer loop
      vertex 59.555 -1.94986 5
      vertex 61.247 -1.56366 0
      vertex 59.555 -1.94986 0
    endloop
  endfacet
  facet normal 0.62349 0.781831 -0
    outer loop
      vertex 59.555 -1.94986 0
      vertex 58.1981 -0.867767 5
      vertex 59.555 -1.94986 5
    endloop
  endfacet
  facet normal 0.62349 0.781831 0
    outer loop
      vertex 58.1981 -0.867767 5
      vertex 59.555 -1.94986 0
      vertex 58.1981 -0.867767 0
    endloop
  endfacet
  facet normal -0.970942 0 -0.239316
    outer loop
      vertex 7 -11 17
      vertex 6.54182 -6 18.8589
      vertex 7 -6 17
    endloop
  endfacet
  facet normal -0.970942 -0 -0.239316
    outer loop
      vertex 6.54182 -6 18.8589
      vertex 7 -11 17
      vertex 6.54182 -11 18.8589
    endloop
  endfacet
  facet normal 1 -0 0
    outer loop
      vertex -0.883767 -11 17.9573
      vertex -0.883767 -6 16.0427
      vertex -0.883767 -6 17.9573
    endloop
  endfacet
  facet normal 1 0 0
    outer loop
      vertex -0.883767 -6 16.0427
      vertex -0.883767 -11 17.9573
      vertex -0.883767 -11 16.0427
    endloop
  endfacet
  facet normal 0.120536 0 -0.992709
    outer loop
      vertex 1.58158 -11 20.7401
      vertex 3.48215 -6 20.9708
      vertex 3.48215 -11 20.9708
    endloop
  endfacet
  facet normal 0.120536 0 -0.992709
    outer loop
      vertex 3.48215 -6 20.9708
      vertex 1.58158 -11 20.7401
      vertex 1.58158 -6 20.7401
    endloop
  endfacet
  facet normal -0.748511 0 -0.663123
    outer loop
      vertex 6.54182 -11 18.8589
      vertex 5.27226 -6 20.2919
      vertex 6.54182 -6 18.8589
    endloop
  endfacet
  facet normal -0.748511 -0 -0.663123
    outer loop
      vertex 5.27226 -6 20.2919
      vertex 6.54182 -11 18.8589
      vertex 5.27226 -11 20.2919
    endloop
  endfacet
  facet normal 0.568065 0 -0.822984
    outer loop
      vertex 0.00595665 -11 19.6525
      vertex 1.58158 -6 20.7401
      vertex 1.58158 -11 20.7401
    endloop
  endfacet
  facet normal 0.568065 0 -0.822984
    outer loop
      vertex 1.58158 -6 20.7401
      vertex 0.00595665 -11 19.6525
      vertex 0.00595665 -6 19.6525
    endloop
  endfacet
  facet normal -0.354605 0 0.935016
    outer loop
      vertex 3.48215 -6 13.0292
      vertex 5.27226 -11 13.7081
      vertex 5.27226 -6 13.7081
    endloop
  endfacet
  facet normal -0.354605 0 0.935016
    outer loop
      vertex 5.27226 -11 13.7081
      vertex 3.48215 -6 13.0292
      vertex 3.48215 -11 13.0292
    endloop
  endfacet
  facet normal -0.354605 0 -0.935016
    outer loop
      vertex 3.48215 -11 20.9708
      vertex 5.27226 -6 20.2919
      vertex 5.27226 -11 20.2919
    endloop
  endfacet
  facet normal -0.354605 0 -0.935016
    outer loop
      vertex 5.27226 -6 20.2919
      vertex 3.48215 -11 20.9708
      vertex 3.48215 -6 20.9708
    endloop
  endfacet
  facet normal 0.885456 0 -0.464723
    outer loop
      vertex 0.00595665 -11 19.6525
      vertex -0.883767 -6 17.9573
      vertex 0.00595665 -6 19.6525
    endloop
  endfacet
  facet normal 0.885456 0 -0.464723
    outer loop
      vertex -0.883767 -6 17.9573
      vertex 0.00595665 -11 19.6525
      vertex -0.883767 -11 17.9573
    endloop
  endfacet
  facet normal -0.970942 0 0.239316
    outer loop
      vertex 6.54182 -11 15.1411
      vertex 7 -6 17
      vertex 6.54182 -6 15.1411
    endloop
  endfacet
  facet normal -0.970942 0 0.239316
    outer loop
      vertex 7 -6 17
      vertex 6.54182 -11 15.1411
      vertex 7 -11 17
    endloop
  endfacet
  facet normal -0.748511 0 0.663123
    outer loop
      vertex 5.27226 -11 13.7081
      vertex 6.54182 -6 15.1411
      vertex 5.27226 -6 13.7081
    endloop
  endfacet
  facet normal -0.748511 0 0.663123
    outer loop
      vertex 6.54182 -6 15.1411
      vertex 5.27226 -11 13.7081
      vertex 6.54182 -11 15.1411
    endloop
  endfacet
  facet normal 0.120536 0 0.992709
    outer loop
      vertex 1.58158 -6 13.2599
      vertex 3.48215 -11 13.0292
      vertex 3.48215 -6 13.0292
    endloop
  endfacet
  facet normal 0.120536 0 0.992709
    outer loop
      vertex 3.48215 -11 13.0292
      vertex 1.58158 -6 13.2599
      vertex 1.58158 -11 13.2599
    endloop
  endfacet
  facet normal 0.568065 0 0.822984
    outer loop
      vertex 0.00595665 -6 14.3475
      vertex 1.58158 -11 13.2599
      vertex 1.58158 -6 13.2599
    endloop
  endfacet
  facet normal 0.568065 0 0.822984
    outer loop
      vertex 1.58158 -11 13.2599
      vertex 0.00595665 -6 14.3475
      vertex 0.00595665 -11 14.3475
    endloop
  endfacet
  facet normal 0.885456 -0 0.464723
    outer loop
      vertex -0.883767 -11 16.0427
      vertex 0.00595665 -6 14.3475
      vertex -0.883767 -6 16.0427
    endloop
  endfacet
  facet normal 0.885456 0 0.464723
    outer loop
      vertex 0.00595665 -6 14.3475
      vertex -0.883767 -11 16.0427
      vertex 0.00595665 -11 14.3475
    endloop
  endfacet
  facet normal -0.970942 0 -0.239316
    outer loop
      vertex 25 -11 17
      vertex 24.5418 -6 18.8589
      vertex 25 -6 17
    endloop
  endfacet
  facet normal -0.970942 -0 -0.239316
    outer loop
      vertex 24.5418 -6 18.8589
      vertex 25 -11 17
      vertex 24.5418 -11 18.8589
    endloop
  endfacet
  facet normal 1 -0 0
    outer loop
      vertex 17.1162 -11 17.9573
      vertex 17.1162 -6 16.0427
      vertex 17.1162 -6 17.9573
    endloop
  endfacet
  facet normal 1 0 0
    outer loop
      vertex 17.1162 -6 16.0427
      vertex 17.1162 -11 17.9573
      vertex 17.1162 -11 16.0427
    endloop
  endfacet
  facet normal 0.120536 0 -0.992709
    outer loop
      vertex 19.5816 -11 20.7401
      vertex 21.4821 -6 20.9708
      vertex 21.4821 -11 20.9708
    endloop
  endfacet
  facet normal 0.120536 0 -0.992709
    outer loop
      vertex 21.4821 -6 20.9708
      vertex 19.5816 -11 20.7401
      vertex 19.5816 -6 20.7401
    endloop
  endfacet
  facet normal -0.748511 0 -0.663123
    outer loop
      vertex 24.5418 -11 18.8589
      vertex 23.2723 -6 20.2919
      vertex 24.5418 -6 18.8589
    endloop
  endfacet
  facet normal -0.748511 -0 -0.663123
    outer loop
      vertex 23.2723 -6 20.2919
      vertex 24.5418 -11 18.8589
      vertex 23.2723 -11 20.2919
    endloop
  endfacet
  facet normal 0.568064 0 -0.822984
    outer loop
      vertex 18.006 -11 19.6525
      vertex 19.5816 -6 20.7401
      vertex 19.5816 -11 20.7401
    endloop
  endfacet
  facet normal 0.568064 0 -0.822984
    outer loop
      vertex 19.5816 -6 20.7401
      vertex 18.006 -11 19.6525
      vertex 18.006 -6 19.6525
    endloop
  endfacet
  facet normal -0.354605 0 0.935016
    outer loop
      vertex 21.4821 -6 13.0292
      vertex 23.2723 -11 13.7081
      vertex 23.2723 -6 13.7081
    endloop
  endfacet
  facet normal -0.354605 0 0.935016
    outer loop
      vertex 23.2723 -11 13.7081
      vertex 21.4821 -6 13.0292
      vertex 21.4821 -11 13.0292
    endloop
  endfacet
  facet normal -0.354605 0 -0.935016
    outer loop
      vertex 21.4821 -11 20.9708
      vertex 23.2723 -6 20.2919
      vertex 23.2723 -11 20.2919
    endloop
  endfacet
  facet normal -0.354605 0 -0.935016
    outer loop
      vertex 23.2723 -6 20.2919
      vertex 21.4821 -11 20.9708
      vertex 21.4821 -6 20.9708
    endloop
  endfacet
  facet normal 0.885456 0 -0.464723
    outer loop
      vertex 18.006 -11 19.6525
      vertex 17.1162 -6 17.9573
      vertex 18.006 -6 19.6525
    endloop
  endfacet
  facet normal 0.885456 0 -0.464723
    outer loop
      vertex 17.1162 -6 17.9573
      vertex 18.006 -11 19.6525
      vertex 17.1162 -11 17.9573
    endloop
  endfacet
  facet normal -0.970942 0 0.239315
    outer loop
      vertex 24.5418 -11 15.1411
      vertex 25 -6 17
      vertex 24.5418 -6 15.1411
    endloop
  endfacet
  facet normal -0.970942 0 0.239315
    outer loop
      vertex 25 -6 17
      vertex 24.5418 -11 15.1411
      vertex 25 -11 17
    endloop
  endfacet
  facet normal -0.748511 0 0.663123
    outer loop
      vertex 23.2723 -11 13.7081
      vertex 24.5418 -6 15.1411
      vertex 23.2723 -6 13.7081
    endloop
  endfacet
  facet normal -0.748511 0 0.663123
    outer loop
      vertex 24.5418 -6 15.1411
      vertex 23.2723 -11 13.7081
      vertex 24.5418 -11 15.1411
    endloop
  endfacet
  facet normal 0.120536 0 0.992709
    outer loop
      vertex 19.5816 -6 13.2599
      vertex 21.4821 -11 13.0292
      vertex 21.4821 -6 13.0292
    endloop
  endfacet
  facet normal 0.120536 0 0.992709
    outer loop
      vertex 21.4821 -11 13.0292
      vertex 19.5816 -6 13.2599
      vertex 19.5816 -11 13.2599
    endloop
  endfacet
  facet normal 0.568064 0 0.822984
    outer loop
      vertex 18.006 -6 14.3475
      vertex 19.5816 -11 13.2599
      vertex 19.5816 -6 13.2599
    endloop
  endfacet
  facet normal 0.568064 0 0.822984
    outer loop
      vertex 19.5816 -11 13.2599
      vertex 18.006 -6 14.3475
      vertex 18.006 -11 14.3475
    endloop
  endfacet
  facet normal 0.885456 -0 0.464723
    outer loop
      vertex 17.1162 -11 16.0427
      vertex 18.006 -6 14.3475
      vertex 17.1162 -6 16.0427
    endloop
  endfacet
  facet normal 0.885456 0 0.464723
    outer loop
      vertex 18.006 -6 14.3475
      vertex 17.1162 -11 16.0427
      vertex 18.006 -11 14.3475
    endloop
  endfacet
  facet normal -0.970942 0 -0.239316
    outer loop
      vertex 43 -11 17
      vertex 42.5418 -6 18.8589
      vertex 43 -6 17
    endloop
  endfacet
  facet normal -0.970942 -0 -0.239316
    outer loop
      vertex 42.5418 -6 18.8589
      vertex 43 -11 17
      vertex 42.5418 -11 18.8589
    endloop
  endfacet
  facet normal 1 -0 0
    outer loop
      vertex 35.1162 -11 17.9573
      vertex 35.1162 -6 16.0427
      vertex 35.1162 -6 17.9573
    endloop
  endfacet
  facet normal 1 0 0
    outer loop
      vertex 35.1162 -6 16.0427
      vertex 35.1162 -11 17.9573
      vertex 35.1162 -11 16.0427
    endloop
  endfacet
  facet normal 0.120536 0 -0.992709
    outer loop
      vertex 37.5816 -11 20.7401
      vertex 39.4821 -6 20.9708
      vertex 39.4821 -11 20.9708
    endloop
  endfacet
  facet normal 0.120536 0 -0.992709
    outer loop
      vertex 39.4821 -6 20.9708
      vertex 37.5816 -11 20.7401
      vertex 37.5816 -6 20.7401
    endloop
  endfacet
  facet normal -0.748511 0 -0.663123
    outer loop
      vertex 42.5418 -11 18.8589
      vertex 41.2723 -6 20.2919
      vertex 42.5418 -6 18.8589
    endloop
  endfacet
  facet normal -0.748511 -0 -0.663123
    outer loop
      vertex 41.2723 -6 20.2919
      vertex 42.5418 -11 18.8589
      vertex 41.2723 -11 20.2919
    endloop
  endfacet
  facet normal 0.568065 0 -0.822984
    outer loop
      vertex 36.006 -11 19.6525
      vertex 37.5816 -6 20.7401
      vertex 37.5816 -11 20.7401
    endloop
  endfacet
  facet normal 0.568065 0 -0.822984
    outer loop
      vertex 37.5816 -6 20.7401
      vertex 36.006 -11 19.6525
      vertex 36.006 -6 19.6525
    endloop
  endfacet
  facet normal -0.354605 0 0.935016
    outer loop
      vertex 39.4821 -6 13.0292
      vertex 41.2723 -11 13.7081
      vertex 41.2723 -6 13.7081
    endloop
  endfacet
  facet normal -0.354605 0 0.935016
    outer loop
      vertex 41.2723 -11 13.7081
      vertex 39.4821 -6 13.0292
      vertex 39.4821 -11 13.0292
    endloop
  endfacet
  facet normal -0.354605 0 -0.935016
    outer loop
      vertex 39.4821 -11 20.9708
      vertex 41.2723 -6 20.2919
      vertex 41.2723 -11 20.2919
    endloop
  endfacet
  facet normal -0.354605 0 -0.935016
    outer loop
      vertex 41.2723 -6 20.2919
      vertex 39.4821 -11 20.9708
      vertex 39.4821 -6 20.9708
    endloop
  endfacet
  facet normal 0.885456 0 -0.464723
    outer loop
      vertex 36.006 -11 19.6525
      vertex 35.1162 -6 17.9573
      vertex 36.006 -6 19.6525
    endloop
  endfacet
  facet normal 0.885456 0 -0.464723
    outer loop
      vertex 35.1162 -6 17.9573
      vertex 36.006 -11 19.6525
      vertex 35.1162 -11 17.9573
    endloop
  endfacet
  facet normal -0.970942 0 0.239315
    outer loop
      vertex 42.5418 -11 15.1411
      vertex 43 -6 17
      vertex 42.5418 -6 15.1411
    endloop
  endfacet
  facet normal -0.970942 0 0.239315
    outer loop
      vertex 43 -6 17
      vertex 42.5418 -11 15.1411
      vertex 43 -11 17
    endloop
  endfacet
  facet normal -0.748511 0 0.663123
    outer loop
      vertex 41.2723 -11 13.7081
      vertex 42.5418 -6 15.1411
      vertex 41.2723 -6 13.7081
    endloop
  endfacet
  facet normal -0.748511 0 0.663123
    outer loop
      vertex 42.5418 -6 15.1411
      vertex 41.2723 -11 13.7081
      vertex 42.5418 -11 15.1411
    endloop
  endfacet
  facet normal 0.120536 0 0.992709
    outer loop
      vertex 37.5816 -6 13.2599
      vertex 39.4821 -11 13.0292
      vertex 39.4821 -6 13.0292
    endloop
  endfacet
  facet normal 0.120536 0 0.992709
    outer loop
      vertex 39.4821 -11 13.0292
      vertex 37.5816 -6 13.2599
      vertex 37.5816 -11 13.2599
    endloop
  endfacet
  facet normal 0.568065 0 0.822984
    outer loop
      vertex 36.006 -6 14.3475
      vertex 37.5816 -11 13.2599
      vertex 37.5816 -6 13.2599
    endloop
  endfacet
  facet normal 0.568065 0 0.822984
    outer loop
      vertex 37.5816 -11 13.2599
      vertex 36.006 -6 14.3475
      vertex 36.006 -11 14.3475
    endloop
  endfacet
  facet normal 0.885456 -0 0.464723
    outer loop
      vertex 35.1162 -11 16.0427
      vertex 36.006 -6 14.3475
      vertex 35.1162 -6 16.0427
    endloop
  endfacet
  facet normal 0.885456 0 0.464723
    outer loop
      vertex 36.006 -6 14.3475
      vertex 35.1162 -11 16.0427
      vertex 36.006 -11 14.3475
    endloop
  endfacet
  facet normal -0.970942 0 -0.239316
    outer loop
      vertex 61 -11 17
      vertex 60.5418 -6 18.8589
      vertex 61 -6 17
    endloop
  endfacet
  facet normal -0.970942 -0 -0.239316
    outer loop
      vertex 60.5418 -6 18.8589
      vertex 61 -11 17
      vertex 60.5418 -11 18.8589
    endloop
  endfacet
  facet normal 1 -0 0
    outer loop
      vertex 53.1162 -11 17.9573
      vertex 53.1162 -6 16.0427
      vertex 53.1162 -6 17.9573
    endloop
  endfacet
  facet normal 1 0 0
    outer loop
      vertex 53.1162 -6 16.0427
      vertex 53.1162 -11 17.9573
      vertex 53.1162 -11 16.0427
    endloop
  endfacet
  facet normal 0.120536 0 -0.992709
    outer loop
      vertex 55.5816 -11 20.7401
      vertex 57.4821 -6 20.9708
      vertex 57.4821 -11 20.9708
    endloop
  endfacet
  facet normal 0.120536 0 -0.992709
    outer loop
      vertex 57.4821 -6 20.9708
      vertex 55.5816 -11 20.7401
      vertex 55.5816 -6 20.7401
    endloop
  endfacet
  facet normal -0.748511 0 -0.663123
    outer loop
      vertex 60.5418 -11 18.8589
      vertex 59.2723 -6 20.2919
      vertex 60.5418 -6 18.8589
    endloop
  endfacet
  facet normal -0.748511 -0 -0.663123
    outer loop
      vertex 59.2723 -6 20.2919
      vertex 60.5418 -11 18.8589
      vertex 59.2723 -11 20.2919
    endloop
  endfacet
  facet normal 0.568065 0 -0.822984
    outer loop
      vertex 54.006 -11 19.6525
      vertex 55.5816 -6 20.7401
      vertex 55.5816 -11 20.7401
    endloop
  endfacet
  facet normal 0.568065 0 -0.822984
    outer loop
      vertex 55.5816 -6 20.7401
      vertex 54.006 -11 19.6525
      vertex 54.006 -6 19.6525
    endloop
  endfacet
  facet normal -0.354605 0 0.935016
    outer loop
      vertex 57.4821 -6 13.0292
      vertex 59.2723 -11 13.7081
      vertex 59.2723 -6 13.7081
    endloop
  endfacet
  facet normal -0.354605 0 0.935016
    outer loop
      vertex 59.2723 -11 13.7081
      vertex 57.4821 -6 13.0292
      vertex 57.4821 -11 13.0292
    endloop
  endfacet
  facet normal -0.354605 0 -0.935016
    outer loop
      vertex 57.4821 -11 20.9708
      vertex 59.2723 -6 20.2919
      vertex 59.2723 -11 20.2919
    endloop
  endfacet
  facet normal -0.354605 0 -0.935016
    outer loop
      vertex 59.2723 -6 20.2919
      vertex 57.4821 -11 20.9708
      vertex 57.4821 -6 20.9708
    endloop
  endfacet
  facet normal 0.885456 0 -0.464723
    outer loop
      vertex 54.006 -11 19.6525
      vertex 53.1162 -6 17.9573
      vertex 54.006 -6 19.6525
    endloop
  endfacet
  facet normal 0.885456 0 -0.464723
    outer loop
      vertex 53.1162 -6 17.9573
      vertex 54.006 -11 19.6525
      vertex 53.1162 -11 17.9573
    endloop
  endfacet
  facet normal -0.970942 0 0.239315
    outer loop
      vertex 60.5418 -11 15.1411
      vertex 61 -6 17
      vertex 60.5418 -6 15.1411
    endloop
  endfacet
  facet normal -0.970942 0 0.239315
    outer loop
      vertex 61 -6 17
      vertex 60.5418 -11 15.1411
      vertex 61 -11 17
    endloop
  endfacet
  facet normal -0.748511 0 0.663123
    outer loop
      vertex 59.2723 -11 13.7081
      vertex 60.5418 -6 15.1411
      vertex 59.2723 -6 13.7081
    endloop
  endfacet
  facet normal -0.748511 0 0.663123
    outer loop
      vertex 60.5418 -6 15.1411
      vertex 59.2723 -11 13.7081
      vertex 60.5418 -11 15.1411
    endloop
  endfacet
  facet normal 0.120536 0 0.992709
    outer loop
      vertex 55.5816 -6 13.2599
      vertex 57.4821 -11 13.0292
      vertex 57.4821 -6 13.0292
    endloop
  endfacet
  facet normal 0.120536 0 0.992709
    outer loop
      vertex 57.4821 -11 13.0292
      vertex 55.5816 -6 13.2599
      vertex 55.5816 -11 13.2599
    endloop
  endfacet
  facet normal 0.568065 0 0.822984
    outer loop
      vertex 54.006 -6 14.3475
      vertex 55.5816 -11 13.2599
      vertex 55.5816 -6 13.2599
    endloop
  endfacet
  facet normal 0.568065 0 0.822984
    outer loop
      vertex 55.5816 -11 13.2599
      vertex 54.006 -6 14.3475
      vertex 54.006 -11 14.3475
    endloop
  endfacet
  facet normal 0.885456 -0 0.464723
    outer loop
      vertex 53.1162 -11 16.0427
      vertex 54.006 -6 14.3475
      vertex 53.1162 -6 16.0427
    endloop
  endfacet
  facet normal 0.885456 0 0.464723
    outer loop
      vertex 54.006 -6 14.3475
      vertex 53.1162 -11 16.0427
      vertex 54.006 -11 14.3475
    endloop
  endfacet
endsolid OpenSCAD_Model
