solid OpenSCAD_Model
  facet normal -1 0 0
    outer loop
      vertex -3 6 3
      vertex -3 6 0
      vertex -3 -6 3
    endloop
  endfacet
  facet normal -1 0 0
    outer loop
      vertex -3 -9 0
      vertex -3 -9 16
      vertex -3 -6 3
    endloop
  endfacet
  facet normal -1 0 0
    outer loop
      vertex -3 -9 0
      vertex -3 -6 3
      vertex -3 6 0
    endloop
  endfacet
  facet normal -1 0 0
    outer loop
      vertex -3 -6 3
      vertex -3 -9 16
      vertex -3 -6 16
    endloop
  endfacet
  facet normal 0 -1 0
    outer loop
      vertex 3.42705 -9 10.1468
      vertex -3 -9 0
      vertex 63 -9 0
    endloop
  endfacet
  facet normal 0 -1 0
    outer loop
      vertex 48.4271 -9 15.8532
      vertex 49.9271 -9 14.7634
      vertex 63 -9 16
    endloop
  endfacet
  facet normal 0 -1 0
    outer loop
      vertex -3 -9 16
      vertex -3 -9 0
      vertex 0.072949 -9 11.2366
    endloop
  endfacet
  facet normal 0 -1 0
    outer loop
      vertex 4.92705 -9 11.2366
      vertex 3.42705 -9 10.1468
      vertex 63 -9 0
    endloop
  endfacet
  facet normal 0 -1 0
    outer loop
      vertex -3 -9 16
      vertex 0.072949 -9 11.2366
      vertex -0.5 -9 13
    endloop
  endfacet
  facet normal 0 -1 0
    outer loop
      vertex -3 -9 16
      vertex -0.5 -9 13
      vertex 0.072949 -9 14.7634
    endloop
  endfacet
  facet normal 0 -1 0
    outer loop
      vertex 63 -9 16
      vertex -3 -9 16
      vertex 1.57295 -9 15.8532
    endloop
  endfacet
  facet normal 0 -1 0
    outer loop
      vertex 63 -9 16
      vertex 1.57295 -9 15.8532
      vertex 3.42705 -9 15.8532
    endloop
  endfacet
  facet normal 0 -1 0
    outer loop
      vertex 18.4271 -9 10.1468
      vertex 16.5729 -9 10.1468
      vertex 63 -9 0
    endloop
  endfacet
  facet normal 0 -1 0
    outer loop
      vertex 1.57295 -9 10.1468
      vertex -3 -9 0
      vertex 3.42705 -9 10.1468
    endloop
  endfacet
  facet normal 0 -1 0
    outer loop
      vertex 0.072949 -9 11.2366
      vertex -3 -9 0
      vertex 1.57295 -9 10.1468
    endloop
  endfacet
  facet normal 0 -1 0
    outer loop
      vertex 16.5729 -9 10.1468
      vertex 4.92705 -9 11.2366
      vertex 63 -9 0
    endloop
  endfacet
  facet normal 0 -1 0
    outer loop
      vertex 19.9271 -9 11.2366
      vertex 18.4271 -9 10.1468
      vertex 63 -9 0
    endloop
  endfacet
  facet normal 0 -1 0
    outer loop
      vertex 15.0729 -9 14.7634
      vertex 3.42705 -9 15.8532
      vertex 14.5 -9 13
    endloop
  endfacet
  facet normal 0 -1 0
    outer loop
      vertex 16.5729 -9 15.8532
      vertex 3.42705 -9 15.8532
      vertex 15.0729 -9 14.7634
    endloop
  endfacet
  facet normal 0 -1 0
    outer loop
      vertex 63 -9 16
      vertex 3.42705 -9 15.8532
      vertex 16.5729 -9 15.8532
    endloop
  endfacet
  facet normal 0 -1 0
    outer loop
      vertex 63 -9 16
      vertex 16.5729 -9 15.8532
      vertex 18.4271 -9 15.8532
    endloop
  endfacet
  facet normal 0 -1 0
    outer loop
      vertex 30.0729 -9 14.7634
      vertex 31.5729 -9 15.8532
      vertex 19.9271 -9 14.7634
    endloop
  endfacet
  facet normal 0 -1 0
    outer loop
      vertex 31.5729 -9 10.1468
      vertex 20.5 -9 13
      vertex 63 -9 0
    endloop
  endfacet
  facet normal 0 -1 0
    outer loop
      vertex 33.4271 -9 15.8532
      vertex 34.9271 -9 14.7634
      vertex 46.5729 -9 15.8532
    endloop
  endfacet
  facet normal 0 -1 0
    outer loop
      vertex 4.92705 -9 14.7634
      vertex 5.5 -9 13
      vertex 15.0729 -9 11.2366
    endloop
  endfacet
  facet normal 0 -1 0
    outer loop
      vertex 35.5 -9 13
      vertex 34.9271 -9 11.2366
      vertex 44.5 -9 13
    endloop
  endfacet
  facet normal 0 -1 0
    outer loop
      vertex 16.5729 -9 10.1468
      vertex 15.0729 -9 11.2366
      vertex 5.5 -9 13
    endloop
  endfacet
  facet normal 0 -1 0
    outer loop
      vertex 29.5 -9 13
      vertex 20.5 -9 13
      vertex 30.0729 -9 11.2366
    endloop
  endfacet
  facet normal 0 -1 0
    outer loop
      vertex 29.5 -9 13
      vertex 30.0729 -9 14.7634
      vertex 20.5 -9 13
    endloop
  endfacet
  facet normal 0 -1 0
    outer loop
      vertex 19.9271 -9 14.7634
      vertex 20.5 -9 13
      vertex 30.0729 -9 14.7634
    endloop
  endfacet
  facet normal 0 -1 0
    outer loop
      vertex 63 -9 16
      vertex 18.4271 -9 15.8532
      vertex 31.5729 -9 15.8532
    endloop
  endfacet
  facet normal 0 -1 0
    outer loop
      vertex 63 -9 16
      vertex 31.5729 -9 15.8532
      vertex 33.4271 -9 15.8532
    endloop
  endfacet
  facet normal 0 -1 0
    outer loop
      vertex 45.0729 -9 11.2366
      vertex 44.5 -9 13
      vertex 34.9271 -9 11.2366
    endloop
  endfacet
  facet normal 0 -1 0
    outer loop
      vertex 46.5729 -9 10.1468
      vertex 34.9271 -9 11.2366
      vertex 63 -9 0
    endloop
  endfacet
  facet normal 0 -1 0
    outer loop
      vertex 34.9271 -9 11.2366
      vertex 33.4271 -9 10.1468
      vertex 63 -9 0
    endloop
  endfacet
  facet normal 0 -1 0
    outer loop
      vertex 30.0729 -9 11.2366
      vertex 20.5 -9 13
      vertex 31.5729 -9 10.1468
    endloop
  endfacet
  facet normal 0 -1 0
    outer loop
      vertex 44.5 -9 13
      vertex 45.0729 -9 14.7634
      vertex 35.5 -9 13
    endloop
  endfacet
  facet normal 0 -1 0
    outer loop
      vertex 50.5 -9 13
      vertex 49.9271 -9 11.2366
      vertex 63 -9 16
    endloop
  endfacet
  facet normal 0 -1 0
    outer loop
      vertex 33.4271 -9 10.1468
      vertex 31.5729 -9 10.1468
      vertex 63 -9 0
    endloop
  endfacet
  facet normal 0 -1 0
    outer loop
      vertex 34.9271 -9 14.7634
      vertex 35.5 -9 13
      vertex 45.0729 -9 14.7634
    endloop
  endfacet
  facet normal 0 -1 0
    outer loop
      vertex 20.5 -9 13
      vertex 19.9271 -9 11.2366
      vertex 63 -9 0
    endloop
  endfacet
  facet normal 0 -1 0
    outer loop
      vertex 49.9271 -9 14.7634
      vertex 50.5 -9 13
      vertex 63 -9 16
    endloop
  endfacet
  facet normal 0 -1 0
    outer loop
      vertex 63 -9 16
      vertex 33.4271 -9 15.8532
      vertex 46.5729 -9 15.8532
    endloop
  endfacet
  facet normal 0 -1 0
    outer loop
      vertex 63 -9 16
      vertex 46.5729 -9 15.8532
      vertex 48.4271 -9 15.8532
    endloop
  endfacet
  facet normal 0 -1 0
    outer loop
      vertex 45.0729 -9 14.7634
      vertex 46.5729 -9 15.8532
      vertex 34.9271 -9 14.7634
    endloop
  endfacet
  facet normal 0 -1 0
    outer loop
      vertex 48.4271 -9 10.1468
      vertex 46.5729 -9 10.1468
      vertex 63 -9 0
    endloop
  endfacet
  facet normal 0 -1 0
    outer loop
      vertex 63 -9 16
      vertex 49.9271 -9 11.2366
      vertex 63 -9 0
    endloop
  endfacet
  facet normal 0 -1 0
    outer loop
      vertex 49.9271 -9 11.2366
      vertex 48.4271 -9 10.1468
      vertex 63 -9 0
    endloop
  endfacet
  facet normal 0 -1 0
    outer loop
      vertex 45.0729 -9 11.2366
      vertex 34.9271 -9 11.2366
      vertex 46.5729 -9 10.1468
    endloop
  endfacet
  facet normal 0 -1 0
    outer loop
      vertex 5.5 -9 13
      vertex 4.92705 -9 11.2366
      vertex 16.5729 -9 10.1468
    endloop
  endfacet
  facet normal 0 -1 0
    outer loop
      vertex 0.072949 -9 14.7634
      vertex 1.57295 -9 15.8532
      vertex -3 -9 16
    endloop
  endfacet
  facet normal 0 -1 0
    outer loop
      vertex 15.0729 -9 11.2366
      vertex 3.42705 -9 15.8532
      vertex 4.92705 -9 14.7634
    endloop
  endfacet
  facet normal 0 -1 0
    outer loop
      vertex 15.0729 -9 11.2366
      vertex 14.5 -9 13
      vertex 3.42705 -9 15.8532
    endloop
  endfacet
  facet normal 0 -1 0
    outer loop
      vertex 18.4271 -9 15.8532
      vertex 19.9271 -9 14.7634
      vertex 31.5729 -9 15.8532
    endloop
  endfacet
  facet normal 0 0 -1
    outer loop
      vertex 31.247 -1.56366 0
      vertex 63 -9 0
      vertex 29.555 -1.94986 0
    endloop
  endfacet
  facet normal 0 0 -1
    outer loop
      vertex 29.555 1.94986 0
      vertex -3 6 0
      vertex 63 6 0
    endloop
  endfacet
  facet normal 0 0 -1
    outer loop
      vertex -3 -9 0
      vertex -3 6 0
      vertex -1.80194 0.867767 0
    endloop
  endfacet
  facet normal 0 0 -1
    outer loop
      vertex -3 -9 0
      vertex -1.80194 0.867767 0
      vertex -1.80194 -0.867767 0
    endloop
  endfacet
  facet normal 0 0 -1
    outer loop
      vertex -3 -9 0
      vertex -1.80194 -0.867767 0
      vertex -0.445042 -1.94986 0
    endloop
  endfacet
  facet normal 0 0 -1
    outer loop
      vertex -3 -9 0
      vertex -0.445042 -1.94986 0
      vertex 63 -9 0
    endloop
  endfacet
  facet normal 0 0 -1
    outer loop
      vertex -0.445042 -1.94986 0
      vertex 1.24698 -1.56366 0
      vertex 63 -9 0
    endloop
  endfacet
  facet normal 0 0 -1
    outer loop
      vertex 1.24698 1.56366 0
      vertex 63 -9 0
      vertex 2 0 0
    endloop
  endfacet
  facet normal 0 0 -1
    outer loop
      vertex -0.445042 1.94986 0
      vertex -3 6 0
      vertex 1.24698 1.56366 0
    endloop
  endfacet
  facet normal 0 0 -1
    outer loop
      vertex 28.1981 0.867767 0
      vertex -3 6 0
      vertex 29.555 1.94986 0
    endloop
  endfacet
  facet normal 0 0 -1
    outer loop
      vertex -1.80194 0.867767 0
      vertex -3 6 0
      vertex -0.445042 1.94986 0
    endloop
  endfacet
  facet normal 0 0 -1
    outer loop
      vertex 28.1981 -0.867767 0
      vertex -3 6 0
      vertex 28.1981 0.867767 0
    endloop
  endfacet
  facet normal 0 0 -1
    outer loop
      vertex 1.24698 1.56366 0
      vertex -3 6 0
      vertex 29.555 -1.94986 0
    endloop
  endfacet
  facet normal 0 0 -1
    outer loop
      vertex 1.24698 1.56366 0
      vertex 29.555 -1.94986 0
      vertex 63 -9 0
    endloop
  endfacet
  facet normal 0 0 -1
    outer loop
      vertex 32 0 0
      vertex 63 -9 0
      vertex 31.247 -1.56366 0
    endloop
  endfacet
  facet normal 0 0 -1
    outer loop
      vertex 31.247 1.56366 0
      vertex 63 6 0
      vertex 32 0 0
    endloop
  endfacet
  facet normal 0 0 -1
    outer loop
      vertex 58.1981 0.867767 0
      vertex 32 0 0
      vertex 63 6 0
    endloop
  endfacet
  facet normal 0 0 -1
    outer loop
      vertex 29.555 -1.94986 0
      vertex -3 6 0
      vertex 28.1981 -0.867767 0
    endloop
  endfacet
  facet normal 0 0 -1
    outer loop
      vertex 61.247 -1.56366 0
      vertex 63 -9 0
      vertex 59.555 -1.94986 0
    endloop
  endfacet
  facet normal 0 0 -1
    outer loop
      vertex 31.247 1.56366 0
      vertex 29.555 1.94986 0
      vertex 63 6 0
    endloop
  endfacet
  facet normal 0 0 -1
    outer loop
      vertex 58.1981 -0.867767 0
      vertex 32 0 0
      vertex 58.1981 0.867767 0
    endloop
  endfacet
  facet normal 0 0 -1
    outer loop
      vertex 59.555 1.94986 0
      vertex 58.1981 0.867767 0
      vertex 63 6 0
    endloop
  endfacet
  facet normal 0 0 -1
    outer loop
      vertex 63 -9 0
      vertex 32 0 0
      vertex 58.1981 -0.867767 0
    endloop
  endfacet
  facet normal 0 0 -1
    outer loop
      vertex 63 -9 0
      vertex 58.1981 -0.867767 0
      vertex 59.555 -1.94986 0
    endloop
  endfacet
  facet normal 0 0 -1
    outer loop
      vertex 61.247 1.56366 0
      vertex 63 6 0
      vertex 62 0 0
    endloop
  endfacet
  facet normal 0 0 -1
    outer loop
      vertex 63 -9 0
      vertex 61.247 -1.56366 0
      vertex 62 0 0
    endloop
  endfacet
  facet normal 0 0 -1
    outer loop
      vertex 63 -9 0
      vertex 62 0 0
      vertex 63 6 0
    endloop
  endfacet
  facet normal 0 0 -1
    outer loop
      vertex 61.247 1.56366 0
      vertex 59.555 1.94986 0
      vertex 63 6 0
    endloop
  endfacet
  facet normal 0 0 -1
    outer loop
      vertex 2 0 0
      vertex 63 -9 0
      vertex 1.24698 -1.56366 0
    endloop
  endfacet
  facet normal 0 1 0
    outer loop
      vertex -3 6 0
      vertex -3 6 3
      vertex 63 6 0
    endloop
  endfacet
  facet normal 0 1 0
    outer loop
      vertex 63 6 0
      vertex -3 6 3
      vertex 63 6 3
    endloop
  endfacet
  facet normal 0 0 1
    outer loop
      vertex 1.24698 -1.56366 3
      vertex -3 -6 3
      vertex 63 -6 3
    endloop
  endfacet
  facet normal 0 0 1
    outer loop
      vertex 31.247 1.56366 3
      vertex 58.1981 0.867767 3
      vertex 63 6 3
    endloop
  endfacet
  facet normal 0 0 1
    outer loop
      vertex -3 6 3
      vertex -3 -6 3
      vertex -1.80194 -0.867767 3
    endloop
  endfacet
  facet normal 0 0 1
    outer loop
      vertex 2 0 3
      vertex 1.24698 -1.56366 3
      vertex 63 -6 3
    endloop
  endfacet
  facet normal 0 0 1
    outer loop
      vertex -3 6 3
      vertex -1.80194 -0.867767 3
      vertex -1.80194 0.867767 3
    endloop
  endfacet
  facet normal 0 0 1
    outer loop
      vertex -3 6 3
      vertex -1.80194 0.867767 3
      vertex -0.445042 1.94986 3
    endloop
  endfacet
  facet normal 0 0 1
    outer loop
      vertex 28.1981 -0.867767 3
      vertex 28.1981 0.867767 3
      vertex -3 6 3
    endloop
  endfacet
  facet normal 0 0 1
    outer loop
      vertex 31.247 -1.56366 3
      vertex 29.555 -1.94986 3
      vertex 63 -6 3
    endloop
  endfacet
  facet normal 0 0 1
    outer loop
      vertex -0.445042 -1.94986 3
      vertex -3 -6 3
      vertex 1.24698 -1.56366 3
    endloop
  endfacet
  facet normal 0 0 1
    outer loop
      vertex -1.80194 -0.867767 3
      vertex -3 -6 3
      vertex -0.445042 -1.94986 3
    endloop
  endfacet
  facet normal 0 0 1
    outer loop
      vertex 31.247 1.56366 3
      vertex 58.1981 -0.867767 3
      vertex 58.1981 0.867767 3
    endloop
  endfacet
  facet normal 0 0 1
    outer loop
      vertex -3 6 3
      vertex -0.445042 1.94986 3
      vertex 28.1981 -0.867767 3
    endloop
  endfacet
  facet normal 0 0 1
    outer loop
      vertex 32 0 3
      vertex 31.247 -1.56366 3
      vertex 63 -6 3
    endloop
  endfacet
  facet normal 0 0 1
    outer loop
      vertex 29.555 1.94986 3
      vertex -3 6 3
      vertex 28.1981 0.867767 3
    endloop
  endfacet
  facet normal 0 0 1
    outer loop
      vertex 63 6 3
      vertex -3 6 3
      vertex 29.555 1.94986 3
    endloop
  endfacet
  facet normal 0 0 1
    outer loop
      vertex 63 6 3
      vertex 29.555 1.94986 3
      vertex 31.247 1.56366 3
    endloop
  endfacet
  facet normal 0 0 1
    outer loop
      vertex 59.555 1.94986 3
      vertex 61.247 1.56366 3
      vertex 63 6 3
    endloop
  endfacet
  facet normal 0 0 1
    outer loop
      vertex 31.247 1.56366 3
      vertex 63 -6 3
      vertex 58.1981 -0.867767 3
    endloop
  endfacet
  facet normal 0 0 1
    outer loop
      vertex 29.555 -1.94986 3
      vertex -0.445042 1.94986 3
      vertex 1.24698 1.56366 3
    endloop
  endfacet
  facet normal 0 0 1
    outer loop
      vertex 59.555 -1.94986 3
      vertex 58.1981 -0.867767 3
      vertex 63 -6 3
    endloop
  endfacet
  facet normal 0 0 1
    outer loop
      vertex 62 0 3
      vertex 61.247 -1.56366 3
      vertex 63 -6 3
    endloop
  endfacet
  facet normal 0 0 1
    outer loop
      vertex 63 6 3
      vertex 58.1981 0.867767 3
      vertex 59.555 1.94986 3
    endloop
  endfacet
  facet normal 0 0 1
    outer loop
      vertex 63 6 3
      vertex 62 0 3
      vertex 63 -6 3
    endloop
  endfacet
  facet normal 0 0 1
    outer loop
      vertex 63 6 3
      vertex 61.247 1.56366 3
      vertex 62 0 3
    endloop
  endfacet
  facet normal 0 0 1
    outer loop
      vertex 61.247 -1.56366 3
      vertex 59.555 -1.94986 3
      vertex 63 -6 3
    endloop
  endfacet
  facet normal 0 0 1
    outer loop
      vertex 29.555 -1.94986 3
      vertex 2 0 3
      vertex 63 -6 3
    endloop
  endfacet
  facet normal 0 0 1
    outer loop
      vertex 1.24698 1.56366 3
      vertex 2 0 3
      vertex 29.555 -1.94986 3
    endloop
  endfacet
  facet normal 0 0 1
    outer loop
      vertex 29.555 -1.94986 3
      vertex 28.1981 -0.867767 3
      vertex -0.445042 1.94986 3
    endloop
  endfacet
  facet normal 0 0 1
    outer loop
      vertex 31.247 1.56366 3
      vertex 32 0 3
      vertex 63 -6 3
    endloop
  endfacet
  facet normal 0 1 0
    outer loop
      vertex 3.42705 -6 15.8532
      vertex -3 -6 16
      vertex 63 -6 16
    endloop
  endfacet
  facet normal 0 1 0
    outer loop
      vertex -3 -6 3
      vertex -3 -6 16
      vertex -0.5 -6 13
    endloop
  endfacet
  facet normal 0 1 0
    outer loop
      vertex 31.5729 -6 10.1468
      vertex 63 -6 3
      vertex 19.9271 -6 11.2366
    endloop
  endfacet
  facet normal 0 1 0
    outer loop
      vertex -3 -6 3
      vertex -0.5 -6 13
      vertex 0.072949 -6 11.2366
    endloop
  endfacet
  facet normal 0 1 0
    outer loop
      vertex 18.4271 -6 10.1468
      vertex 63 -6 3
      vertex 16.5729 -6 10.1468
    endloop
  endfacet
  facet normal 0 1 0
    outer loop
      vertex -3 -6 3
      vertex 0.072949 -6 11.2366
      vertex 1.57295 -6 10.1468
    endloop
  endfacet
  facet normal 0 1 0
    outer loop
      vertex -3 -6 3
      vertex 1.57295 -6 10.1468
      vertex 63 -6 3
    endloop
  endfacet
  facet normal 0 1 0
    outer loop
      vertex 1.57295 -6 10.1468
      vertex 3.42705 -6 10.1468
      vertex 63 -6 3
    endloop
  endfacet
  facet normal 0 1 0
    outer loop
      vertex 15.0729 -6 11.2366
      vertex 5.5 -6 13
      vertex 4.92705 -6 14.7634
    endloop
  endfacet
  facet normal 0 1 0
    outer loop
      vertex 16.5729 -6 10.1468
      vertex 5.5 -6 13
      vertex 15.0729 -6 11.2366
    endloop
  endfacet
  facet normal 0 1 0
    outer loop
      vertex 0.072949 -6 14.7634
      vertex -3 -6 16
      vertex 1.57295 -6 15.8532
    endloop
  endfacet
  facet normal 0 1 0
    outer loop
      vertex 1.57295 -6 15.8532
      vertex -3 -6 16
      vertex 3.42705 -6 15.8532
    endloop
  endfacet
  facet normal 0 1 0
    outer loop
      vertex 16.5729 -6 15.8532
      vertex 3.42705 -6 15.8532
      vertex 63 -6 16
    endloop
  endfacet
  facet normal 0 1 0
    outer loop
      vertex -0.5 -6 13
      vertex -3 -6 16
      vertex 0.072949 -6 14.7634
    endloop
  endfacet
  facet normal 0 1 0
    outer loop
      vertex 48.4271 -6 15.8532
      vertex 63 -6 16
      vertex 49.9271 -6 14.7634
    endloop
  endfacet
  facet normal 0 1 0
    outer loop
      vertex 19.9271 -6 14.7634
      vertex 30.0729 -6 14.7634
      vertex 20.5 -6 13
    endloop
  endfacet
  facet normal 0 1 0
    outer loop
      vertex 20.5 -6 13
      vertex 31.5729 -6 10.1468
      vertex 19.9271 -6 11.2366
    endloop
  endfacet
  facet normal 0 1 0
    outer loop
      vertex 4.92705 -6 11.2366
      vertex 16.5729 -6 10.1468
      vertex 63 -6 3
    endloop
  endfacet
  facet normal 0 1 0
    outer loop
      vertex 15.0729 -6 11.2366
      vertex 4.92705 -6 14.7634
      vertex 14.5 -6 13
    endloop
  endfacet
  facet normal 0 1 0
    outer loop
      vertex 31.5729 -6 10.1468
      vertex 20.5 -6 13
      vertex 30.0729 -6 11.2366
    endloop
  endfacet
  facet normal 0 1 0
    outer loop
      vertex 31.5729 -6 15.8532
      vertex 18.4271 -6 15.8532
      vertex 63 -6 16
    endloop
  endfacet
  facet normal 0 1 0
    outer loop
      vertex 4.92705 -6 14.7634
      vertex 3.42705 -6 15.8532
      vertex 16.5729 -6 15.8532
    endloop
  endfacet
  facet normal 0 1 0
    outer loop
      vertex 18.4271 -6 15.8532
      vertex 16.5729 -6 15.8532
      vertex 63 -6 16
    endloop
  endfacet
  facet normal 0 1 0
    outer loop
      vertex 14.5 -6 13
      vertex 4.92705 -6 14.7634
      vertex 15.0729 -6 14.7634
    endloop
  endfacet
  facet normal 0 1 0
    outer loop
      vertex 30.0729 -6 11.2366
      vertex 20.5 -6 13
      vertex 29.5 -6 13
    endloop
  endfacet
  facet normal 0 1 0
    outer loop
      vertex 33.4271 -6 15.8532
      vertex 46.5729 -6 15.8532
      vertex 34.9271 -6 14.7634
    endloop
  endfacet
  facet normal 0 1 0
    outer loop
      vertex 34.9271 -6 14.7634
      vertex 45.0729 -6 14.7634
      vertex 35.5 -6 13
    endloop
  endfacet
  facet normal 0 1 0
    outer loop
      vertex 34.9271 -6 11.2366
      vertex 63 -6 3
      vertex 33.4271 -6 10.1468
    endloop
  endfacet
  facet normal 0 1 0
    outer loop
      vertex 35.5 -6 13
      vertex 63 -6 3
      vertex 34.9271 -6 11.2366
    endloop
  endfacet
  facet normal 0 1 0
    outer loop
      vertex 48.4271 -6 10.1468
      vertex 63 -6 3
      vertex 46.5729 -6 10.1468
    endloop
  endfacet
  facet normal 0 1 0
    outer loop
      vertex 30.0729 -6 14.7634
      vertex 19.9271 -6 14.7634
      vertex 31.5729 -6 15.8532
    endloop
  endfacet
  facet normal 0 1 0
    outer loop
      vertex 46.5729 -6 15.8532
      vertex 33.4271 -6 15.8532
      vertex 63 -6 16
    endloop
  endfacet
  facet normal 0 1 0
    outer loop
      vertex 15.0729 -6 14.7634
      vertex 4.92705 -6 14.7634
      vertex 16.5729 -6 15.8532
    endloop
  endfacet
  facet normal 0 1 0
    outer loop
      vertex 33.4271 -6 15.8532
      vertex 31.5729 -6 15.8532
      vertex 63 -6 16
    endloop
  endfacet
  facet normal 0 1 0
    outer loop
      vertex 45.0729 -6 11.2366
      vertex 35.5 -6 13
      vertex 44.5 -6 13
    endloop
  endfacet
  facet normal 0 1 0
    outer loop
      vertex 46.5729 -6 10.1468
      vertex 35.5 -6 13
      vertex 45.0729 -6 11.2366
    endloop
  endfacet
  facet normal 0 1 0
    outer loop
      vertex 63 -6 3
      vertex 35.5 -6 13
      vertex 46.5729 -6 10.1468
    endloop
  endfacet
  facet normal 0 1 0
    outer loop
      vertex 49.9271 -6 11.2366
      vertex 63 -6 3
      vertex 48.4271 -6 10.1468
    endloop
  endfacet
  facet normal 0 1 0
    outer loop
      vertex 49.9271 -6 14.7634
      vertex 63 -6 16
      vertex 50.5 -6 13
    endloop
  endfacet
  facet normal 0 1 0
    outer loop
      vertex 63 -6 3
      vertex 49.9271 -6 11.2366
      vertex 63 -6 16
    endloop
  endfacet
  facet normal 0 1 0
    outer loop
      vertex 49.9271 -6 11.2366
      vertex 50.5 -6 13
      vertex 63 -6 16
    endloop
  endfacet
  facet normal 0 1 0
    outer loop
      vertex 44.5 -6 13
      vertex 35.5 -6 13
      vertex 45.0729 -6 14.7634
    endloop
  endfacet
  facet normal 0 1 0
    outer loop
      vertex 45.0729 -6 14.7634
      vertex 34.9271 -6 14.7634
      vertex 46.5729 -6 15.8532
    endloop
  endfacet
  facet normal 0 1 0
    outer loop
      vertex 48.4271 -6 15.8532
      vertex 46.5729 -6 15.8532
      vertex 63 -6 16
    endloop
  endfacet
  facet normal 0 1 0
    outer loop
      vertex 18.4271 -6 15.8532
      vertex 31.5729 -6 15.8532
      vertex 19.9271 -6 14.7634
    endloop
  endfacet
  facet normal 0 1 0
    outer loop
      vertex 33.4271 -6 10.1468
      vertex 63 -6 3
      vertex 31.5729 -6 10.1468
    endloop
  endfacet
  facet normal 0 1 0
    outer loop
      vertex 4.92705 -6 11.2366
      vertex 63 -6 3
      vertex 3.42705 -6 10.1468
    endloop
  endfacet
  facet normal 0 1 0
    outer loop
      vertex 19.9271 -6 11.2366
      vertex 63 -6 3
      vertex 18.4271 -6 10.1468
    endloop
  endfacet
  facet normal 0 1 0
    outer loop
      vertex 5.5 -6 13
      vertex 16.5729 -6 10.1468
      vertex 4.92705 -6 11.2366
    endloop
  endfacet
  facet normal 0 1 0
    outer loop
      vertex 29.5 -6 13
      vertex 20.5 -6 13
      vertex 30.0729 -6 14.7634
    endloop
  endfacet
  facet normal 0 0 1
    outer loop
      vertex -3 -6 16
      vertex -3 -9 16
      vertex 63 -9 16
    endloop
  endfacet
  facet normal 0 0 1
    outer loop
      vertex 63 -6 16
      vertex -3 -6 16
      vertex 63 -9 16
    endloop
  endfacet
  facet normal 1 0 0
    outer loop
      vertex 63 -6 3
      vertex 63 -9 0
      vertex 63 6 0
    endloop
  endfacet
  facet normal 1 0 0
    outer loop
      vertex 63 -6 3
      vertex 63 -6 16
      vertex 63 -9 16
    endloop
  endfacet
  facet normal 1 0 0
    outer loop
      vertex 63 -9 16
      vertex 63 -9 0
      vertex 63 -6 3
    endloop
  endfacet
  facet normal 1 0 0
    outer loop
      vertex 63 6 3
      vertex 63 -6 3
      vertex 63 6 0
    endloop
  endfacet
  facet normal 0.951057 6.86155e-17 0.309017
    outer loop
      vertex 0.072949 -9 11.2366
      vertex 0.072949 -6 11.2366
      vertex -0.5 -6 13
    endloop
  endfacet
  facet normal 0.951057 6.86155e-17 0.309017
    outer loop
      vertex -0.5 -9 13
      vertex 0.072949 -9 11.2366
      vertex -0.5 -6 13
    endloop
  endfacet
  facet normal 0.587785 1.79638e-16 0.809017
    outer loop
      vertex 1.57295 -9 10.1468
      vertex 1.57295 -6 10.1468
      vertex 0.072949 -6 11.2366
    endloop
  endfacet
  facet normal 0.587785 1.79638e-16 0.809017
    outer loop
      vertex 0.072949 -9 11.2366
      vertex 1.57295 -9 10.1468
      vertex 0.072949 -6 11.2366
    endloop
  endfacet
  facet normal 0 2.22045e-16 1
    outer loop
      vertex 3.42705 -9 10.1468
      vertex 3.42705 -6 10.1468
      vertex 1.57295 -6 10.1468
    endloop
  endfacet
  facet normal 0 2.22045e-16 1
    outer loop
      vertex 1.57295 -9 10.1468
      vertex 3.42705 -9 10.1468
      vertex 1.57295 -6 10.1468
    endloop
  endfacet
  facet normal -0.587785 1.79638e-16 0.809017
    outer loop
      vertex 4.92705 -9 11.2366
      vertex 4.92705 -6 11.2366
      vertex 3.42705 -6 10.1468
    endloop
  endfacet
  facet normal -0.587785 1.79638e-16 0.809017
    outer loop
      vertex 3.42705 -9 10.1468
      vertex 4.92705 -9 11.2366
      vertex 3.42705 -6 10.1468
    endloop
  endfacet
  facet normal -0.951057 6.86155e-17 0.309017
    outer loop
      vertex 5.5 -6 13
      vertex 4.92705 -6 11.2366
      vertex 5.5 -9 13
    endloop
  endfacet
  facet normal -0.951057 6.86155e-17 0.309017
    outer loop
      vertex 5.5 -9 13
      vertex 4.92705 -6 11.2366
      vertex 4.92705 -9 11.2366
    endloop
  endfacet
  facet normal -0.951057 -6.86155e-17 -0.309017
    outer loop
      vertex 5.5 -6 13
      vertex 5.5 -9 13
      vertex 4.92705 -6 14.7634
    endloop
  endfacet
  facet normal -0.951057 -6.86155e-17 -0.309017
    outer loop
      vertex 4.92705 -6 14.7634
      vertex 5.5 -9 13
      vertex 4.92705 -9 14.7634
    endloop
  endfacet
  facet normal -0.587785 -1.79638e-16 -0.809017
    outer loop
      vertex 4.92705 -6 14.7634
      vertex 4.92705 -9 14.7634
      vertex 3.42705 -6 15.8532
    endloop
  endfacet
  facet normal -0.587785 -1.79638e-16 -0.809017
    outer loop
      vertex 3.42705 -6 15.8532
      vertex 4.92705 -9 14.7634
      vertex 3.42705 -9 15.8532
    endloop
  endfacet
  facet normal 0 -2.22045e-16 -1
    outer loop
      vertex 3.42705 -6 15.8532
      vertex 3.42705 -9 15.8532
      vertex 1.57295 -6 15.8532
    endloop
  endfacet
  facet normal 0 -2.22045e-16 -1
    outer loop
      vertex 1.57295 -6 15.8532
      vertex 3.42705 -9 15.8532
      vertex 1.57295 -9 15.8532
    endloop
  endfacet
  facet normal 0.587785 -1.79638e-16 -0.809017
    outer loop
      vertex 1.57295 -6 15.8532
      vertex 1.57295 -9 15.8532
      vertex 0.072949 -6 14.7634
    endloop
  endfacet
  facet normal 0.587785 -1.79638e-16 -0.809017
    outer loop
      vertex 0.072949 -6 14.7634
      vertex 1.57295 -9 15.8532
      vertex 0.072949 -9 14.7634
    endloop
  endfacet
  facet normal 0.951057 -6.86155e-17 -0.309017
    outer loop
      vertex -0.5 -6 13
      vertex 0.072949 -6 14.7634
      vertex 0.072949 -9 14.7634
    endloop
  endfacet
  facet normal 0.951057 -6.86155e-17 -0.309017
    outer loop
      vertex -0.5 -9 13
      vertex -0.5 -6 13
      vertex 0.072949 -9 14.7634
    endloop
  endfacet
  facet normal 0.951057 6.86155e-17 0.309017
    outer loop
      vertex 15.0729 -9 11.2366
      vertex 15.0729 -6 11.2366
      vertex 14.5 -6 13
    endloop
  endfacet
  facet normal 0.951057 6.86155e-17 0.309017
    outer loop
      vertex 14.5 -9 13
      vertex 15.0729 -9 11.2366
      vertex 14.5 -6 13
    endloop
  endfacet
  facet normal 0.587785 1.79638e-16 0.809017
    outer loop
      vertex 16.5729 -9 10.1468
      vertex 16.5729 -6 10.1468
      vertex 15.0729 -6 11.2366
    endloop
  endfacet
  facet normal 0.587785 1.79638e-16 0.809017
    outer loop
      vertex 15.0729 -9 11.2366
      vertex 16.5729 -9 10.1468
      vertex 15.0729 -6 11.2366
    endloop
  endfacet
  facet normal 0 2.22045e-16 1
    outer loop
      vertex 18.4271 -9 10.1468
      vertex 18.4271 -6 10.1468
      vertex 16.5729 -6 10.1468
    endloop
  endfacet
  facet normal 0 2.22045e-16 1
    outer loop
      vertex 16.5729 -9 10.1468
      vertex 18.4271 -9 10.1468
      vertex 16.5729 -6 10.1468
    endloop
  endfacet
  facet normal -0.587785 1.79638e-16 0.809017
    outer loop
      vertex 19.9271 -9 11.2366
      vertex 19.9271 -6 11.2366
      vertex 18.4271 -6 10.1468
    endloop
  endfacet
  facet normal -0.587785 1.79638e-16 0.809017
    outer loop
      vertex 18.4271 -9 10.1468
      vertex 19.9271 -9 11.2366
      vertex 18.4271 -6 10.1468
    endloop
  endfacet
  facet normal -0.951057 6.86155e-17 0.309017
    outer loop
      vertex 20.5 -6 13
      vertex 19.9271 -6 11.2366
      vertex 20.5 -9 13
    endloop
  endfacet
  facet normal -0.951057 6.86155e-17 0.309017
    outer loop
      vertex 20.5 -9 13
      vertex 19.9271 -6 11.2366
      vertex 19.9271 -9 11.2366
    endloop
  endfacet
  facet normal -0.951057 -6.86155e-17 -0.309017
    outer loop
      vertex 20.5 -6 13
      vertex 20.5 -9 13
      vertex 19.9271 -6 14.7634
    endloop
  endfacet
  facet normal -0.951057 -6.86155e-17 -0.309017
    outer loop
      vertex 19.9271 -6 14.7634
      vertex 20.5 -9 13
      vertex 19.9271 -9 14.7634
    endloop
  endfacet
  facet normal -0.587785 -1.79638e-16 -0.809017
    outer loop
      vertex 19.9271 -6 14.7634
      vertex 19.9271 -9 14.7634
      vertex 18.4271 -6 15.8532
    endloop
  endfacet
  facet normal -0.587785 -1.79638e-16 -0.809017
    outer loop
      vertex 18.4271 -6 15.8532
      vertex 19.9271 -9 14.7634
      vertex 18.4271 -9 15.8532
    endloop
  endfacet
  facet normal 0 -2.22045e-16 -1
    outer loop
      vertex 18.4271 -6 15.8532
      vertex 18.4271 -9 15.8532
      vertex 16.5729 -6 15.8532
    endloop
  endfacet
  facet normal 0 -2.22045e-16 -1
    outer loop
      vertex 16.5729 -6 15.8532
      vertex 18.4271 -9 15.8532
      vertex 16.5729 -9 15.8532
    endloop
  endfacet
  facet normal 0.587785 -1.79638e-16 -0.809017
    outer loop
      vertex 16.5729 -6 15.8532
      vertex 16.5729 -9 15.8532
      vertex 15.0729 -6 14.7634
    endloop
  endfacet
  facet normal 0.587785 -1.79638e-16 -0.809017
    outer loop
      vertex 15.0729 -6 14.7634
      vertex 16.5729 -9 15.8532
      vertex 15.0729 -9 14.7634
    endloop
  endfacet
  facet normal 0.951057 -6.86155e-17 -0.309017
    outer loop
      vertex 14.5 -6 13
      vertex 15.0729 -6 14.7634
      vertex 15.0729 -9 14.7634
    endloop
  endfacet
  facet normal 0.951057 -6.86155e-17 -0.309017
    outer loop
      vertex 14.5 -9 13
      vertex 14.5 -6 13
      vertex 15.0729 -9 14.7634
    endloop
  endfacet
  facet normal 0.951057 6.86155e-17 0.309017
    outer loop
      vertex 30.0729 -9 11.2366
      vertex 30.0729 -6 11.2366
      vertex 29.5 -6 13
    endloop
  endfacet
  facet normal 0.951057 6.86155e-17 0.309017
    outer loop
      vertex 29.5 -9 13
      vertex 30.0729 -9 11.2366
      vertex 29.5 -6 13
    endloop
  endfacet
  facet normal 0.587785 1.79638e-16 0.809017
    outer loop
      vertex 31.5729 -9 10.1468
      vertex 31.5729 -6 10.1468
      vertex 30.0729 -6 11.2366
    endloop
  endfacet
  facet normal 0.587785 1.79638e-16 0.809017
    outer loop
      vertex 30.0729 -9 11.2366
      vertex 31.5729 -9 10.1468
      vertex 30.0729 -6 11.2366
    endloop
  endfacet
  facet normal 0 2.22045e-16 1
    outer loop
      vertex 33.4271 -9 10.1468
      vertex 33.4271 -6 10.1468
      vertex 31.5729 -6 10.1468
    endloop
  endfacet
  facet normal 0 2.22045e-16 1
    outer loop
      vertex 31.5729 -9 10.1468
      vertex 33.4271 -9 10.1468
      vertex 31.5729 -6 10.1468
    endloop
  endfacet
  facet normal -0.587785 1.79638e-16 0.809017
    outer loop
      vertex 34.9271 -9 11.2366
      vertex 34.9271 -6 11.2366
      vertex 33.4271 -6 10.1468
    endloop
  endfacet
  facet normal -0.587785 1.79638e-16 0.809017
    outer loop
      vertex 33.4271 -9 10.1468
      vertex 34.9271 -9 11.2366
      vertex 33.4271 -6 10.1468
    endloop
  endfacet
  facet normal -0.951057 6.86155e-17 0.309017
    outer loop
      vertex 35.5 -6 13
      vertex 34.9271 -6 11.2366
      vertex 35.5 -9 13
    endloop
  endfacet
  facet normal -0.951057 6.86155e-17 0.309017
    outer loop
      vertex 35.5 -9 13
      vertex 34.9271 -6 11.2366
      vertex 34.9271 -9 11.2366
    endloop
  endfacet
  facet normal -0.951057 -6.86155e-17 -0.309017
    outer loop
      vertex 35.5 -6 13
      vertex 35.5 -9 13
      vertex 34.9271 -6 14.7634
    endloop
  endfacet
  facet normal -0.951057 -6.86155e-17 -0.309017
    outer loop
      vertex 34.9271 -6 14.7634
      vertex 35.5 -9 13
      vertex 34.9271 -9 14.7634
    endloop
  endfacet
  facet normal -0.587785 -1.79638e-16 -0.809017
    outer loop
      vertex 34.9271 -6 14.7634
      vertex 34.9271 -9 14.7634
      vertex 33.4271 -6 15.8532
    endloop
  endfacet
  facet normal -0.587785 -1.79638e-16 -0.809017
    outer loop
      vertex 33.4271 -6 15.8532
      vertex 34.9271 -9 14.7634
      vertex 33.4271 -9 15.8532
    endloop
  endfacet
  facet normal 0 -2.22045e-16 -1
    outer loop
      vertex 33.4271 -6 15.8532
      vertex 33.4271 -9 15.8532
      vertex 31.5729 -6 15.8532
    endloop
  endfacet
  facet normal 0 -2.22045e-16 -1
    outer loop
      vertex 31.5729 -6 15.8532
      vertex 33.4271 -9 15.8532
      vertex 31.5729 -9 15.8532
    endloop
  endfacet
  facet normal 0.587785 -1.79638e-16 -0.809017
    outer loop
      vertex 31.5729 -6 15.8532
      vertex 31.5729 -9 15.8532
      vertex 30.0729 -6 14.7634
    endloop
  endfacet
  facet normal 0.587785 -1.79638e-16 -0.809017
    outer loop
      vertex 30.0729 -6 14.7634
      vertex 31.5729 -9 15.8532
      vertex 30.0729 -9 14.7634
    endloop
  endfacet
  facet normal 0.951057 -6.86155e-17 -0.309017
    outer loop
      vertex 29.5 -6 13
      vertex 30.0729 -6 14.7634
      vertex 30.0729 -9 14.7634
    endloop
  endfacet
  facet normal 0.951057 -6.86155e-17 -0.309017
    outer loop
      vertex 29.5 -9 13
      vertex 29.5 -6 13
      vertex 30.0729 -9 14.7634
    endloop
  endfacet
  facet normal 0.951057 6.86155e-17 0.309017
    outer loop
      vertex 45.0729 -9 11.2366
      vertex 45.0729 -6 11.2366
      vertex 44.5 -6 13
    endloop
  endfacet
  facet normal 0.951057 6.86155e-17 0.309017
    outer loop
      vertex 44.5 -9 13
      vertex 45.0729 -9 11.2366
      vertex 44.5 -6 13
    endloop
  endfacet
  facet normal 0.587785 1.79638e-16 0.809017
    outer loop
      vertex 46.5729 -9 10.1468
      vertex 46.5729 -6 10.1468
      vertex 45.0729 -6 11.2366
    endloop
  endfacet
  facet normal 0.587785 1.79638e-16 0.809017
    outer loop
      vertex 45.0729 -9 11.2366
      vertex 46.5729 -9 10.1468
      vertex 45.0729 -6 11.2366
    endloop
  endfacet
  facet normal 0 2.22045e-16 1
    outer loop
      vertex 48.4271 -9 10.1468
      vertex 48.4271 -6 10.1468
      vertex 46.5729 -6 10.1468
    endloop
  endfacet
  facet normal 0 2.22045e-16 1
    outer loop
      vertex 46.5729 -9 10.1468
      vertex 48.4271 -9 10.1468
      vertex 46.5729 -6 10.1468
    endloop
  endfacet
  facet normal -0.587785 1.79638e-16 0.809017
    outer loop
      vertex 49.9271 -9 11.2366
      vertex 49.9271 -6 11.2366
      vertex 48.4271 -6 10.1468
    endloop
  endfacet
  facet normal -0.587785 1.79638e-16 0.809017
    outer loop
      vertex 48.4271 -9 10.1468
      vertex 49.9271 -9 11.2366
      vertex 48.4271 -6 10.1468
    endloop
  endfacet
  facet normal -0.951057 6.86155e-17 0.309017
    outer loop
      vertex 50.5 -6 13
      vertex 49.9271 -6 11.2366
      vertex 50.5 -9 13
    endloop
  endfacet
  facet normal -0.951057 6.86155e-17 0.309017
    outer loop
      vertex 50.5 -9 13
      vertex 49.9271 -6 11.2366
      vertex 49.9271 -9 11.2366
    endloop
  endfacet
  facet normal -0.951057 -6.86155e-17 -0.309017
    outer loop
      vertex 50.5 -6 13
      vertex 50.5 -9 13
      vertex 49.9271 -6 14.7634
    endloop
  endfacet
  facet normal -0.951057 -6.86155e-17 -0.309017
    outer loop
      vertex 49.9271 -6 14.7634
      vertex 50.5 -9 13
      vertex 49.9271 -9 14.7634
    endloop
  endfacet
  facet normal -0.587785 -1.79638e-16 -0.809017
    outer loop
      vertex 49.9271 -6 14.7634
      vertex 49.9271 -9 14.7634
      vertex 48.4271 -6 15.8532
    endloop
  endfacet
  facet normal -0.587785 -1.79638e-16 -0.809017
    outer loop
      vertex 48.4271 -6 15.8532
      vertex 49.9271 -9 14.7634
      vertex 48.4271 -9 15.8532
    endloop
  endfacet
  facet normal 0 -2.22045e-16 -1
    outer loop
      vertex 48.4271 -6 15.8532
      vertex 48.4271 -9 15.8532
      vertex 46.5729 -6 15.8532
    endloop
  endfacet
  facet normal 0 -2.22045e-16 -1
    outer loop
      vertex 46.5729 -6 15.8532
      vertex 48.4271 -9 15.8532
      vertex 46.5729 -9 15.8532
    endloop
  endfacet
  facet normal 0.587785 -1.79638e-16 -0.809017
    outer loop
      vertex 46.5729 -6 15.8532
      vertex 46.5729 -9 15.8532
      vertex 45.0729 -6 14.7634
    endloop
  endfacet
  facet normal 0.587785 -1.79638e-16 -0.809017
    outer loop
      vertex 45.0729 -6 14.7634
      vertex 46.5729 -9 15.8532
      vertex 45.0729 -9 14.7634
    endloop
  endfacet
  facet normal 0.951057 -6.86155e-17 -0.309017
    outer loop
      vertex 44.5 -6 13
      vertex 45.0729 -6 14.7634
      vertex 45.0729 -9 14.7634
    endloop
  endfacet
  facet normal 0.951057 -6.86155e-17 -0.309017
    outer loop
      vertex 44.5 -9 13
      vertex 44.5 -6 13
      vertex 45.0729 -9 14.7634
    endloop
  endfacet
  facet normal 0.62349 -0.781831 0
    outer loop
      vertex -0.445042 1.94986 0
      vertex -0.445042 1.94986 3
      vertex -1.80194 0.867767 3
    endloop
  endfacet
  facet normal 0.62349 -0.781831 0
    outer loop
      vertex -1.80194 0.867767 0
      vertex -0.445042 1.94986 0
      vertex -1.80194 0.867767 3
    endloop
  endfacet
  facet normal 1 0 0
    outer loop
      vertex -1.80194 0.867767 0
      vertex -1.80194 0.867767 3
      vertex -1.80194 -0.867767 3
    endloop
  endfacet
  facet normal 1 0 0
    outer loop
      vertex -1.80194 -0.867767 0
      vertex -1.80194 0.867767 0
      vertex -1.80194 -0.867767 3
    endloop
  endfacet
  facet normal -0.222521 -0.974928 0
    outer loop
      vertex 1.24698 1.56366 0
      vertex 1.24698 1.56366 3
      vertex -0.445042 1.94986 3
    endloop
  endfacet
  facet normal -0.222521 -0.974928 0
    outer loop
      vertex -0.445042 1.94986 0
      vertex 1.24698 1.56366 0
      vertex -0.445042 1.94986 3
    endloop
  endfacet
  facet normal -0.900969 -0.433884 0
    outer loop
      vertex 2 0 3
      vertex 1.24698 1.56366 3
      vertex 2 0 0
    endloop
  endfacet
  facet normal -0.900969 -0.433884 0
    outer loop
      vertex 2 0 0
      vertex 1.24698 1.56366 3
      vertex 1.24698 1.56366 0
    endloop
  endfacet
  facet normal -0.900969 0.433884 0
    outer loop
      vertex 2 0 3
      vertex 2 0 0
      vertex 1.24698 -1.56366 3
    endloop
  endfacet
  facet normal -0.900969 0.433884 0
    outer loop
      vertex 1.24698 -1.56366 3
      vertex 2 0 0
      vertex 1.24698 -1.56366 0
    endloop
  endfacet
  facet normal -0.222521 0.974928 0
    outer loop
      vertex 1.24698 -1.56366 3
      vertex 1.24698 -1.56366 0
      vertex -0.445042 -1.94986 3
    endloop
  endfacet
  facet normal -0.222521 0.974928 0
    outer loop
      vertex -0.445042 -1.94986 3
      vertex 1.24698 -1.56366 0
      vertex -0.445042 -1.94986 0
    endloop
  endfacet
  facet normal 0.62349 0.781831 0
    outer loop
      vertex -0.445042 -1.94986 3
      vertex -0.445042 -1.94986 0
      vertex -1.80194 -0.867767 3
    endloop
  endfacet
  facet normal 0.62349 0.781831 0
    outer loop
      vertex -1.80194 -0.867767 3
      vertex -0.445042 -1.94986 0
      vertex -1.80194 -0.867767 0
    endloop
  endfacet
  facet normal 0.62349 -0.781831 0
    outer loop
      vertex 29.555 1.94986 0
      vertex 29.555 1.94986 3
      vertex 28.1981 0.867767 3
    endloop
  endfacet
  facet normal 0.62349 -0.781831 0
    outer loop
      vertex 28.1981 0.867767 0
      vertex 29.555 1.94986 0
      vertex 28.1981 0.867767 3
    endloop
  endfacet
  facet normal 1 0 0
    outer loop
      vertex 28.1981 0.867767 0
      vertex 28.1981 0.867767 3
      vertex 28.1981 -0.867767 3
    endloop
  endfacet
  facet normal 1 0 0
    outer loop
      vertex 28.1981 -0.867767 0
      vertex 28.1981 0.867767 0
      vertex 28.1981 -0.867767 3
    endloop
  endfacet
  facet normal -0.222521 -0.974928 0
    outer loop
      vertex 31.247 1.56366 0
      vertex 31.247 1.56366 3
      vertex 29.555 1.94986 3
    endloop
  endfacet
  facet normal -0.222521 -0.974928 0
    outer loop
      vertex 29.555 1.94986 0
      vertex 31.247 1.56366 0
      vertex 29.555 1.94986 3
    endloop
  endfacet
  facet normal -0.900969 -0.433884 0
    outer loop
      vertex 32 0 3
      vertex 31.247 1.56366 3
      vertex 32 0 0
    endloop
  endfacet
  facet normal -0.900969 -0.433884 0
    outer loop
      vertex 32 0 0
      vertex 31.247 1.56366 3
      vertex 31.247 1.56366 0
    endloop
  endfacet
  facet normal -0.900969 0.433884 0
    outer loop
      vertex 32 0 3
      vertex 32 0 0
      vertex 31.247 -1.56366 3
    endloop
  endfacet
  facet normal -0.900969 0.433884 0
    outer loop
      vertex 31.247 -1.56366 3
      vertex 32 0 0
      vertex 31.247 -1.56366 0
    endloop
  endfacet
  facet normal -0.222521 0.974928 0
    outer loop
      vertex 31.247 -1.56366 3
      vertex 31.247 -1.56366 0
      vertex 29.555 -1.94986 3
    endloop
  endfacet
  facet normal -0.222521 0.974928 0
    outer loop
      vertex 29.555 -1.94986 3
      vertex 31.247 -1.56366 0
      vertex 29.555 -1.94986 0
    endloop
  endfacet
  facet normal 0.62349 0.781831 0
    outer loop
      vertex 29.555 -1.94986 3
      vertex 29.555 -1.94986 0
      vertex 28.1981 -0.867767 3
    endloop
  endfacet
  facet normal 0.62349 0.781831 0
    outer loop
      vertex 28.1981 -0.867767 3
      vertex 29.555 -1.94986 0
      vertex 28.1981 -0.867767 0
    endloop
  endfacet
  facet normal 0.62349 -0.781831 0
    outer loop
      vertex 59.555 1.94986 0
      vertex 59.555 1.94986 3
      vertex 58.1981 0.867767 3
    endloop
  endfacet
  facet normal 0.62349 -0.781831 0
    outer loop
      vertex 58.1981 0.867767 0
      vertex 59.555 1.94986 0
      vertex 58.1981 0.867767 3
    endloop
  endfacet
  facet normal 1 0 0
    outer loop
      vertex 58.1981 0.867767 0
      vertex 58.1981 0.867767 3
      vertex 58.1981 -0.867767 3
    endloop
  endfacet
  facet normal 1 0 0
    outer loop
      vertex 58.1981 -0.867767 0
      vertex 58.1981 0.867767 0
      vertex 58.1981 -0.867767 3
    endloop
  endfacet
  facet normal -0.222521 -0.974928 0
    outer loop
      vertex 61.247 1.56366 0
      vertex 61.247 1.56366 3
      vertex 59.555 1.94986 3
    endloop
  endfacet
  facet normal -0.222521 -0.974928 0
    outer loop
      vertex 59.555 1.94986 0
      vertex 61.247 1.56366 0
      vertex 59.555 1.94986 3
    endloop
  endfacet
  facet normal -0.900969 -0.433884 0
    outer loop
      vertex 62 0 3
      vertex 61.247 1.56366 3
      vertex 62 0 0
    endloop
  endfacet
  facet normal -0.900969 -0.433884 0
    outer loop
      vertex 62 0 0
      vertex 61.247 1.56366 3
      vertex 61.247 1.56366 0
    endloop
  endfacet
  facet normal -0.900969 0.433884 0
    outer loop
      vertex 62 0 3
      vertex 62 0 0
      vertex 61.247 -1.56366 3
    endloop
  endfacet
  facet normal -0.900969 0.433884 0
    outer loop
      vertex 61.247 -1.56366 3
      vertex 62 0 0
      vertex 61.247 -1.56366 0
    endloop
  endfacet
  facet normal -0.222521 0.974928 0
    outer loop
      vertex 61.247 -1.56366 3
      vertex 61.247 -1.56366 0
      vertex 59.555 -1.94986 3
    endloop
  endfacet
  facet normal -0.222521 0.974928 0
    outer loop
      vertex 59.555 -1.94986 3
      vertex 61.247 -1.56366 0
      vertex 59.555 -1.94986 0
    endloop
  endfacet
  facet normal 0.62349 0.781831 0
    outer loop
      vertex 59.555 -1.94986 3
      vertex 59.555 -1.94986 0
      vertex 58.1981 -0.867767 3
    endloop
  endfacet
  facet normal 0.62349 0.781831 0
    outer loop
      vertex 58.1981 -0.867767 3
      vertex 59.555 -1.94986 0
      vertex 58.1981 -0.867767 0
    endloop
  endfacet
endsolid OpenSCAD_Model
