solid OpenSCAD_Model
  facet normal -1 0 0
    outer loop
      vertex -3 6 3
      vertex -3 6 0
      vertex -3 -6 3
    endloop
  endfacet
  facet normal -1 0 0
    outer loop
      vertex -3 -9 0
      vertex -3 -9 13
      vertex -3 -6 3
    endloop
  endfacet
  facet normal -1 0 0
    outer loop
      vertex -3 -9 0
      vertex -3 -6 3
      vertex -3 6 0
    endloop
  endfacet
  facet normal -1 0 0
    outer loop
      vertex -3 -6 3
      vertex -3 -9 13
      vertex -3 -6 13
    endloop
  endfacet
  facet normal 0 -1 0
    outer loop
      vertex 3.92705 -9 5.14683
      vertex -3 -9 0
      vertex 45.4264 -9 0
    endloop
  endfacet
  facet normal 0 -1 0
    outer loop
      vertex 16.0692 -9 10.8532
      vertex 17.5692 -9 9.76336
      vertex 26.3572 -9 10.8532
    endloop
  endfacet
  facet normal 0 -1 0
    outer loop
      vertex 14.2151 -9 5.14683
      vertex 6 -9 8
      vertex 5.42705 -9 6.23664
    endloop
  endfacet
  facet normal 0 -1 0
    outer loop
      vertex -3 -9 13
      vertex -3 -9 0
      vertex 0.572949 -9 6.23664
    endloop
  endfacet
  facet normal 0 -1 0
    outer loop
      vertex 14.2151 -9 5.14683
      vertex 12.7151 -9 6.23664
      vertex 6 -9 8
    endloop
  endfacet
  facet normal 0 -1 0
    outer loop
      vertex -3 -9 13
      vertex 0.572949 -9 6.23664
      vertex 0 -9 8
    endloop
  endfacet
  facet normal 0 -1 0
    outer loop
      vertex 28.2113 -9 5.14683
      vertex 26.3572 -9 5.14683
      vertex 45.4264 -9 0
    endloop
  endfacet
  facet normal 0 -1 0
    outer loop
      vertex -3 -9 13
      vertex 0 -9 8
      vertex 0.572949 -9 9.76336
    endloop
  endfacet
  facet normal 0 -1 0
    outer loop
      vertex -3 -9 13
      vertex 0.572949 -9 9.76336
      vertex 2.07295 -9 10.8532
    endloop
  endfacet
  facet normal 0 -1 0
    outer loop
      vertex 17.5692 -9 9.76336
      vertex 18.1421 -9 8
      vertex 24.8572 -9 6.23664
    endloop
  endfacet
  facet normal 0 -1 0
    outer loop
      vertex -3 -9 13
      vertex 2.07295 -9 10.8532
      vertex 3.92705 -9 10.8532
    endloop
  endfacet
  facet normal 0 -1 0
    outer loop
      vertex 14.2151 -9 5.14683
      vertex 5.42705 -9 6.23664
      vertex 45.4264 -9 0
    endloop
  endfacet
  facet normal 0 -1 0
    outer loop
      vertex 2.07295 -9 5.14683
      vertex -3 -9 0
      vertex 3.92705 -9 5.14683
    endloop
  endfacet
  facet normal 0 -1 0
    outer loop
      vertex 0.572949 -9 6.23664
      vertex -3 -9 0
      vertex 2.07295 -9 5.14683
    endloop
  endfacet
  facet normal 0 -1 0
    outer loop
      vertex 12.1421 -9 8
      vertex 3.92705 -9 10.8532
      vertex 5.42705 -9 9.76336
    endloop
  endfacet
  facet normal 0 -1 0
    outer loop
      vertex 12.7151 -9 6.23664
      vertex 12.1421 -9 8
      vertex 5.42705 -9 9.76336
    endloop
  endfacet
  facet normal 0 -1 0
    outer loop
      vertex 14.2151 -9 10.8532
      vertex -3 -9 13
      vertex 12.7151 -9 9.76336
    endloop
  endfacet
  facet normal 0 -1 0
    outer loop
      vertex 45.4264 -9 13
      vertex -3 -9 13
      vertex 14.2151 -9 10.8532
    endloop
  endfacet
  facet normal 0 -1 0
    outer loop
      vertex 36.9994 -9 9.76336
      vertex 38.4994 -9 10.8532
      vertex 30.2843 -9 8
    endloop
  endfacet
  facet normal 0 -1 0
    outer loop
      vertex 45.4264 -9 13
      vertex 14.2151 -9 10.8532
      vertex 16.0692 -9 10.8532
    endloop
  endfacet
  facet normal 0 -1 0
    outer loop
      vertex 26.3572 -9 10.8532
      vertex 28.2113 -9 10.8532
      vertex 45.4264 -9 13
    endloop
  endfacet
  facet normal 0 -1 0
    outer loop
      vertex 5.42705 -9 6.23664
      vertex 3.92705 -9 5.14683
      vertex 45.4264 -9 0
    endloop
  endfacet
  facet normal 0 -1 0
    outer loop
      vertex 16.0692 -9 5.14683
      vertex 14.2151 -9 5.14683
      vertex 45.4264 -9 0
    endloop
  endfacet
  facet normal 0 -1 0
    outer loop
      vertex 12.7151 -9 6.23664
      vertex 5.42705 -9 9.76336
      vertex 6 -9 8
    endloop
  endfacet
  facet normal 0 -1 0
    outer loop
      vertex 18.1421 -9 8
      vertex 17.5692 -9 6.23664
      vertex 26.3572 -9 5.14683
    endloop
  endfacet
  facet normal 0 -1 0
    outer loop
      vertex 40.3535 -9 10.8532
      vertex 41.8535 -9 9.76336
      vertex 45.4264 -9 13
    endloop
  endfacet
  facet normal 0 -1 0
    outer loop
      vertex 24.8572 -9 9.76336
      vertex 17.5692 -9 9.76336
      vertex 24.2843 -9 8
    endloop
  endfacet
  facet normal 0 -1 0
    outer loop
      vertex 29.7113 -9 9.76336
      vertex 30.2843 -9 8
      vertex 38.4994 -9 10.8532
    endloop
  endfacet
  facet normal 0 -1 0
    outer loop
      vertex 24.8572 -9 6.23664
      vertex 24.2843 -9 8
      vertex 17.5692 -9 9.76336
    endloop
  endfacet
  facet normal 0 -1 0
    outer loop
      vertex 29.7113 -9 9.76336
      vertex 38.4994 -9 10.8532
      vertex 45.4264 -9 13
    endloop
  endfacet
  facet normal 0 -1 0
    outer loop
      vertex 28.2113 -9 10.8532
      vertex 29.7113 -9 9.76336
      vertex 45.4264 -9 13
    endloop
  endfacet
  facet normal 0 -1 0
    outer loop
      vertex 29.7113 -9 6.23664
      vertex 28.2113 -9 5.14683
      vertex 45.4264 -9 0
    endloop
  endfacet
  facet normal 0 -1 0
    outer loop
      vertex 36.9994 -9 6.23664
      vertex 30.2843 -9 8
      vertex 45.4264 -9 0
    endloop
  endfacet
  facet normal 0 -1 0
    outer loop
      vertex 30.2843 -9 8
      vertex 29.7113 -9 6.23664
      vertex 45.4264 -9 0
    endloop
  endfacet
  facet normal 0 -1 0
    outer loop
      vertex 26.3572 -9 5.14683
      vertex 17.5692 -9 6.23664
      vertex 45.4264 -9 0
    endloop
  endfacet
  facet normal 0 -1 0
    outer loop
      vertex 24.8572 -9 9.76336
      vertex 26.3572 -9 10.8532
      vertex 17.5692 -9 9.76336
    endloop
  endfacet
  facet normal 0 -1 0
    outer loop
      vertex 16.0692 -9 10.8532
      vertex 26.3572 -9 10.8532
      vertex 45.4264 -9 13
    endloop
  endfacet
  facet normal 0 -1 0
    outer loop
      vertex 38.4994 -9 5.14683
      vertex 36.9994 -9 6.23664
      vertex 45.4264 -9 0
    endloop
  endfacet
  facet normal 0 -1 0
    outer loop
      vertex 36.4264 -9 8
      vertex 30.2843 -9 8
      vertex 36.9994 -9 6.23664
    endloop
  endfacet
  facet normal 0 -1 0
    outer loop
      vertex 36.9994 -9 9.76336
      vertex 30.2843 -9 8
      vertex 36.4264 -9 8
    endloop
  endfacet
  facet normal 0 -1 0
    outer loop
      vertex 38.4994 -9 10.8532
      vertex 40.3535 -9 10.8532
      vertex 45.4264 -9 13
    endloop
  endfacet
  facet normal 0 -1 0
    outer loop
      vertex 45.4264 -9 13
      vertex 41.8535 -9 9.76336
      vertex 45.4264 -9 0
    endloop
  endfacet
  facet normal 0 -1 0
    outer loop
      vertex 41.8535 -9 9.76336
      vertex 42.4264 -9 8
      vertex 45.4264 -9 0
    endloop
  endfacet
  facet normal 0 -1 0
    outer loop
      vertex 42.4264 -9 8
      vertex 41.8535 -9 6.23664
      vertex 45.4264 -9 0
    endloop
  endfacet
  facet normal 0 -1 0
    outer loop
      vertex 41.8535 -9 6.23664
      vertex 40.3535 -9 5.14683
      vertex 45.4264 -9 0
    endloop
  endfacet
  facet normal 0 -1 0
    outer loop
      vertex 40.3535 -9 5.14683
      vertex 38.4994 -9 5.14683
      vertex 45.4264 -9 0
    endloop
  endfacet
  facet normal 0 -1 0
    outer loop
      vertex 26.3572 -9 5.14683
      vertex 24.8572 -9 6.23664
      vertex 18.1421 -9 8
    endloop
  endfacet
  facet normal 0 -1 0
    outer loop
      vertex 17.5692 -9 6.23664
      vertex 16.0692 -9 5.14683
      vertex 45.4264 -9 0
    endloop
  endfacet
  facet normal 0 -1 0
    outer loop
      vertex 3.92705 -9 10.8532
      vertex 12.7151 -9 9.76336
      vertex -3 -9 13
    endloop
  endfacet
  facet normal 0 -1 0
    outer loop
      vertex 12.1421 -9 8
      vertex 12.7151 -9 9.76336
      vertex 3.92705 -9 10.8532
    endloop
  endfacet
  facet normal 0 0 -1
    outer loop
      vertex 1.24698 1.56366 0
      vertex -3 6 0
      vertex 45.4264 -9 0
    endloop
  endfacet
  facet normal 0 0 -1
    outer loop
      vertex 40.6245 0.867767 0
      vertex -3 6 0
      vertex 45.4264 6 0
    endloop
  endfacet
  facet normal 0 0 -1
    outer loop
      vertex -3 -9 0
      vertex -3 6 0
      vertex -1.80194 0.867767 0
    endloop
  endfacet
  facet normal 0 0 -1
    outer loop
      vertex -3 -9 0
      vertex -1.80194 0.867767 0
      vertex -1.80194 -0.867767 0
    endloop
  endfacet
  facet normal 0 0 -1
    outer loop
      vertex -3 -9 0
      vertex -1.80194 -0.867767 0
      vertex -0.445042 -1.94986 0
    endloop
  endfacet
  facet normal 0 0 -1
    outer loop
      vertex -3 -9 0
      vertex -0.445042 -1.94986 0
      vertex 45.4264 -9 0
    endloop
  endfacet
  facet normal 0 0 -1
    outer loop
      vertex -0.445042 -1.94986 0
      vertex 1.24698 -1.56366 0
      vertex 45.4264 -9 0
    endloop
  endfacet
  facet normal 0 0 -1
    outer loop
      vertex 1.24698 1.56366 0
      vertex 45.4264 -9 0
      vertex 2 0 0
    endloop
  endfacet
  facet normal 0 0 -1
    outer loop
      vertex -0.445042 1.94986 0
      vertex -3 6 0
      vertex 1.24698 1.56366 0
    endloop
  endfacet
  facet normal 0 0 -1
    outer loop
      vertex 43.6734 -1.56366 0
      vertex 45.4264 -9 0
      vertex 41.9814 -1.94986 0
    endloop
  endfacet
  facet normal 0 0 -1
    outer loop
      vertex -1.80194 0.867767 0
      vertex -3 6 0
      vertex -0.445042 1.94986 0
    endloop
  endfacet
  facet normal 0 0 -1
    outer loop
      vertex 40.6245 -0.867767 0
      vertex -3 6 0
      vertex 40.6245 0.867767 0
    endloop
  endfacet
  facet normal 0 0 -1
    outer loop
      vertex 41.9814 1.94986 0
      vertex 40.6245 0.867767 0
      vertex 45.4264 6 0
    endloop
  endfacet
  facet normal 0 0 -1
    outer loop
      vertex 45.4264 -9 0
      vertex -3 6 0
      vertex 40.6245 -0.867767 0
    endloop
  endfacet
  facet normal 0 0 -1
    outer loop
      vertex 45.4264 -9 0
      vertex 40.6245 -0.867767 0
      vertex 41.9814 -1.94986 0
    endloop
  endfacet
  facet normal 0 0 -1
    outer loop
      vertex 43.6734 1.56366 0
      vertex 45.4264 6 0
      vertex 44.4264 0 0
    endloop
  endfacet
  facet normal 0 0 -1
    outer loop
      vertex 45.4264 -9 0
      vertex 43.6734 -1.56366 0
      vertex 44.4264 0 0
    endloop
  endfacet
  facet normal 0 0 -1
    outer loop
      vertex 45.4264 -9 0
      vertex 44.4264 0 0
      vertex 45.4264 6 0
    endloop
  endfacet
  facet normal 0 0 -1
    outer loop
      vertex 43.6734 1.56366 0
      vertex 41.9814 1.94986 0
      vertex 45.4264 6 0
    endloop
  endfacet
  facet normal 0 0 -1
    outer loop
      vertex 2 0 0
      vertex 45.4264 -9 0
      vertex 1.24698 -1.56366 0
    endloop
  endfacet
  facet normal 0 1 0
    outer loop
      vertex -3 6 0
      vertex -3 6 3
      vertex 45.4264 6 0
    endloop
  endfacet
  facet normal 0 1 0
    outer loop
      vertex 45.4264 6 0
      vertex -3 6 3
      vertex 45.4264 6 3
    endloop
  endfacet
  facet normal 0 0 1
    outer loop
      vertex 1.24698 -1.56366 3
      vertex -3 -6 3
      vertex 45.4264 -6 3
    endloop
  endfacet
  facet normal 0 0 1
    outer loop
      vertex 40.6245 -0.867767 3
      vertex -3 6 3
      vertex 45.4264 -6 3
    endloop
  endfacet
  facet normal 0 0 1
    outer loop
      vertex 41.9814 1.94986 3
      vertex 43.6734 1.56366 3
      vertex 45.4264 6 3
    endloop
  endfacet
  facet normal 0 0 1
    outer loop
      vertex -3 6 3
      vertex -3 -6 3
      vertex -1.80194 -0.867767 3
    endloop
  endfacet
  facet normal 0 0 1
    outer loop
      vertex 2 0 3
      vertex 1.24698 -1.56366 3
      vertex 45.4264 -6 3
    endloop
  endfacet
  facet normal 0 0 1
    outer loop
      vertex -3 6 3
      vertex -1.80194 -0.867767 3
      vertex -1.80194 0.867767 3
    endloop
  endfacet
  facet normal 0 0 1
    outer loop
      vertex -3 6 3
      vertex -0.445042 1.94986 3
      vertex 45.4264 -6 3
    endloop
  endfacet
  facet normal 0 0 1
    outer loop
      vertex -3 6 3
      vertex -1.80194 0.867767 3
      vertex -0.445042 1.94986 3
    endloop
  endfacet
  facet normal 0 0 1
    outer loop
      vertex -0.445042 1.94986 3
      vertex 1.24698 1.56366 3
      vertex 45.4264 -6 3
    endloop
  endfacet
  facet normal 0 0 1
    outer loop
      vertex -0.445042 -1.94986 3
      vertex -3 -6 3
      vertex 1.24698 -1.56366 3
    endloop
  endfacet
  facet normal 0 0 1
    outer loop
      vertex -1.80194 -0.867767 3
      vertex -3 -6 3
      vertex -0.445042 -1.94986 3
    endloop
  endfacet
  facet normal 0 0 1
    outer loop
      vertex 41.9814 -1.94986 3
      vertex 40.6245 -0.867767 3
      vertex 45.4264 -6 3
    endloop
  endfacet
  facet normal 0 0 1
    outer loop
      vertex 40.6245 0.867767 3
      vertex -3 6 3
      vertex 40.6245 -0.867767 3
    endloop
  endfacet
  facet normal 0 0 1
    outer loop
      vertex 45.4264 6 3
      vertex -3 6 3
      vertex 40.6245 0.867767 3
    endloop
  endfacet
  facet normal 0 0 1
    outer loop
      vertex 44.4264 0 3
      vertex 43.6734 -1.56366 3
      vertex 45.4264 -6 3
    endloop
  endfacet
  facet normal 0 0 1
    outer loop
      vertex 45.4264 6 3
      vertex 40.6245 0.867767 3
      vertex 41.9814 1.94986 3
    endloop
  endfacet
  facet normal 0 0 1
    outer loop
      vertex 45.4264 6 3
      vertex 44.4264 0 3
      vertex 45.4264 -6 3
    endloop
  endfacet
  facet normal 0 0 1
    outer loop
      vertex 45.4264 6 3
      vertex 43.6734 1.56366 3
      vertex 44.4264 0 3
    endloop
  endfacet
  facet normal 0 0 1
    outer loop
      vertex 43.6734 -1.56366 3
      vertex 41.9814 -1.94986 3
      vertex 45.4264 -6 3
    endloop
  endfacet
  facet normal 0 0 1
    outer loop
      vertex 1.24698 1.56366 3
      vertex 2 0 3
      vertex 45.4264 -6 3
    endloop
  endfacet
  facet normal 0 1 0
    outer loop
      vertex 16.0692 -6 10.8532
      vertex -3 -6 13
      vertex 45.4264 -6 13
    endloop
  endfacet
  facet normal 0 1 0
    outer loop
      vertex -3 -6 3
      vertex -3 -6 13
      vertex 0 -6 8
    endloop
  endfacet
  facet normal 0 1 0
    outer loop
      vertex -3 -6 3
      vertex 0 -6 8
      vertex 0.572949 -6 6.23664
    endloop
  endfacet
  facet normal 0 1 0
    outer loop
      vertex 14.2151 -6 5.14683
      vertex 5.42705 -6 6.23664
      vertex 12.7151 -6 6.23664
    endloop
  endfacet
  facet normal 0 1 0
    outer loop
      vertex -3 -6 3
      vertex 0.572949 -6 6.23664
      vertex 2.07295 -6 5.14683
    endloop
  endfacet
  facet normal 0 1 0
    outer loop
      vertex -3 -6 3
      vertex 2.07295 -6 5.14683
      vertex 45.4264 -6 3
    endloop
  endfacet
  facet normal 0 1 0
    outer loop
      vertex 2.07295 -6 5.14683
      vertex 3.92705 -6 5.14683
      vertex 45.4264 -6 3
    endloop
  endfacet
  facet normal 0 1 0
    outer loop
      vertex 17.5692 -6 6.23664
      vertex 26.3572 -6 5.14683
      vertex 16.0692 -6 5.14683
    endloop
  endfacet
  facet normal 0 1 0
    outer loop
      vertex 12.1421 -6 8
      vertex 5.42705 -6 9.76336
      vertex 3.92705 -6 10.8532
    endloop
  endfacet
  facet normal 0 1 0
    outer loop
      vertex 0.572949 -6 9.76336
      vertex -3 -6 13
      vertex 2.07295 -6 10.8532
    endloop
  endfacet
  facet normal 0 1 0
    outer loop
      vertex 28.2113 -6 5.14683
      vertex 45.4264 -6 3
      vertex 26.3572 -6 5.14683
    endloop
  endfacet
  facet normal 0 1 0
    outer loop
      vertex 3.92705 -6 10.8532
      vertex -3 -6 13
      vertex 12.7151 -6 9.76336
    endloop
  endfacet
  facet normal 0 1 0
    outer loop
      vertex 0 -6 8
      vertex -3 -6 13
      vertex 0.572949 -6 9.76336
    endloop
  endfacet
  facet normal 0 1 0
    outer loop
      vertex 6 -6 8
      vertex 5.42705 -6 9.76336
      vertex 12.1421 -6 8
    endloop
  endfacet
  facet normal 0 1 0
    outer loop
      vertex 26.3572 -6 5.14683
      vertex 18.1421 -6 8
      vertex 24.8572 -6 6.23664
    endloop
  endfacet
  facet normal 0 1 0
    outer loop
      vertex 6 -6 8
      vertex 12.7151 -6 6.23664
      vertex 5.42705 -6 6.23664
    endloop
  endfacet
  facet normal 0 1 0
    outer loop
      vertex 3.92705 -6 5.14683
      vertex 14.2151 -6 5.14683
      vertex 45.4264 -6 3
    endloop
  endfacet
  facet normal 0 1 0
    outer loop
      vertex 30.2843 -6 8
      vertex 38.4994 -6 5.14683
      vertex 29.7113 -6 6.23664
    endloop
  endfacet
  facet normal 0 1 0
    outer loop
      vertex 2.07295 -6 10.8532
      vertex -3 -6 13
      vertex 3.92705 -6 10.8532
    endloop
  endfacet
  facet normal 0 1 0
    outer loop
      vertex 29.7113 -6 6.23664
      vertex 45.4264 -6 3
      vertex 28.2113 -6 5.14683
    endloop
  endfacet
  facet normal 0 1 0
    outer loop
      vertex 24.2843 -6 8
      vertex 17.5692 -6 9.76336
      vertex 24.8572 -6 9.76336
    endloop
  endfacet
  facet normal 0 1 0
    outer loop
      vertex 14.2151 -6 10.8532
      vertex -3 -6 13
      vertex 16.0692 -6 10.8532
    endloop
  endfacet
  facet normal 0 1 0
    outer loop
      vertex 26.3572 -6 10.8532
      vertex 16.0692 -6 10.8532
      vertex 45.4264 -6 13
    endloop
  endfacet
  facet normal 0 1 0
    outer loop
      vertex 26.3572 -6 10.8532
      vertex 45.4264 -6 13
      vertex 28.2113 -6 10.8532
    endloop
  endfacet
  facet normal 0 1 0
    outer loop
      vertex 12.7151 -6 9.76336
      vertex -3 -6 13
      vertex 14.2151 -6 10.8532
    endloop
  endfacet
  facet normal 0 1 0
    outer loop
      vertex 24.8572 -6 6.23664
      vertex 18.1421 -6 8
      vertex 17.5692 -6 9.76336
    endloop
  endfacet
  facet normal 0 1 0
    outer loop
      vertex 12.7151 -6 6.23664
      vertex 6 -6 8
      vertex 12.1421 -6 8
    endloop
  endfacet
  facet normal 0 1 0
    outer loop
      vertex 12.1421 -6 8
      vertex 3.92705 -6 10.8532
      vertex 12.7151 -6 9.76336
    endloop
  endfacet
  facet normal 0 1 0
    outer loop
      vertex 38.4994 -6 5.14683
      vertex 45.4264 -6 3
      vertex 29.7113 -6 6.23664
    endloop
  endfacet
  facet normal 0 1 0
    outer loop
      vertex 38.4994 -6 10.8532
      vertex 29.7113 -6 9.76336
      vertex 45.4264 -6 13
    endloop
  endfacet
  facet normal 0 1 0
    outer loop
      vertex 38.4994 -6 5.14683
      vertex 30.2843 -6 8
      vertex 36.9994 -6 6.23664
    endloop
  endfacet
  facet normal 0 1 0
    outer loop
      vertex 29.7113 -6 9.76336
      vertex 28.2113 -6 10.8532
      vertex 45.4264 -6 13
    endloop
  endfacet
  facet normal 0 1 0
    outer loop
      vertex 17.5692 -6 9.76336
      vertex 16.0692 -6 10.8532
      vertex 26.3572 -6 10.8532
    endloop
  endfacet
  facet normal 0 1 0
    outer loop
      vertex 24.8572 -6 9.76336
      vertex 17.5692 -6 9.76336
      vertex 26.3572 -6 10.8532
    endloop
  endfacet
  facet normal 0 1 0
    outer loop
      vertex 36.9994 -6 6.23664
      vertex 30.2843 -6 8
      vertex 36.4264 -6 8
    endloop
  endfacet
  facet normal 0 1 0
    outer loop
      vertex 24.8572 -6 6.23664
      vertex 17.5692 -6 9.76336
      vertex 24.2843 -6 8
    endloop
  endfacet
  facet normal 0 1 0
    outer loop
      vertex 40.3535 -6 5.14683
      vertex 45.4264 -6 3
      vertex 38.4994 -6 5.14683
    endloop
  endfacet
  facet normal 0 1 0
    outer loop
      vertex 41.8535 -6 6.23664
      vertex 45.4264 -6 3
      vertex 40.3535 -6 5.14683
    endloop
  endfacet
  facet normal 0 1 0
    outer loop
      vertex 40.3535 -6 10.8532
      vertex 45.4264 -6 13
      vertex 41.8535 -6 9.76336
    endloop
  endfacet
  facet normal 0 1 0
    outer loop
      vertex 45.4264 -6 3
      vertex 41.8535 -6 6.23664
      vertex 45.4264 -6 13
    endloop
  endfacet
  facet normal 0 1 0
    outer loop
      vertex 41.8535 -6 6.23664
      vertex 42.4264 -6 8
      vertex 45.4264 -6 13
    endloop
  endfacet
  facet normal 0 1 0
    outer loop
      vertex 42.4264 -6 8
      vertex 41.8535 -6 9.76336
      vertex 45.4264 -6 13
    endloop
  endfacet
  facet normal 0 1 0
    outer loop
      vertex 38.4994 -6 10.8532
      vertex 45.4264 -6 13
      vertex 40.3535 -6 10.8532
    endloop
  endfacet
  facet normal 0 1 0
    outer loop
      vertex 30.2843 -6 8
      vertex 29.7113 -6 9.76336
      vertex 38.4994 -6 10.8532
    endloop
  endfacet
  facet normal 0 1 0
    outer loop
      vertex 36.9994 -6 9.76336
      vertex 30.2843 -6 8
      vertex 38.4994 -6 10.8532
    endloop
  endfacet
  facet normal 0 1 0
    outer loop
      vertex 36.4264 -6 8
      vertex 30.2843 -6 8
      vertex 36.9994 -6 9.76336
    endloop
  endfacet
  facet normal 0 1 0
    outer loop
      vertex 16.0692 -6 5.14683
      vertex 45.4264 -6 3
      vertex 14.2151 -6 5.14683
    endloop
  endfacet
  facet normal 0 1 0
    outer loop
      vertex 26.3572 -6 5.14683
      vertex 45.4264 -6 3
      vertex 16.0692 -6 5.14683
    endloop
  endfacet
  facet normal 0 1 0
    outer loop
      vertex 5.42705 -6 6.23664
      vertex 14.2151 -6 5.14683
      vertex 3.92705 -6 5.14683
    endloop
  endfacet
  facet normal 0 1 0
    outer loop
      vertex 26.3572 -6 5.14683
      vertex 17.5692 -6 6.23664
      vertex 18.1421 -6 8
    endloop
  endfacet
  facet normal 0 0 1
    outer loop
      vertex -3 -6 13
      vertex -3 -9 13
      vertex 45.4264 -9 13
    endloop
  endfacet
  facet normal 0 0 1
    outer loop
      vertex 45.4264 -6 13
      vertex -3 -6 13
      vertex 45.4264 -9 13
    endloop
  endfacet
  facet normal 1 0 0
    outer loop
      vertex 45.4264 -6 3
      vertex 45.4264 -9 0
      vertex 45.4264 6 0
    endloop
  endfacet
  facet normal 1 0 0
    outer loop
      vertex 45.4264 -6 3
      vertex 45.4264 -6 13
      vertex 45.4264 -9 13
    endloop
  endfacet
  facet normal 1 0 0
    outer loop
      vertex 45.4264 -9 13
      vertex 45.4264 -9 0
      vertex 45.4264 -6 3
    endloop
  endfacet
  facet normal 1 0 0
    outer loop
      vertex 45.4264 6 3
      vertex 45.4264 -6 3
      vertex 45.4264 6 0
    endloop
  endfacet
  facet normal 0.951057 6.86155e-17 0.309017
    outer loop
      vertex 0.572949 -9 6.23664
      vertex 0.572949 -6 6.23664
      vertex 0 -6 8
    endloop
  endfacet
  facet normal 0.951057 6.86155e-17 0.309017
    outer loop
      vertex 0 -9 8
      vertex 0.572949 -9 6.23664
      vertex 0 -6 8
    endloop
  endfacet
  facet normal 0.587785 1.79638e-16 0.809017
    outer loop
      vertex 2.07295 -9 5.14683
      vertex 2.07295 -6 5.14683
      vertex 0.572949 -6 6.23664
    endloop
  endfacet
  facet normal 0.587785 1.79638e-16 0.809017
    outer loop
      vertex 0.572949 -9 6.23664
      vertex 2.07295 -9 5.14683
      vertex 0.572949 -6 6.23664
    endloop
  endfacet
  facet normal 0 2.22045e-16 1
    outer loop
      vertex 3.92705 -9 5.14683
      vertex 3.92705 -6 5.14683
      vertex 2.07295 -6 5.14683
    endloop
  endfacet
  facet normal 0 2.22045e-16 1
    outer loop
      vertex 2.07295 -9 5.14683
      vertex 3.92705 -9 5.14683
      vertex 2.07295 -6 5.14683
    endloop
  endfacet
  facet normal -0.587785 1.79638e-16 0.809017
    outer loop
      vertex 5.42705 -9 6.23664
      vertex 5.42705 -6 6.23664
      vertex 3.92705 -6 5.14683
    endloop
  endfacet
  facet normal -0.587785 1.79638e-16 0.809017
    outer loop
      vertex 3.92705 -9 5.14683
      vertex 5.42705 -9 6.23664
      vertex 3.92705 -6 5.14683
    endloop
  endfacet
  facet normal -0.951057 6.86155e-17 0.309017
    outer loop
      vertex 6 -6 8
      vertex 5.42705 -6 6.23664
      vertex 6 -9 8
    endloop
  endfacet
  facet normal -0.951057 6.86155e-17 0.309017
    outer loop
      vertex 6 -9 8
      vertex 5.42705 -6 6.23664
      vertex 5.42705 -9 6.23664
    endloop
  endfacet
  facet normal -0.951057 -6.86155e-17 -0.309017
    outer loop
      vertex 6 -6 8
      vertex 6 -9 8
      vertex 5.42705 -6 9.76336
    endloop
  endfacet
  facet normal -0.951057 -6.86155e-17 -0.309017
    outer loop
      vertex 5.42705 -6 9.76336
      vertex 6 -9 8
      vertex 5.42705 -9 9.76336
    endloop
  endfacet
  facet normal -0.587785 -1.79638e-16 -0.809017
    outer loop
      vertex 5.42705 -6 9.76336
      vertex 5.42705 -9 9.76336
      vertex 3.92705 -6 10.8532
    endloop
  endfacet
  facet normal -0.587785 -1.79638e-16 -0.809017
    outer loop
      vertex 3.92705 -6 10.8532
      vertex 5.42705 -9 9.76336
      vertex 3.92705 -9 10.8532
    endloop
  endfacet
  facet normal 0 -2.22045e-16 -1
    outer loop
      vertex 3.92705 -6 10.8532
      vertex 3.92705 -9 10.8532
      vertex 2.07295 -6 10.8532
    endloop
  endfacet
  facet normal 0 -2.22045e-16 -1
    outer loop
      vertex 2.07295 -6 10.8532
      vertex 3.92705 -9 10.8532
      vertex 2.07295 -9 10.8532
    endloop
  endfacet
  facet normal 0.587785 -1.79638e-16 -0.809017
    outer loop
      vertex 2.07295 -6 10.8532
      vertex 2.07295 -9 10.8532
      vertex 0.572949 -6 9.76336
    endloop
  endfacet
  facet normal 0.587785 -1.79638e-16 -0.809017
    outer loop
      vertex 0.572949 -6 9.76336
      vertex 2.07295 -9 10.8532
      vertex 0.572949 -9 9.76336
    endloop
  endfacet
  facet normal 0.951057 -6.86155e-17 -0.309017
    outer loop
      vertex 0 -6 8
      vertex 0.572949 -6 9.76336
      vertex 0.572949 -9 9.76336
    endloop
  endfacet
  facet normal 0.951057 -6.86155e-17 -0.309017
    outer loop
      vertex 0 -9 8
      vertex 0 -6 8
      vertex 0.572949 -9 9.76336
    endloop
  endfacet
  facet normal 0.951057 6.86155e-17 0.309017
    outer loop
      vertex 12.7151 -9 6.23664
      vertex 12.7151 -6 6.23664
      vertex 12.1421 -6 8
    endloop
  endfacet
  facet normal 0.951057 6.86155e-17 0.309017
    outer loop
      vertex 12.1421 -9 8
      vertex 12.7151 -9 6.23664
      vertex 12.1421 -6 8
    endloop
  endfacet
  facet normal 0.587785 1.79638e-16 0.809017
    outer loop
      vertex 14.2151 -9 5.14683
      vertex 14.2151 -6 5.14683
      vertex 12.7151 -6 6.23664
    endloop
  endfacet
  facet normal 0.587785 1.79638e-16 0.809017
    outer loop
      vertex 12.7151 -9 6.23664
      vertex 14.2151 -9 5.14683
      vertex 12.7151 -6 6.23664
    endloop
  endfacet
  facet normal 0 2.22045e-16 1
    outer loop
      vertex 16.0692 -9 5.14683
      vertex 16.0692 -6 5.14683
      vertex 14.2151 -6 5.14683
    endloop
  endfacet
  facet normal 0 2.22045e-16 1
    outer loop
      vertex 14.2151 -9 5.14683
      vertex 16.0692 -9 5.14683
      vertex 14.2151 -6 5.14683
    endloop
  endfacet
  facet normal -0.587785 1.79638e-16 0.809017
    outer loop
      vertex 17.5692 -9 6.23664
      vertex 17.5692 -6 6.23664
      vertex 16.0692 -6 5.14683
    endloop
  endfacet
  facet normal -0.587785 1.79638e-16 0.809017
    outer loop
      vertex 16.0692 -9 5.14683
      vertex 17.5692 -9 6.23664
      vertex 16.0692 -6 5.14683
    endloop
  endfacet
  facet normal -0.951057 6.86155e-17 0.309017
    outer loop
      vertex 18.1421 -6 8
      vertex 17.5692 -6 6.23664
      vertex 18.1421 -9 8
    endloop
  endfacet
  facet normal -0.951057 6.86155e-17 0.309017
    outer loop
      vertex 18.1421 -9 8
      vertex 17.5692 -6 6.23664
      vertex 17.5692 -9 6.23664
    endloop
  endfacet
  facet normal -0.951057 -6.86155e-17 -0.309017
    outer loop
      vertex 18.1421 -6 8
      vertex 18.1421 -9 8
      vertex 17.5692 -6 9.76336
    endloop
  endfacet
  facet normal -0.951057 -6.86155e-17 -0.309017
    outer loop
      vertex 17.5692 -6 9.76336
      vertex 18.1421 -9 8
      vertex 17.5692 -9 9.76336
    endloop
  endfacet
  facet normal -0.587785 -1.79638e-16 -0.809017
    outer loop
      vertex 17.5692 -6 9.76336
      vertex 17.5692 -9 9.76336
      vertex 16.0692 -6 10.8532
    endloop
  endfacet
  facet normal -0.587785 -1.79638e-16 -0.809017
    outer loop
      vertex 16.0692 -6 10.8532
      vertex 17.5692 -9 9.76336
      vertex 16.0692 -9 10.8532
    endloop
  endfacet
  facet normal 0 -2.22045e-16 -1
    outer loop
      vertex 16.0692 -6 10.8532
      vertex 16.0692 -9 10.8532
      vertex 14.2151 -6 10.8532
    endloop
  endfacet
  facet normal 0 -2.22045e-16 -1
    outer loop
      vertex 14.2151 -6 10.8532
      vertex 16.0692 -9 10.8532
      vertex 14.2151 -9 10.8532
    endloop
  endfacet
  facet normal 0.587785 -1.79638e-16 -0.809017
    outer loop
      vertex 14.2151 -6 10.8532
      vertex 14.2151 -9 10.8532
      vertex 12.7151 -6 9.76336
    endloop
  endfacet
  facet normal 0.587785 -1.79638e-16 -0.809017
    outer loop
      vertex 12.7151 -6 9.76336
      vertex 14.2151 -9 10.8532
      vertex 12.7151 -9 9.76336
    endloop
  endfacet
  facet normal 0.951057 -6.86155e-17 -0.309017
    outer loop
      vertex 12.1421 -6 8
      vertex 12.7151 -6 9.76336
      vertex 12.7151 -9 9.76336
    endloop
  endfacet
  facet normal 0.951057 -6.86155e-17 -0.309017
    outer loop
      vertex 12.1421 -9 8
      vertex 12.1421 -6 8
      vertex 12.7151 -9 9.76336
    endloop
  endfacet
  facet normal 0.951057 6.86155e-17 0.309017
    outer loop
      vertex 24.8572 -9 6.23664
      vertex 24.8572 -6 6.23664
      vertex 24.2843 -6 8
    endloop
  endfacet
  facet normal 0.951057 6.86155e-17 0.309017
    outer loop
      vertex 24.2843 -9 8
      vertex 24.8572 -9 6.23664
      vertex 24.2843 -6 8
    endloop
  endfacet
  facet normal 0.587785 1.79638e-16 0.809017
    outer loop
      vertex 26.3572 -9 5.14683
      vertex 26.3572 -6 5.14683
      vertex 24.8572 -6 6.23664
    endloop
  endfacet
  facet normal 0.587785 1.79638e-16 0.809017
    outer loop
      vertex 24.8572 -9 6.23664
      vertex 26.3572 -9 5.14683
      vertex 24.8572 -6 6.23664
    endloop
  endfacet
  facet normal 0 2.22045e-16 1
    outer loop
      vertex 28.2113 -9 5.14683
      vertex 28.2113 -6 5.14683
      vertex 26.3572 -6 5.14683
    endloop
  endfacet
  facet normal 0 2.22045e-16 1
    outer loop
      vertex 26.3572 -9 5.14683
      vertex 28.2113 -9 5.14683
      vertex 26.3572 -6 5.14683
    endloop
  endfacet
  facet normal -0.587785 1.79638e-16 0.809017
    outer loop
      vertex 29.7113 -9 6.23664
      vertex 29.7113 -6 6.23664
      vertex 28.2113 -6 5.14683
    endloop
  endfacet
  facet normal -0.587785 1.79638e-16 0.809017
    outer loop
      vertex 28.2113 -9 5.14683
      vertex 29.7113 -9 6.23664
      vertex 28.2113 -6 5.14683
    endloop
  endfacet
  facet normal -0.951057 6.86155e-17 0.309017
    outer loop
      vertex 30.2843 -6 8
      vertex 29.7113 -6 6.23664
      vertex 30.2843 -9 8
    endloop
  endfacet
  facet normal -0.951057 6.86155e-17 0.309017
    outer loop
      vertex 30.2843 -9 8
      vertex 29.7113 -6 6.23664
      vertex 29.7113 -9 6.23664
    endloop
  endfacet
  facet normal -0.951057 -6.86155e-17 -0.309017
    outer loop
      vertex 30.2843 -6 8
      vertex 30.2843 -9 8
      vertex 29.7113 -6 9.76336
    endloop
  endfacet
  facet normal -0.951057 -6.86155e-17 -0.309017
    outer loop
      vertex 29.7113 -6 9.76336
      vertex 30.2843 -9 8
      vertex 29.7113 -9 9.76336
    endloop
  endfacet
  facet normal -0.587785 -1.79638e-16 -0.809017
    outer loop
      vertex 29.7113 -6 9.76336
      vertex 29.7113 -9 9.76336
      vertex 28.2113 -6 10.8532
    endloop
  endfacet
  facet normal -0.587785 -1.79638e-16 -0.809017
    outer loop
      vertex 28.2113 -6 10.8532
      vertex 29.7113 -9 9.76336
      vertex 28.2113 -9 10.8532
    endloop
  endfacet
  facet normal 0 -2.22045e-16 -1
    outer loop
      vertex 28.2113 -6 10.8532
      vertex 28.2113 -9 10.8532
      vertex 26.3572 -6 10.8532
    endloop
  endfacet
  facet normal 0 -2.22045e-16 -1
    outer loop
      vertex 26.3572 -6 10.8532
      vertex 28.2113 -9 10.8532
      vertex 26.3572 -9 10.8532
    endloop
  endfacet
  facet normal 0.587785 -1.79638e-16 -0.809017
    outer loop
      vertex 26.3572 -6 10.8532
      vertex 26.3572 -9 10.8532
      vertex 24.8572 -6 9.76336
    endloop
  endfacet
  facet normal 0.587785 -1.79638e-16 -0.809017
    outer loop
      vertex 24.8572 -6 9.76336
      vertex 26.3572 -9 10.8532
      vertex 24.8572 -9 9.76336
    endloop
  endfacet
  facet normal 0.951057 -6.86155e-17 -0.309017
    outer loop
      vertex 24.2843 -6 8
      vertex 24.8572 -6 9.76336
      vertex 24.8572 -9 9.76336
    endloop
  endfacet
  facet normal 0.951057 -6.86155e-17 -0.309017
    outer loop
      vertex 24.2843 -9 8
      vertex 24.2843 -6 8
      vertex 24.8572 -9 9.76336
    endloop
  endfacet
  facet normal 0.951057 6.86155e-17 0.309017
    outer loop
      vertex 36.9994 -9 6.23664
      vertex 36.9994 -6 6.23664
      vertex 36.4264 -6 8
    endloop
  endfacet
  facet normal 0.951057 6.86155e-17 0.309017
    outer loop
      vertex 36.4264 -9 8
      vertex 36.9994 -9 6.23664
      vertex 36.4264 -6 8
    endloop
  endfacet
  facet normal 0.587785 1.79638e-16 0.809017
    outer loop
      vertex 38.4994 -9 5.14683
      vertex 38.4994 -6 5.14683
      vertex 36.9994 -6 6.23664
    endloop
  endfacet
  facet normal 0.587785 1.79638e-16 0.809017
    outer loop
      vertex 36.9994 -9 6.23664
      vertex 38.4994 -9 5.14683
      vertex 36.9994 -6 6.23664
    endloop
  endfacet
  facet normal 0 2.22045e-16 1
    outer loop
      vertex 40.3535 -9 5.14683
      vertex 40.3535 -6 5.14683
      vertex 38.4994 -6 5.14683
    endloop
  endfacet
  facet normal 0 2.22045e-16 1
    outer loop
      vertex 38.4994 -9 5.14683
      vertex 40.3535 -9 5.14683
      vertex 38.4994 -6 5.14683
    endloop
  endfacet
  facet normal -0.587785 1.79638e-16 0.809017
    outer loop
      vertex 41.8535 -9 6.23664
      vertex 41.8535 -6 6.23664
      vertex 40.3535 -6 5.14683
    endloop
  endfacet
  facet normal -0.587785 1.79638e-16 0.809017
    outer loop
      vertex 40.3535 -9 5.14683
      vertex 41.8535 -9 6.23664
      vertex 40.3535 -6 5.14683
    endloop
  endfacet
  facet normal -0.951057 6.86155e-17 0.309017
    outer loop
      vertex 42.4264 -6 8
      vertex 41.8535 -6 6.23664
      vertex 42.4264 -9 8
    endloop
  endfacet
  facet normal -0.951057 6.86155e-17 0.309017
    outer loop
      vertex 42.4264 -9 8
      vertex 41.8535 -6 6.23664
      vertex 41.8535 -9 6.23664
    endloop
  endfacet
  facet normal -0.951057 -6.86155e-17 -0.309017
    outer loop
      vertex 42.4264 -6 8
      vertex 42.4264 -9 8
      vertex 41.8535 -6 9.76336
    endloop
  endfacet
  facet normal -0.951057 -6.86155e-17 -0.309017
    outer loop
      vertex 41.8535 -6 9.76336
      vertex 42.4264 -9 8
      vertex 41.8535 -9 9.76336
    endloop
  endfacet
  facet normal -0.587785 -1.79638e-16 -0.809017
    outer loop
      vertex 41.8535 -6 9.76336
      vertex 41.8535 -9 9.76336
      vertex 40.3535 -6 10.8532
    endloop
  endfacet
  facet normal -0.587785 -1.79638e-16 -0.809017
    outer loop
      vertex 40.3535 -6 10.8532
      vertex 41.8535 -9 9.76336
      vertex 40.3535 -9 10.8532
    endloop
  endfacet
  facet normal 0 -2.22045e-16 -1
    outer loop
      vertex 40.3535 -6 10.8532
      vertex 40.3535 -9 10.8532
      vertex 38.4994 -6 10.8532
    endloop
  endfacet
  facet normal 0 -2.22045e-16 -1
    outer loop
      vertex 38.4994 -6 10.8532
      vertex 40.3535 -9 10.8532
      vertex 38.4994 -9 10.8532
    endloop
  endfacet
  facet normal 0.587785 -1.79638e-16 -0.809017
    outer loop
      vertex 38.4994 -6 10.8532
      vertex 38.4994 -9 10.8532
      vertex 36.9994 -6 9.76336
    endloop
  endfacet
  facet normal 0.587785 -1.79638e-16 -0.809017
    outer loop
      vertex 36.9994 -6 9.76336
      vertex 38.4994 -9 10.8532
      vertex 36.9994 -9 9.76336
    endloop
  endfacet
  facet normal 0.951057 -6.86155e-17 -0.309017
    outer loop
      vertex 36.4264 -6 8
      vertex 36.9994 -6 9.76336
      vertex 36.9994 -9 9.76336
    endloop
  endfacet
  facet normal 0.951057 -6.86155e-17 -0.309017
    outer loop
      vertex 36.4264 -9 8
      vertex 36.4264 -6 8
      vertex 36.9994 -9 9.76336
    endloop
  endfacet
  facet normal 1 0 0
    outer loop
      vertex -1.80194 0.867767 0
      vertex -1.80194 0.867767 3
      vertex -1.80194 -0.867767 3
    endloop
  endfacet
  facet normal 1 0 0
    outer loop
      vertex -1.80194 -0.867767 0
      vertex -1.80194 0.867767 0
      vertex -1.80194 -0.867767 3
    endloop
  endfacet
  facet normal 0.62349 -0.781831 0
    outer loop
      vertex -0.445042 1.94986 0
      vertex -0.445042 1.94986 3
      vertex -1.80194 0.867767 3
    endloop
  endfacet
  facet normal 0.62349 -0.781831 0
    outer loop
      vertex -1.80194 0.867767 0
      vertex -0.445042 1.94986 0
      vertex -1.80194 0.867767 3
    endloop
  endfacet
  facet normal -0.222521 -0.974928 0
    outer loop
      vertex 1.24698 1.56366 0
      vertex 1.24698 1.56366 3
      vertex -0.445042 1.94986 3
    endloop
  endfacet
  facet normal -0.222521 -0.974928 0
    outer loop
      vertex -0.445042 1.94986 0
      vertex 1.24698 1.56366 0
      vertex -0.445042 1.94986 3
    endloop
  endfacet
  facet normal -0.900969 -0.433884 0
    outer loop
      vertex 2 0 3
      vertex 1.24698 1.56366 3
      vertex 2 0 0
    endloop
  endfacet
  facet normal -0.900969 -0.433884 0
    outer loop
      vertex 2 0 0
      vertex 1.24698 1.56366 3
      vertex 1.24698 1.56366 0
    endloop
  endfacet
  facet normal -0.900969 0.433884 0
    outer loop
      vertex 2 0 3
      vertex 2 0 0
      vertex 1.24698 -1.56366 3
    endloop
  endfacet
  facet normal -0.900969 0.433884 0
    outer loop
      vertex 1.24698 -1.56366 3
      vertex 2 0 0
      vertex 1.24698 -1.56366 0
    endloop
  endfacet
  facet normal -0.222521 0.974928 0
    outer loop
      vertex 1.24698 -1.56366 3
      vertex 1.24698 -1.56366 0
      vertex -0.445042 -1.94986 3
    endloop
  endfacet
  facet normal -0.222521 0.974928 0
    outer loop
      vertex -0.445042 -1.94986 3
      vertex 1.24698 -1.56366 0
      vertex -0.445042 -1.94986 0
    endloop
  endfacet
  facet normal 0.62349 0.781831 0
    outer loop
      vertex -0.445042 -1.94986 3
      vertex -0.445042 -1.94986 0
      vertex -1.80194 -0.867767 3
    endloop
  endfacet
  facet normal 0.62349 0.781831 0
    outer loop
      vertex -1.80194 -0.867767 3
      vertex -0.445042 -1.94986 0
      vertex -1.80194 -0.867767 0
    endloop
  endfacet
  facet normal 0.62349 -0.781831 0
    outer loop
      vertex 41.9814 1.94986 0
      vertex 41.9814 1.94986 3
      vertex 40.6245 0.867767 3
    endloop
  endfacet
  facet normal 0.62349 -0.781831 0
    outer loop
      vertex 40.6245 0.867767 0
      vertex 41.9814 1.94986 0
      vertex 40.6245 0.867767 3
    endloop
  endfacet
  facet normal 1 0 0
    outer loop
      vertex 40.6245 0.867767 0
      vertex 40.6245 0.867767 3
      vertex 40.6245 -0.867767 3
    endloop
  endfacet
  facet normal 1 0 0
    outer loop
      vertex 40.6245 -0.867767 0
      vertex 40.6245 0.867767 0
      vertex 40.6245 -0.867767 3
    endloop
  endfacet
  facet normal -0.222521 -0.974928 0
    outer loop
      vertex 43.6734 1.56366 0
      vertex 43.6734 1.56366 3
      vertex 41.9814 1.94986 3
    endloop
  endfacet
  facet normal -0.222521 -0.974928 0
    outer loop
      vertex 41.9814 1.94986 0
      vertex 43.6734 1.56366 0
      vertex 41.9814 1.94986 3
    endloop
  endfacet
  facet normal -0.900969 -0.433884 0
    outer loop
      vertex 44.4264 0 3
      vertex 43.6734 1.56366 3
      vertex 44.4264 0 0
    endloop
  endfacet
  facet normal -0.900969 -0.433884 0
    outer loop
      vertex 44.4264 0 0
      vertex 43.6734 1.56366 3
      vertex 43.6734 1.56366 0
    endloop
  endfacet
  facet normal -0.900969 0.433884 0
    outer loop
      vertex 44.4264 0 3
      vertex 44.4264 0 0
      vertex 43.6734 -1.56366 3
    endloop
  endfacet
  facet normal -0.900969 0.433884 0
    outer loop
      vertex 43.6734 -1.56366 3
      vertex 44.4264 0 0
      vertex 43.6734 -1.56366 0
    endloop
  endfacet
  facet normal -0.222521 0.974928 0
    outer loop
      vertex 43.6734 -1.56366 3
      vertex 43.6734 -1.56366 0
      vertex 41.9814 -1.94986 3
    endloop
  endfacet
  facet normal -0.222521 0.974928 0
    outer loop
      vertex 41.9814 -1.94986 3
      vertex 43.6734 -1.56366 0
      vertex 41.9814 -1.94986 0
    endloop
  endfacet
  facet normal 0.62349 0.781831 0
    outer loop
      vertex 41.9814 -1.94986 3
      vertex 41.9814 -1.94986 0
      vertex 40.6245 -0.867767 3
    endloop
  endfacet
  facet normal 0.62349 0.781831 0
    outer loop
      vertex 40.6245 -0.867767 3
      vertex 41.9814 -1.94986 0
      vertex 40.6245 -0.867767 0
    endloop
  endfacet
endsolid OpenSCAD_Model
