solid OpenSCAD_Model
  facet normal -1 0 0
    outer loop
      vertex -3 6 3
      vertex -3 6 0
      vertex -3 -6 3
    endloop
  endfacet
  facet normal -1 0 0
    outer loop
      vertex -3 -9 0
      vertex -3 -9 13
      vertex -3 -6 3
    endloop
  endfacet
  facet normal -1 0 0
    outer loop
      vertex -3 -9 0
      vertex -3 -6 3
      vertex -3 6 0
    endloop
  endfacet
  facet normal -1 0 0
    outer loop
      vertex -3 -6 3
      vertex -3 -9 13
      vertex -3 -6 13
    endloop
  endfacet
  facet normal 0 -1 0
    outer loop
      vertex 4.45395 -9 4.81629
      vertex -3 -9 0
      vertex 45.4264 -9 0
    endloop
  endfacet
  facet normal 0 -1 0
    outer loop
      vertex 12.8501 -9 5.35488
      vertex 11.7839 -9 7.01394
      vertex 6.5 -9 8
    endloop
  endfacet
  facet normal 0 -1 0
    outer loop
      vertex -3 -9 13
      vertex -3 -9 0
      vertex -0.358225 -9 7.01394
    endloop
  endfacet
  facet normal 0 -1 0
    outer loop
      vertex -3 -9 13
      vertex -0.358225 -9 7.01394
      vertex -0.358225 -9 8.98606
    endloop
  endfacet
  facet normal 0 -1 0
    outer loop
      vertex 6.5 -9 8
      vertex 5.94439 -9 6.10776
      vertex 12.8501 -9 5.35488
    endloop
  endfacet
  facet normal 0 -1 0
    outer loop
      vertex -3 -9 13
      vertex -0.358225 -9 8.98606
      vertex 0.707987 -9 10.6451
    endloop
  endfacet
  facet normal 0 -1 0
    outer loop
      vertex 11.7839 -9 8.98606
      vertex 12.8501 -9 10.6451
      vertex 4.45395 -9 11.1837
    endloop
  endfacet
  facet normal 0 -1 0
    outer loop
      vertex -3 -9 13
      vertex 0.707987 -9 10.6451
      vertex 2.5019 -9 11.4644
    endloop
  endfacet
  facet normal 0 -1 0
    outer loop
      vertex 16.5961 -9 11.1837
      vertex 18.0865 -9 9.89224
      vertex 26.7862 -9 11.4644
    endloop
  endfacet
  facet normal 0 -1 0
    outer loop
      vertex 45.4264 -9 13
      vertex -3 -9 13
      vertex 4.45395 -9 11.1837
    endloop
  endfacet
  facet normal 0 -1 0
    outer loop
      vertex 38.9283 -9 4.53563
      vertex 37.1344 -9 5.35488
      vertex 45.4264 -9 0
    endloop
  endfacet
  facet normal 0 -1 0
    outer loop
      vertex 14.644 -9 4.53563
      vertex 12.8501 -9 5.35488
      vertex 5.94439 -9 6.10776
    endloop
  endfacet
  facet normal 0 -1 0
    outer loop
      vertex 14.644 -9 4.53563
      vertex 4.45395 -9 4.81629
      vertex 45.4264 -9 0
    endloop
  endfacet
  facet normal 0 -1 0
    outer loop
      vertex 2.5019 -9 4.53563
      vertex -3 -9 0
      vertex 4.45395 -9 4.81629
    endloop
  endfacet
  facet normal 0 -1 0
    outer loop
      vertex 0.707987 -9 5.35488
      vertex -3 -9 0
      vertex 2.5019 -9 4.53563
    endloop
  endfacet
  facet normal 0 -1 0
    outer loop
      vertex -0.358225 -9 7.01394
      vertex -3 -9 0
      vertex 0.707987 -9 5.35488
    endloop
  endfacet
  facet normal 0 -1 0
    outer loop
      vertex 16.5961 -9 4.81629
      vertex 14.644 -9 4.53563
      vertex 45.4264 -9 0
    endloop
  endfacet
  facet normal 0 -1 0
    outer loop
      vertex 24.9923 -9 5.35488
      vertex 23.926 -9 7.01394
      vertex 18.6421 -9 8
    endloop
  endfacet
  facet normal 0 -1 0
    outer loop
      vertex 23.926 -9 7.01394
      vertex 23.926 -9 8.98606
      vertex 18.0865 -9 9.89224
    endloop
  endfacet
  facet normal 0 -1 0
    outer loop
      vertex 14.644 -9 11.4644
      vertex 4.45395 -9 11.1837
      vertex 12.8501 -9 10.6451
    endloop
  endfacet
  facet normal 0 -1 0
    outer loop
      vertex 45.4264 -9 13
      vertex 4.45395 -9 11.1837
      vertex 14.644 -9 11.4644
    endloop
  endfacet
  facet normal 0 -1 0
    outer loop
      vertex 18.0865 -9 9.89224
      vertex 18.6421 -9 8
      vertex 23.926 -9 7.01394
    endloop
  endfacet
  facet normal 0 -1 0
    outer loop
      vertex 45.4264 -9 13
      vertex 14.644 -9 11.4644
      vertex 16.5961 -9 11.1837
    endloop
  endfacet
  facet normal 0 -1 0
    outer loop
      vertex 28.7382 -9 4.81629
      vertex 26.7862 -9 4.53563
      vertex 45.4264 -9 0
    endloop
  endfacet
  facet normal 0 -1 0
    outer loop
      vertex 18.0865 -9 6.10776
      vertex 16.5961 -9 4.81629
      vertex 45.4264 -9 0
    endloop
  endfacet
  facet normal 0 -1 0
    outer loop
      vertex 5.94439 -9 6.10776
      vertex 4.45395 -9 4.81629
      vertex 14.644 -9 4.53563
    endloop
  endfacet
  facet normal 0 -1 0
    outer loop
      vertex 30.2287 -9 6.10776
      vertex 28.7382 -9 4.81629
      vertex 45.4264 -9 0
    endloop
  endfacet
  facet normal 0 -1 0
    outer loop
      vertex 24.9923 -9 10.6451
      vertex 18.0865 -9 9.89224
      vertex 23.926 -9 8.98606
    endloop
  endfacet
  facet normal 0 -1 0
    outer loop
      vertex 30.7843 -9 8
      vertex 30.2287 -9 6.10776
      vertex 45.4264 -9 0
    endloop
  endfacet
  facet normal 0 -1 0
    outer loop
      vertex 28.7382 -9 11.1837
      vertex 30.2287 -9 9.89224
      vertex 45.4264 -9 13
    endloop
  endfacet
  facet normal 0 -1 0
    outer loop
      vertex 24.9923 -9 10.6451
      vertex 26.7862 -9 11.4644
      vertex 18.0865 -9 9.89224
    endloop
  endfacet
  facet normal 0 -1 0
    outer loop
      vertex 45.4264 -9 13
      vertex 26.7862 -9 11.4644
      vertex 28.7382 -9 11.1837
    endloop
  endfacet
  facet normal 0 -1 0
    outer loop
      vertex 38.9283 -9 11.4644
      vertex 40.8804 -9 11.1837
      vertex 45.4264 -9 13
    endloop
  endfacet
  facet normal 0 -1 0
    outer loop
      vertex 37.1344 -9 5.35488
      vertex 30.7843 -9 8
      vertex 45.4264 -9 0
    endloop
  endfacet
  facet normal 0 -1 0
    outer loop
      vertex 37.1344 -9 5.35488
      vertex 36.0682 -9 7.01394
      vertex 30.2287 -9 9.89224
    endloop
  endfacet
  facet normal 0 -1 0
    outer loop
      vertex 16.5961 -9 11.1837
      vertex 26.7862 -9 11.4644
      vertex 45.4264 -9 13
    endloop
  endfacet
  facet normal 0 -1 0
    outer loop
      vertex 11.7839 -9 7.01394
      vertex 11.7839 -9 8.98606
      vertex 5.94439 -9 9.89224
    endloop
  endfacet
  facet normal 0 -1 0
    outer loop
      vertex 26.7862 -9 4.53563
      vertex 18.0865 -9 6.10776
      vertex 45.4264 -9 0
    endloop
  endfacet
  facet normal 0 -1 0
    outer loop
      vertex 36.0682 -9 8.98606
      vertex 30.2287 -9 9.89224
      vertex 36.0682 -9 7.01394
    endloop
  endfacet
  facet normal 0 -1 0
    outer loop
      vertex 40.8804 -9 4.81629
      vertex 38.9283 -9 4.53563
      vertex 45.4264 -9 0
    endloop
  endfacet
  facet normal 0 -1 0
    outer loop
      vertex 37.1344 -9 10.6451
      vertex 30.2287 -9 9.89224
      vertex 36.0682 -9 8.98606
    endloop
  endfacet
  facet normal 0 -1 0
    outer loop
      vertex 38.9283 -9 11.4644
      vertex 30.2287 -9 9.89224
      vertex 37.1344 -9 10.6451
    endloop
  endfacet
  facet normal 0 -1 0
    outer loop
      vertex 45.4264 -9 13
      vertex 30.2287 -9 9.89224
      vertex 38.9283 -9 11.4644
    endloop
  endfacet
  facet normal 0 -1 0
    outer loop
      vertex 45.4264 -9 13
      vertex 42.3708 -9 9.89224
      vertex 45.4264 -9 0
    endloop
  endfacet
  facet normal 0 -1 0
    outer loop
      vertex 42.3708 -9 9.89224
      vertex 42.9264 -9 8
      vertex 45.4264 -9 0
    endloop
  endfacet
  facet normal 0 -1 0
    outer loop
      vertex 42.9264 -9 8
      vertex 42.3708 -9 6.10776
      vertex 45.4264 -9 0
    endloop
  endfacet
  facet normal 0 -1 0
    outer loop
      vertex 42.3708 -9 6.10776
      vertex 40.8804 -9 4.81629
      vertex 45.4264 -9 0
    endloop
  endfacet
  facet normal 0 -1 0
    outer loop
      vertex 40.8804 -9 11.1837
      vertex 42.3708 -9 9.89224
      vertex 45.4264 -9 13
    endloop
  endfacet
  facet normal 0 -1 0
    outer loop
      vertex 30.2287 -9 9.89224
      vertex 30.7843 -9 8
      vertex 37.1344 -9 5.35488
    endloop
  endfacet
  facet normal 0 -1 0
    outer loop
      vertex 18.6421 -9 8
      vertex 26.7862 -9 4.53563
      vertex 24.9923 -9 5.35488
    endloop
  endfacet
  facet normal 0 -1 0
    outer loop
      vertex 18.6421 -9 8
      vertex 18.0865 -9 6.10776
      vertex 26.7862 -9 4.53563
    endloop
  endfacet
  facet normal 0 -1 0
    outer loop
      vertex 2.5019 -9 11.4644
      vertex 4.45395 -9 11.1837
      vertex -3 -9 13
    endloop
  endfacet
  facet normal 0 -1 0
    outer loop
      vertex 4.45395 -9 11.1837
      vertex 5.94439 -9 9.89224
      vertex 11.7839 -9 8.98606
    endloop
  endfacet
  facet normal 0 -1 0
    outer loop
      vertex 5.94439 -9 9.89224
      vertex 6.5 -9 8
      vertex 11.7839 -9 7.01394
    endloop
  endfacet
  facet normal 0 0 -1
    outer loop
      vertex 1.24698 1.56366 0
      vertex -3 6 0
      vertex 45.4264 -9 0
    endloop
  endfacet
  facet normal 0 0 -1
    outer loop
      vertex 40.6245 0.867767 0
      vertex -3 6 0
      vertex 45.4264 6 0
    endloop
  endfacet
  facet normal 0 0 -1
    outer loop
      vertex -3 -9 0
      vertex -3 6 0
      vertex -1.80194 0.867767 0
    endloop
  endfacet
  facet normal 0 0 -1
    outer loop
      vertex -3 -9 0
      vertex -1.80194 0.867767 0
      vertex -1.80194 -0.867767 0
    endloop
  endfacet
  facet normal 0 0 -1
    outer loop
      vertex -3 -9 0
      vertex -1.80194 -0.867767 0
      vertex -0.445042 -1.94986 0
    endloop
  endfacet
  facet normal 0 0 -1
    outer loop
      vertex -3 -9 0
      vertex -0.445042 -1.94986 0
      vertex 45.4264 -9 0
    endloop
  endfacet
  facet normal 0 0 -1
    outer loop
      vertex -0.445042 -1.94986 0
      vertex 1.24698 -1.56366 0
      vertex 45.4264 -9 0
    endloop
  endfacet
  facet normal 0 0 -1
    outer loop
      vertex 1.24698 1.56366 0
      vertex 45.4264 -9 0
      vertex 2 0 0
    endloop
  endfacet
  facet normal 0 0 -1
    outer loop
      vertex -0.445042 1.94986 0
      vertex -3 6 0
      vertex 1.24698 1.56366 0
    endloop
  endfacet
  facet normal 0 0 -1
    outer loop
      vertex 43.6734 -1.56366 0
      vertex 45.4264 -9 0
      vertex 41.9814 -1.94986 0
    endloop
  endfacet
  facet normal 0 0 -1
    outer loop
      vertex -1.80194 0.867767 0
      vertex -3 6 0
      vertex -0.445042 1.94986 0
    endloop
  endfacet
  facet normal 0 0 -1
    outer loop
      vertex 40.6245 -0.867767 0
      vertex -3 6 0
      vertex 40.6245 0.867767 0
    endloop
  endfacet
  facet normal 0 0 -1
    outer loop
      vertex 41.9814 1.94986 0
      vertex 40.6245 0.867767 0
      vertex 45.4264 6 0
    endloop
  endfacet
  facet normal 0 0 -1
    outer loop
      vertex 45.4264 -9 0
      vertex -3 6 0
      vertex 40.6245 -0.867767 0
    endloop
  endfacet
  facet normal 0 0 -1
    outer loop
      vertex 45.4264 -9 0
      vertex 40.6245 -0.867767 0
      vertex 41.9814 -1.94986 0
    endloop
  endfacet
  facet normal 0 0 -1
    outer loop
      vertex 43.6734 1.56366 0
      vertex 45.4264 6 0
      vertex 44.4264 0 0
    endloop
  endfacet
  facet normal 0 0 -1
    outer loop
      vertex 45.4264 -9 0
      vertex 43.6734 -1.56366 0
      vertex 44.4264 0 0
    endloop
  endfacet
  facet normal 0 0 -1
    outer loop
      vertex 45.4264 -9 0
      vertex 44.4264 0 0
      vertex 45.4264 6 0
    endloop
  endfacet
  facet normal 0 0 -1
    outer loop
      vertex 43.6734 1.56366 0
      vertex 41.9814 1.94986 0
      vertex 45.4264 6 0
    endloop
  endfacet
  facet normal 0 0 -1
    outer loop
      vertex 2 0 0
      vertex 45.4264 -9 0
      vertex 1.24698 -1.56366 0
    endloop
  endfacet
  facet normal 0 1 0
    outer loop
      vertex -3 6 0
      vertex -3 6 3
      vertex 45.4264 6 0
    endloop
  endfacet
  facet normal 0 1 0
    outer loop
      vertex 45.4264 6 0
      vertex -3 6 3
      vertex 45.4264 6 3
    endloop
  endfacet
  facet normal 0 0 1
    outer loop
      vertex 1.24698 -1.56366 3
      vertex -3 -6 3
      vertex 45.4264 -6 3
    endloop
  endfacet
  facet normal 0 0 1
    outer loop
      vertex 40.6245 -0.867767 3
      vertex -3 6 3
      vertex 45.4264 -6 3
    endloop
  endfacet
  facet normal 0 0 1
    outer loop
      vertex 41.9814 1.94986 3
      vertex 43.6734 1.56366 3
      vertex 45.4264 6 3
    endloop
  endfacet
  facet normal 0 0 1
    outer loop
      vertex -3 6 3
      vertex -3 -6 3
      vertex -1.80194 -0.867767 3
    endloop
  endfacet
  facet normal 0 0 1
    outer loop
      vertex 2 0 3
      vertex 1.24698 -1.56366 3
      vertex 45.4264 -6 3
    endloop
  endfacet
  facet normal 0 0 1
    outer loop
      vertex -3 6 3
      vertex -1.80194 -0.867767 3
      vertex -1.80194 0.867767 3
    endloop
  endfacet
  facet normal 0 0 1
    outer loop
      vertex -3 6 3
      vertex -0.445042 1.94986 3
      vertex 45.4264 -6 3
    endloop
  endfacet
  facet normal 0 0 1
    outer loop
      vertex -3 6 3
      vertex -1.80194 0.867767 3
      vertex -0.445042 1.94986 3
    endloop
  endfacet
  facet normal 0 0 1
    outer loop
      vertex -0.445042 1.94986 3
      vertex 1.24698 1.56366 3
      vertex 45.4264 -6 3
    endloop
  endfacet
  facet normal 0 0 1
    outer loop
      vertex -0.445042 -1.94986 3
      vertex -3 -6 3
      vertex 1.24698 -1.56366 3
    endloop
  endfacet
  facet normal 0 0 1
    outer loop
      vertex -1.80194 -0.867767 3
      vertex -3 -6 3
      vertex -0.445042 -1.94986 3
    endloop
  endfacet
  facet normal 0 0 1
    outer loop
      vertex 41.9814 -1.94986 3
      vertex 40.6245 -0.867767 3
      vertex 45.4264 -6 3
    endloop
  endfacet
  facet normal 0 0 1
    outer loop
      vertex 40.6245 0.867767 3
      vertex -3 6 3
      vertex 40.6245 -0.867767 3
    endloop
  endfacet
  facet normal 0 0 1
    outer loop
      vertex 45.4264 6 3
      vertex -3 6 3
      vertex 40.6245 0.867767 3
    endloop
  endfacet
  facet normal 0 0 1
    outer loop
      vertex 44.4264 0 3
      vertex 43.6734 -1.56366 3
      vertex 45.4264 -6 3
    endloop
  endfacet
  facet normal 0 0 1
    outer loop
      vertex 45.4264 6 3
      vertex 40.6245 0.867767 3
      vertex 41.9814 1.94986 3
    endloop
  endfacet
  facet normal 0 0 1
    outer loop
      vertex 45.4264 6 3
      vertex 44.4264 0 3
      vertex 45.4264 -6 3
    endloop
  endfacet
  facet normal 0 0 1
    outer loop
      vertex 45.4264 6 3
      vertex 43.6734 1.56366 3
      vertex 44.4264 0 3
    endloop
  endfacet
  facet normal 0 0 1
    outer loop
      vertex 43.6734 -1.56366 3
      vertex 41.9814 -1.94986 3
      vertex 45.4264 -6 3
    endloop
  endfacet
  facet normal 0 0 1
    outer loop
      vertex 1.24698 1.56366 3
      vertex 2 0 3
      vertex 45.4264 -6 3
    endloop
  endfacet
  facet normal 0 1 0
    outer loop
      vertex 14.644 -6 11.4644
      vertex -3 -6 13
      vertex 45.4264 -6 13
    endloop
  endfacet
  facet normal 0 1 0
    outer loop
      vertex -3 -6 3
      vertex -3 -6 13
      vertex -0.358225 -6 8.98606
    endloop
  endfacet
  facet normal 0 1 0
    outer loop
      vertex -3 -6 3
      vertex -0.358225 -6 8.98606
      vertex -0.358225 -6 7.01394
    endloop
  endfacet
  facet normal 0 1 0
    outer loop
      vertex -3 -6 3
      vertex -0.358225 -6 7.01394
      vertex 0.707987 -6 5.35488
    endloop
  endfacet
  facet normal 0 1 0
    outer loop
      vertex -3 -6 3
      vertex 0.707987 -6 5.35488
      vertex 2.5019 -6 4.53563
    endloop
  endfacet
  facet normal 0 1 0
    outer loop
      vertex -3 -6 3
      vertex 2.5019 -6 4.53563
      vertex 45.4264 -6 3
    endloop
  endfacet
  facet normal 0 1 0
    outer loop
      vertex 2.5019 -6 4.53563
      vertex 4.45395 -6 4.81629
      vertex 45.4264 -6 3
    endloop
  endfacet
  facet normal 0 1 0
    outer loop
      vertex 14.644 -6 4.53563
      vertex 5.94439 -6 6.10776
      vertex 12.8501 -6 5.35488
    endloop
  endfacet
  facet normal 0 1 0
    outer loop
      vertex 12.8501 -6 5.35488
      vertex 5.94439 -6 6.10776
      vertex 11.7839 -6 7.01394
    endloop
  endfacet
  facet normal 0 1 0
    outer loop
      vertex 4.45395 -6 11.1837
      vertex -3 -6 13
      vertex 12.8501 -6 10.6451
    endloop
  endfacet
  facet normal 0 1 0
    outer loop
      vertex 0.707987 -6 10.6451
      vertex -3 -6 13
      vertex 2.5019 -6 11.4644
    endloop
  endfacet
  facet normal 0 1 0
    outer loop
      vertex 2.5019 -6 11.4644
      vertex -3 -6 13
      vertex 4.45395 -6 11.1837
    endloop
  endfacet
  facet normal 0 1 0
    outer loop
      vertex 30.7843 -6 8
      vertex 37.1344 -6 5.35488
      vertex 38.9283 -6 4.53563
    endloop
  endfacet
  facet normal 0 1 0
    outer loop
      vertex 11.7839 -6 8.98606
      vertex 4.45395 -6 11.1837
      vertex 12.8501 -6 10.6451
    endloop
  endfacet
  facet normal 0 1 0
    outer loop
      vertex -0.358225 -6 8.98606
      vertex -3 -6 13
      vertex 0.707987 -6 10.6451
    endloop
  endfacet
  facet normal 0 1 0
    outer loop
      vertex 5.94439 -6 9.89224
      vertex 4.45395 -6 11.1837
      vertex 11.7839 -6 8.98606
    endloop
  endfacet
  facet normal 0 1 0
    outer loop
      vertex 18.6421 -6 8
      vertex 24.9923 -6 5.35488
      vertex 18.0865 -6 6.10776
    endloop
  endfacet
  facet normal 0 1 0
    outer loop
      vertex 24.9923 -6 5.35488
      vertex 18.6421 -6 8
      vertex 23.926 -6 7.01394
    endloop
  endfacet
  facet normal 0 1 0
    outer loop
      vertex 28.7382 -6 4.81629
      vertex 45.4264 -6 3
      vertex 26.7862 -6 4.53563
    endloop
  endfacet
  facet normal 0 1 0
    outer loop
      vertex 6.5 -6 8
      vertex 11.7839 -6 7.01394
      vertex 5.94439 -6 6.10776
    endloop
  endfacet
  facet normal 0 1 0
    outer loop
      vertex 4.45395 -6 4.81629
      vertex 14.644 -6 4.53563
      vertex 45.4264 -6 3
    endloop
  endfacet
  facet normal 0 1 0
    outer loop
      vertex 30.2287 -6 6.10776
      vertex 45.4264 -6 3
      vertex 28.7382 -6 4.81629
    endloop
  endfacet
  facet normal 0 1 0
    outer loop
      vertex 26.7862 -6 4.53563
      vertex 18.0865 -6 6.10776
      vertex 24.9923 -6 5.35488
    endloop
  endfacet
  facet normal 0 1 0
    outer loop
      vertex 11.7839 -6 7.01394
      vertex 6.5 -6 8
      vertex 5.94439 -6 9.89224
    endloop
  endfacet
  facet normal 0 1 0
    outer loop
      vertex 38.9283 -6 4.53563
      vertex 45.4264 -6 3
      vertex 30.2287 -6 6.10776
    endloop
  endfacet
  facet normal 0 1 0
    outer loop
      vertex 23.926 -6 7.01394
      vertex 18.0865 -6 9.89224
      vertex 23.926 -6 8.98606
    endloop
  endfacet
  facet normal 0 1 0
    outer loop
      vertex 24.9923 -6 10.6451
      vertex 16.5961 -6 11.1837
      vertex 26.7862 -6 11.4644
    endloop
  endfacet
  facet normal 0 1 0
    outer loop
      vertex 36.0682 -6 8.98606
      vertex 30.7843 -6 8
      vertex 37.1344 -6 10.6451
    endloop
  endfacet
  facet normal 0 1 0
    outer loop
      vertex 26.7862 -6 11.4644
      vertex 16.5961 -6 11.1837
      vertex 45.4264 -6 13
    endloop
  endfacet
  facet normal 0 1 0
    outer loop
      vertex 16.5961 -6 11.1837
      vertex 14.644 -6 11.4644
      vertex 45.4264 -6 13
    endloop
  endfacet
  facet normal 0 1 0
    outer loop
      vertex 12.8501 -6 10.6451
      vertex -3 -6 13
      vertex 14.644 -6 11.4644
    endloop
  endfacet
  facet normal 0 1 0
    outer loop
      vertex 11.7839 -6 7.01394
      vertex 5.94439 -6 9.89224
      vertex 11.7839 -6 8.98606
    endloop
  endfacet
  facet normal 0 1 0
    outer loop
      vertex 30.7843 -6 8
      vertex 38.9283 -6 4.53563
      vertex 30.2287 -6 6.10776
    endloop
  endfacet
  facet normal 0 1 0
    outer loop
      vertex 18.0865 -6 9.89224
      vertex 23.926 -6 7.01394
      vertex 18.6421 -6 8
    endloop
  endfacet
  facet normal 0 1 0
    outer loop
      vertex 28.7382 -6 11.1837
      vertex 45.4264 -6 13
      vertex 30.2287 -6 9.89224
    endloop
  endfacet
  facet normal 0 1 0
    outer loop
      vertex 42.3708 -6 6.10776
      vertex 45.4264 -6 3
      vertex 40.8804 -6 4.81629
    endloop
  endfacet
  facet normal 0 1 0
    outer loop
      vertex 38.9283 -6 11.4644
      vertex 30.2287 -6 9.89224
      vertex 45.4264 -6 13
    endloop
  endfacet
  facet normal 0 1 0
    outer loop
      vertex 24.9923 -6 10.6451
      vertex 18.0865 -6 9.89224
      vertex 16.5961 -6 11.1837
    endloop
  endfacet
  facet normal 0 1 0
    outer loop
      vertex 28.7382 -6 11.1837
      vertex 26.7862 -6 11.4644
      vertex 45.4264 -6 13
    endloop
  endfacet
  facet normal 0 1 0
    outer loop
      vertex 23.926 -6 8.98606
      vertex 18.0865 -6 9.89224
      vertex 24.9923 -6 10.6451
    endloop
  endfacet
  facet normal 0 1 0
    outer loop
      vertex 36.0682 -6 7.01394
      vertex 30.7843 -6 8
      vertex 36.0682 -6 8.98606
    endloop
  endfacet
  facet normal 0 1 0
    outer loop
      vertex 40.8804 -6 4.81629
      vertex 45.4264 -6 3
      vertex 38.9283 -6 4.53563
    endloop
  endfacet
  facet normal 0 1 0
    outer loop
      vertex 40.8804 -6 11.1837
      vertex 45.4264 -6 13
      vertex 42.3708 -6 9.89224
    endloop
  endfacet
  facet normal 0 1 0
    outer loop
      vertex 45.4264 -6 3
      vertex 42.3708 -6 6.10776
      vertex 45.4264 -6 13
    endloop
  endfacet
  facet normal 0 1 0
    outer loop
      vertex 42.3708 -6 6.10776
      vertex 42.9264 -6 8
      vertex 45.4264 -6 13
    endloop
  endfacet
  facet normal 0 1 0
    outer loop
      vertex 42.9264 -6 8
      vertex 42.3708 -6 9.89224
      vertex 45.4264 -6 13
    endloop
  endfacet
  facet normal 0 1 0
    outer loop
      vertex 37.1344 -6 5.35488
      vertex 30.7843 -6 8
      vertex 36.0682 -6 7.01394
    endloop
  endfacet
  facet normal 0 1 0
    outer loop
      vertex 38.9283 -6 11.4644
      vertex 45.4264 -6 13
      vertex 40.8804 -6 11.1837
    endloop
  endfacet
  facet normal 0 1 0
    outer loop
      vertex 30.7843 -6 8
      vertex 30.2287 -6 9.89224
      vertex 38.9283 -6 11.4644
    endloop
  endfacet
  facet normal 0 1 0
    outer loop
      vertex 30.7843 -6 8
      vertex 38.9283 -6 11.4644
      vertex 37.1344 -6 10.6451
    endloop
  endfacet
  facet normal 0 1 0
    outer loop
      vertex 18.0865 -6 6.10776
      vertex 26.7862 -6 4.53563
      vertex 16.5961 -6 4.81629
    endloop
  endfacet
  facet normal 0 1 0
    outer loop
      vertex 16.5961 -6 4.81629
      vertex 45.4264 -6 3
      vertex 14.644 -6 4.53563
    endloop
  endfacet
  facet normal 0 1 0
    outer loop
      vertex 26.7862 -6 4.53563
      vertex 45.4264 -6 3
      vertex 16.5961 -6 4.81629
    endloop
  endfacet
  facet normal 0 1 0
    outer loop
      vertex 5.94439 -6 6.10776
      vertex 14.644 -6 4.53563
      vertex 4.45395 -6 4.81629
    endloop
  endfacet
  facet normal 0 0 1
    outer loop
      vertex -3 -6 13
      vertex -3 -9 13
      vertex 45.4264 -9 13
    endloop
  endfacet
  facet normal 0 0 1
    outer loop
      vertex 45.4264 -6 13
      vertex -3 -6 13
      vertex 45.4264 -9 13
    endloop
  endfacet
  facet normal 1 0 0
    outer loop
      vertex 45.4264 -6 3
      vertex 45.4264 -9 0
      vertex 45.4264 6 0
    endloop
  endfacet
  facet normal 1 0 0
    outer loop
      vertex 45.4264 -6 3
      vertex 45.4264 -6 13
      vertex 45.4264 -9 13
    endloop
  endfacet
  facet normal 1 0 0
    outer loop
      vertex 45.4264 -9 13
      vertex 45.4264 -9 0
      vertex 45.4264 -6 3
    endloop
  endfacet
  facet normal 1 0 0
    outer loop
      vertex 45.4264 6 3
      vertex 45.4264 -6 3
      vertex 45.4264 6 0
    endloop
  endfacet
  facet normal 1 0 0
    outer loop
      vertex -0.358225 -6 7.01394
      vertex -0.358225 -6 8.98606
      vertex -0.358225 -9 8.98606
    endloop
  endfacet
  facet normal 1 0 0
    outer loop
      vertex -0.358225 -9 7.01394
      vertex -0.358225 -6 7.01394
      vertex -0.358225 -9 8.98606
    endloop
  endfacet
  facet normal 0.841254 1.20046e-16 0.54064
    outer loop
      vertex 0.707987 -9 5.35488
      vertex 0.707987 -6 5.35488
      vertex -0.358225 -6 7.01394
    endloop
  endfacet
  facet normal 0.841254 1.20046e-16 0.54064
    outer loop
      vertex -0.358225 -9 7.01394
      vertex 0.707987 -9 5.35488
      vertex -0.358225 -6 7.01394
    endloop
  endfacet
  facet normal 0.415415 2.01979e-16 0.909632
    outer loop
      vertex 2.5019 -9 4.53563
      vertex 2.5019 -6 4.53563
      vertex 0.707987 -6 5.35488
    endloop
  endfacet
  facet normal 0.415415 2.01979e-16 0.909632
    outer loop
      vertex 0.707987 -9 5.35488
      vertex 2.5019 -9 4.53563
      vertex 0.707987 -6 5.35488
    endloop
  endfacet
  facet normal -0.142315 2.19785e-16 0.989821
    outer loop
      vertex 4.45395 -9 4.81629
      vertex 4.45395 -6 4.81629
      vertex 2.5019 -6 4.53563
    endloop
  endfacet
  facet normal -0.142315 2.19785e-16 0.989821
    outer loop
      vertex 2.5019 -9 4.53563
      vertex 4.45395 -9 4.81629
      vertex 2.5019 -6 4.53563
    endloop
  endfacet
  facet normal -0.654861 1.6781e-16 0.755749
    outer loop
      vertex 5.94439 -9 6.10776
      vertex 5.94439 -6 6.10776
      vertex 4.45395 -6 4.81629
    endloop
  endfacet
  facet normal -0.654861 1.6781e-16 0.755749
    outer loop
      vertex 4.45395 -9 4.81629
      vertex 5.94439 -9 6.10776
      vertex 4.45395 -6 4.81629
    endloop
  endfacet
  facet normal -0.959493 6.25572e-17 0.281733
    outer loop
      vertex 6.5 -6 8
      vertex 5.94439 -6 6.10776
      vertex 6.5 -9 8
    endloop
  endfacet
  facet normal -0.959493 6.25572e-17 0.281733
    outer loop
      vertex 6.5 -9 8
      vertex 5.94439 -6 6.10776
      vertex 5.94439 -9 6.10776
    endloop
  endfacet
  facet normal -0.959493 -6.25572e-17 -0.281733
    outer loop
      vertex 6.5 -6 8
      vertex 6.5 -9 8
      vertex 5.94439 -6 9.89224
    endloop
  endfacet
  facet normal -0.959493 -6.25572e-17 -0.281733
    outer loop
      vertex 5.94439 -6 9.89224
      vertex 6.5 -9 8
      vertex 5.94439 -9 9.89224
    endloop
  endfacet
  facet normal -0.654861 -1.6781e-16 -0.755749
    outer loop
      vertex 5.94439 -6 9.89224
      vertex 5.94439 -9 9.89224
      vertex 4.45395 -6 11.1837
    endloop
  endfacet
  facet normal -0.654861 -1.6781e-16 -0.755749
    outer loop
      vertex 4.45395 -6 11.1837
      vertex 5.94439 -9 9.89224
      vertex 4.45395 -9 11.1837
    endloop
  endfacet
  facet normal -0.142315 -2.19785e-16 -0.989821
    outer loop
      vertex 4.45395 -6 11.1837
      vertex 4.45395 -9 11.1837
      vertex 2.5019 -6 11.4644
    endloop
  endfacet
  facet normal -0.142315 -2.19785e-16 -0.989821
    outer loop
      vertex 2.5019 -6 11.4644
      vertex 4.45395 -9 11.1837
      vertex 2.5019 -9 11.4644
    endloop
  endfacet
  facet normal 0.415415 -2.01979e-16 -0.909632
    outer loop
      vertex 2.5019 -6 11.4644
      vertex 2.5019 -9 11.4644
      vertex 0.707987 -6 10.6451
    endloop
  endfacet
  facet normal 0.415415 -2.01979e-16 -0.909632
    outer loop
      vertex 0.707987 -6 10.6451
      vertex 2.5019 -9 11.4644
      vertex 0.707987 -9 10.6451
    endloop
  endfacet
  facet normal 0.841254 -1.20046e-16 -0.54064
    outer loop
      vertex -0.358225 -6 8.98606
      vertex 0.707987 -6 10.6451
      vertex 0.707987 -9 10.6451
    endloop
  endfacet
  facet normal 0.841254 -1.20046e-16 -0.54064
    outer loop
      vertex -0.358225 -9 8.98606
      vertex -0.358225 -6 8.98606
      vertex 0.707987 -9 10.6451
    endloop
  endfacet
  facet normal 1 0 0
    outer loop
      vertex 11.7839 -6 7.01394
      vertex 11.7839 -6 8.98606
      vertex 11.7839 -9 8.98606
    endloop
  endfacet
  facet normal 1 0 0
    outer loop
      vertex 11.7839 -9 7.01394
      vertex 11.7839 -6 7.01394
      vertex 11.7839 -9 8.98606
    endloop
  endfacet
  facet normal 0.841254 1.20046e-16 0.54064
    outer loop
      vertex 12.8501 -9 5.35488
      vertex 12.8501 -6 5.35488
      vertex 11.7839 -6 7.01394
    endloop
  endfacet
  facet normal 0.841254 1.20046e-16 0.54064
    outer loop
      vertex 11.7839 -9 7.01394
      vertex 12.8501 -9 5.35488
      vertex 11.7839 -6 7.01394
    endloop
  endfacet
  facet normal 0.415415 2.01979e-16 0.909632
    outer loop
      vertex 14.644 -9 4.53563
      vertex 14.644 -6 4.53563
      vertex 12.8501 -6 5.35488
    endloop
  endfacet
  facet normal 0.415415 2.01979e-16 0.909632
    outer loop
      vertex 12.8501 -9 5.35488
      vertex 14.644 -9 4.53563
      vertex 12.8501 -6 5.35488
    endloop
  endfacet
  facet normal -0.142315 2.19785e-16 0.989821
    outer loop
      vertex 16.5961 -9 4.81629
      vertex 16.5961 -6 4.81629
      vertex 14.644 -6 4.53563
    endloop
  endfacet
  facet normal -0.142315 2.19785e-16 0.989821
    outer loop
      vertex 14.644 -9 4.53563
      vertex 16.5961 -9 4.81629
      vertex 14.644 -6 4.53563
    endloop
  endfacet
  facet normal -0.654861 1.6781e-16 0.755749
    outer loop
      vertex 18.0865 -9 6.10776
      vertex 18.0865 -6 6.10776
      vertex 16.5961 -6 4.81629
    endloop
  endfacet
  facet normal -0.654861 1.6781e-16 0.755749
    outer loop
      vertex 16.5961 -9 4.81629
      vertex 18.0865 -9 6.10776
      vertex 16.5961 -6 4.81629
    endloop
  endfacet
  facet normal -0.959493 6.25572e-17 0.281733
    outer loop
      vertex 18.6421 -6 8
      vertex 18.0865 -6 6.10776
      vertex 18.6421 -9 8
    endloop
  endfacet
  facet normal -0.959493 6.25572e-17 0.281733
    outer loop
      vertex 18.6421 -9 8
      vertex 18.0865 -6 6.10776
      vertex 18.0865 -9 6.10776
    endloop
  endfacet
  facet normal -0.959493 -6.25572e-17 -0.281733
    outer loop
      vertex 18.6421 -6 8
      vertex 18.6421 -9 8
      vertex 18.0865 -6 9.89224
    endloop
  endfacet
  facet normal -0.959493 -6.25572e-17 -0.281733
    outer loop
      vertex 18.0865 -6 9.89224
      vertex 18.6421 -9 8
      vertex 18.0865 -9 9.89224
    endloop
  endfacet
  facet normal -0.654861 -1.6781e-16 -0.755749
    outer loop
      vertex 18.0865 -6 9.89224
      vertex 18.0865 -9 9.89224
      vertex 16.5961 -6 11.1837
    endloop
  endfacet
  facet normal -0.654861 -1.6781e-16 -0.755749
    outer loop
      vertex 16.5961 -6 11.1837
      vertex 18.0865 -9 9.89224
      vertex 16.5961 -9 11.1837
    endloop
  endfacet
  facet normal -0.142315 -2.19785e-16 -0.989821
    outer loop
      vertex 16.5961 -6 11.1837
      vertex 16.5961 -9 11.1837
      vertex 14.644 -6 11.4644
    endloop
  endfacet
  facet normal -0.142315 -2.19785e-16 -0.989821
    outer loop
      vertex 14.644 -6 11.4644
      vertex 16.5961 -9 11.1837
      vertex 14.644 -9 11.4644
    endloop
  endfacet
  facet normal 0.415415 -2.01979e-16 -0.909632
    outer loop
      vertex 14.644 -6 11.4644
      vertex 14.644 -9 11.4644
      vertex 12.8501 -6 10.6451
    endloop
  endfacet
  facet normal 0.415415 -2.01979e-16 -0.909632
    outer loop
      vertex 12.8501 -6 10.6451
      vertex 14.644 -9 11.4644
      vertex 12.8501 -9 10.6451
    endloop
  endfacet
  facet normal 0.841254 -1.20046e-16 -0.54064
    outer loop
      vertex 11.7839 -6 8.98606
      vertex 12.8501 -6 10.6451
      vertex 12.8501 -9 10.6451
    endloop
  endfacet
  facet normal 0.841254 -1.20046e-16 -0.54064
    outer loop
      vertex 11.7839 -9 8.98606
      vertex 11.7839 -6 8.98606
      vertex 12.8501 -9 10.6451
    endloop
  endfacet
  facet normal 1 0 0
    outer loop
      vertex 23.926 -6 7.01394
      vertex 23.926 -6 8.98606
      vertex 23.926 -9 8.98606
    endloop
  endfacet
  facet normal 1 0 0
    outer loop
      vertex 23.926 -9 7.01394
      vertex 23.926 -6 7.01394
      vertex 23.926 -9 8.98606
    endloop
  endfacet
  facet normal 0.841254 1.20046e-16 0.54064
    outer loop
      vertex 24.9923 -9 5.35488
      vertex 24.9923 -6 5.35488
      vertex 23.926 -6 7.01394
    endloop
  endfacet
  facet normal 0.841254 1.20046e-16 0.54064
    outer loop
      vertex 23.926 -9 7.01394
      vertex 24.9923 -9 5.35488
      vertex 23.926 -6 7.01394
    endloop
  endfacet
  facet normal 0.415415 2.01979e-16 0.909632
    outer loop
      vertex 26.7862 -9 4.53563
      vertex 26.7862 -6 4.53563
      vertex 24.9923 -6 5.35488
    endloop
  endfacet
  facet normal 0.415415 2.01979e-16 0.909632
    outer loop
      vertex 24.9923 -9 5.35488
      vertex 26.7862 -9 4.53563
      vertex 24.9923 -6 5.35488
    endloop
  endfacet
  facet normal -0.142315 2.19785e-16 0.989821
    outer loop
      vertex 28.7382 -9 4.81629
      vertex 28.7382 -6 4.81629
      vertex 26.7862 -6 4.53563
    endloop
  endfacet
  facet normal -0.142315 2.19785e-16 0.989821
    outer loop
      vertex 26.7862 -9 4.53563
      vertex 28.7382 -9 4.81629
      vertex 26.7862 -6 4.53563
    endloop
  endfacet
  facet normal -0.654861 1.6781e-16 0.755749
    outer loop
      vertex 30.2287 -9 6.10776
      vertex 30.2287 -6 6.10776
      vertex 28.7382 -6 4.81629
    endloop
  endfacet
  facet normal -0.654861 1.6781e-16 0.755749
    outer loop
      vertex 28.7382 -9 4.81629
      vertex 30.2287 -9 6.10776
      vertex 28.7382 -6 4.81629
    endloop
  endfacet
  facet normal -0.959493 6.25572e-17 0.281733
    outer loop
      vertex 30.7843 -6 8
      vertex 30.2287 -6 6.10776
      vertex 30.7843 -9 8
    endloop
  endfacet
  facet normal -0.959493 6.25572e-17 0.281733
    outer loop
      vertex 30.7843 -9 8
      vertex 30.2287 -6 6.10776
      vertex 30.2287 -9 6.10776
    endloop
  endfacet
  facet normal -0.959493 -6.25572e-17 -0.281733
    outer loop
      vertex 30.7843 -6 8
      vertex 30.7843 -9 8
      vertex 30.2287 -6 9.89224
    endloop
  endfacet
  facet normal -0.959493 -6.25572e-17 -0.281733
    outer loop
      vertex 30.2287 -6 9.89224
      vertex 30.7843 -9 8
      vertex 30.2287 -9 9.89224
    endloop
  endfacet
  facet normal -0.654861 -1.6781e-16 -0.755749
    outer loop
      vertex 30.2287 -6 9.89224
      vertex 30.2287 -9 9.89224
      vertex 28.7382 -6 11.1837
    endloop
  endfacet
  facet normal -0.654861 -1.6781e-16 -0.755749
    outer loop
      vertex 28.7382 -6 11.1837
      vertex 30.2287 -9 9.89224
      vertex 28.7382 -9 11.1837
    endloop
  endfacet
  facet normal -0.142315 -2.19785e-16 -0.989821
    outer loop
      vertex 28.7382 -6 11.1837
      vertex 28.7382 -9 11.1837
      vertex 26.7862 -6 11.4644
    endloop
  endfacet
  facet normal -0.142315 -2.19785e-16 -0.989821
    outer loop
      vertex 26.7862 -6 11.4644
      vertex 28.7382 -9 11.1837
      vertex 26.7862 -9 11.4644
    endloop
  endfacet
  facet normal 0.415415 -2.01979e-16 -0.909632
    outer loop
      vertex 26.7862 -6 11.4644
      vertex 26.7862 -9 11.4644
      vertex 24.9923 -6 10.6451
    endloop
  endfacet
  facet normal 0.415415 -2.01979e-16 -0.909632
    outer loop
      vertex 24.9923 -6 10.6451
      vertex 26.7862 -9 11.4644
      vertex 24.9923 -9 10.6451
    endloop
  endfacet
  facet normal 0.841254 -1.20046e-16 -0.54064
    outer loop
      vertex 23.926 -6 8.98606
      vertex 24.9923 -6 10.6451
      vertex 24.9923 -9 10.6451
    endloop
  endfacet
  facet normal 0.841254 -1.20046e-16 -0.54064
    outer loop
      vertex 23.926 -9 8.98606
      vertex 23.926 -6 8.98606
      vertex 24.9923 -9 10.6451
    endloop
  endfacet
  facet normal 1 0 0
    outer loop
      vertex 36.0682 -6 7.01394
      vertex 36.0682 -6 8.98606
      vertex 36.0682 -9 8.98606
    endloop
  endfacet
  facet normal 1 0 0
    outer loop
      vertex 36.0682 -9 7.01394
      vertex 36.0682 -6 7.01394
      vertex 36.0682 -9 8.98606
    endloop
  endfacet
  facet normal 0.841254 1.20046e-16 0.54064
    outer loop
      vertex 37.1344 -9 5.35488
      vertex 37.1344 -6 5.35488
      vertex 36.0682 -6 7.01394
    endloop
  endfacet
  facet normal 0.841254 1.20046e-16 0.54064
    outer loop
      vertex 36.0682 -9 7.01394
      vertex 37.1344 -9 5.35488
      vertex 36.0682 -6 7.01394
    endloop
  endfacet
  facet normal 0.415415 2.01979e-16 0.909632
    outer loop
      vertex 38.9283 -9 4.53563
      vertex 38.9283 -6 4.53563
      vertex 37.1344 -6 5.35488
    endloop
  endfacet
  facet normal 0.415415 2.01979e-16 0.909632
    outer loop
      vertex 37.1344 -9 5.35488
      vertex 38.9283 -9 4.53563
      vertex 37.1344 -6 5.35488
    endloop
  endfacet
  facet normal -0.142315 2.19785e-16 0.989821
    outer loop
      vertex 40.8804 -9 4.81629
      vertex 40.8804 -6 4.81629
      vertex 38.9283 -6 4.53563
    endloop
  endfacet
  facet normal -0.142315 2.19785e-16 0.989821
    outer loop
      vertex 38.9283 -9 4.53563
      vertex 40.8804 -9 4.81629
      vertex 38.9283 -6 4.53563
    endloop
  endfacet
  facet normal -0.654861 1.6781e-16 0.755749
    outer loop
      vertex 42.3708 -9 6.10776
      vertex 42.3708 -6 6.10776
      vertex 40.8804 -6 4.81629
    endloop
  endfacet
  facet normal -0.654861 1.6781e-16 0.755749
    outer loop
      vertex 40.8804 -9 4.81629
      vertex 42.3708 -9 6.10776
      vertex 40.8804 -6 4.81629
    endloop
  endfacet
  facet normal -0.959493 6.25572e-17 0.281733
    outer loop
      vertex 42.9264 -6 8
      vertex 42.3708 -6 6.10776
      vertex 42.9264 -9 8
    endloop
  endfacet
  facet normal -0.959493 6.25572e-17 0.281733
    outer loop
      vertex 42.9264 -9 8
      vertex 42.3708 -6 6.10776
      vertex 42.3708 -9 6.10776
    endloop
  endfacet
  facet normal -0.959493 -6.25572e-17 -0.281733
    outer loop
      vertex 42.9264 -6 8
      vertex 42.9264 -9 8
      vertex 42.3708 -6 9.89224
    endloop
  endfacet
  facet normal -0.959493 -6.25572e-17 -0.281733
    outer loop
      vertex 42.3708 -6 9.89224
      vertex 42.9264 -9 8
      vertex 42.3708 -9 9.89224
    endloop
  endfacet
  facet normal -0.654861 -1.6781e-16 -0.755749
    outer loop
      vertex 42.3708 -6 9.89224
      vertex 42.3708 -9 9.89224
      vertex 40.8804 -6 11.1837
    endloop
  endfacet
  facet normal -0.654861 -1.6781e-16 -0.755749
    outer loop
      vertex 40.8804 -6 11.1837
      vertex 42.3708 -9 9.89224
      vertex 40.8804 -9 11.1837
    endloop
  endfacet
  facet normal -0.142315 -2.19785e-16 -0.989821
    outer loop
      vertex 40.8804 -6 11.1837
      vertex 40.8804 -9 11.1837
      vertex 38.9283 -6 11.4644
    endloop
  endfacet
  facet normal -0.142315 -2.19785e-16 -0.989821
    outer loop
      vertex 38.9283 -6 11.4644
      vertex 40.8804 -9 11.1837
      vertex 38.9283 -9 11.4644
    endloop
  endfacet
  facet normal 0.415415 -2.01979e-16 -0.909632
    outer loop
      vertex 38.9283 -6 11.4644
      vertex 38.9283 -9 11.4644
      vertex 37.1344 -6 10.6451
    endloop
  endfacet
  facet normal 0.415415 -2.01979e-16 -0.909632
    outer loop
      vertex 37.1344 -6 10.6451
      vertex 38.9283 -9 11.4644
      vertex 37.1344 -9 10.6451
    endloop
  endfacet
  facet normal 0.841254 -1.20046e-16 -0.54064
    outer loop
      vertex 36.0682 -6 8.98606
      vertex 37.1344 -6 10.6451
      vertex 37.1344 -9 10.6451
    endloop
  endfacet
  facet normal 0.841254 -1.20046e-16 -0.54064
    outer loop
      vertex 36.0682 -9 8.98606
      vertex 36.0682 -6 8.98606
      vertex 37.1344 -9 10.6451
    endloop
  endfacet
  facet normal 0.62349 -0.781831 0
    outer loop
      vertex -0.445042 1.94986 0
      vertex -0.445042 1.94986 3
      vertex -1.80194 0.867767 3
    endloop
  endfacet
  facet normal 0.62349 -0.781831 0
    outer loop
      vertex -1.80194 0.867767 0
      vertex -0.445042 1.94986 0
      vertex -1.80194 0.867767 3
    endloop
  endfacet
  facet normal 1 0 0
    outer loop
      vertex -1.80194 0.867767 0
      vertex -1.80194 0.867767 3
      vertex -1.80194 -0.867767 3
    endloop
  endfacet
  facet normal 1 0 0
    outer loop
      vertex -1.80194 -0.867767 0
      vertex -1.80194 0.867767 0
      vertex -1.80194 -0.867767 3
    endloop
  endfacet
  facet normal -0.222521 -0.974928 0
    outer loop
      vertex 1.24698 1.56366 0
      vertex 1.24698 1.56366 3
      vertex -0.445042 1.94986 3
    endloop
  endfacet
  facet normal -0.222521 -0.974928 0
    outer loop
      vertex -0.445042 1.94986 0
      vertex 1.24698 1.56366 0
      vertex -0.445042 1.94986 3
    endloop
  endfacet
  facet normal -0.900969 -0.433884 0
    outer loop
      vertex 2 0 3
      vertex 1.24698 1.56366 3
      vertex 2 0 0
    endloop
  endfacet
  facet normal -0.900969 -0.433884 0
    outer loop
      vertex 2 0 0
      vertex 1.24698 1.56366 3
      vertex 1.24698 1.56366 0
    endloop
  endfacet
  facet normal -0.900969 0.433884 0
    outer loop
      vertex 2 0 3
      vertex 2 0 0
      vertex 1.24698 -1.56366 3
    endloop
  endfacet
  facet normal -0.900969 0.433884 0
    outer loop
      vertex 1.24698 -1.56366 3
      vertex 2 0 0
      vertex 1.24698 -1.56366 0
    endloop
  endfacet
  facet normal -0.222521 0.974928 0
    outer loop
      vertex 1.24698 -1.56366 3
      vertex 1.24698 -1.56366 0
      vertex -0.445042 -1.94986 3
    endloop
  endfacet
  facet normal -0.222521 0.974928 0
    outer loop
      vertex -0.445042 -1.94986 3
      vertex 1.24698 -1.56366 0
      vertex -0.445042 -1.94986 0
    endloop
  endfacet
  facet normal 0.62349 0.781831 0
    outer loop
      vertex -0.445042 -1.94986 3
      vertex -0.445042 -1.94986 0
      vertex -1.80194 -0.867767 3
    endloop
  endfacet
  facet normal 0.62349 0.781831 0
    outer loop
      vertex -1.80194 -0.867767 3
      vertex -0.445042 -1.94986 0
      vertex -1.80194 -0.867767 0
    endloop
  endfacet
  facet normal 1 0 0
    outer loop
      vertex 40.6245 0.867767 0
      vertex 40.6245 0.867767 3
      vertex 40.6245 -0.867767 3
    endloop
  endfacet
  facet normal 1 0 0
    outer loop
      vertex 40.6245 -0.867767 0
      vertex 40.6245 0.867767 0
      vertex 40.6245 -0.867767 3
    endloop
  endfacet
  facet normal 0.62349 -0.781831 0
    outer loop
      vertex 41.9814 1.94986 0
      vertex 41.9814 1.94986 3
      vertex 40.6245 0.867767 3
    endloop
  endfacet
  facet normal 0.62349 -0.781831 0
    outer loop
      vertex 40.6245 0.867767 0
      vertex 41.9814 1.94986 0
      vertex 40.6245 0.867767 3
    endloop
  endfacet
  facet normal -0.222521 -0.974928 0
    outer loop
      vertex 43.6734 1.56366 0
      vertex 43.6734 1.56366 3
      vertex 41.9814 1.94986 3
    endloop
  endfacet
  facet normal -0.222521 -0.974928 0
    outer loop
      vertex 41.9814 1.94986 0
      vertex 43.6734 1.56366 0
      vertex 41.9814 1.94986 3
    endloop
  endfacet
  facet normal -0.900969 -0.433884 0
    outer loop
      vertex 44.4264 0 3
      vertex 43.6734 1.56366 3
      vertex 44.4264 0 0
    endloop
  endfacet
  facet normal -0.900969 -0.433884 0
    outer loop
      vertex 44.4264 0 0
      vertex 43.6734 1.56366 3
      vertex 43.6734 1.56366 0
    endloop
  endfacet
  facet normal -0.900969 0.433884 0
    outer loop
      vertex 44.4264 0 3
      vertex 44.4264 0 0
      vertex 43.6734 -1.56366 3
    endloop
  endfacet
  facet normal -0.900969 0.433884 0
    outer loop
      vertex 43.6734 -1.56366 3
      vertex 44.4264 0 0
      vertex 43.6734 -1.56366 0
    endloop
  endfacet
  facet normal -0.222521 0.974928 0
    outer loop
      vertex 43.6734 -1.56366 3
      vertex 43.6734 -1.56366 0
      vertex 41.9814 -1.94986 3
    endloop
  endfacet
  facet normal -0.222521 0.974928 0
    outer loop
      vertex 41.9814 -1.94986 3
      vertex 43.6734 -1.56366 0
      vertex 41.9814 -1.94986 0
    endloop
  endfacet
  facet normal 0.62349 0.781831 0
    outer loop
      vertex 41.9814 -1.94986 3
      vertex 41.9814 -1.94986 0
      vertex 40.6245 -0.867767 3
    endloop
  endfacet
  facet normal 0.62349 0.781831 0
    outer loop
      vertex 40.6245 -0.867767 3
      vertex 41.9814 -1.94986 0
      vertex 40.6245 -0.867767 0
    endloop
  endfacet
endsolid OpenSCAD_Model
